<?xml version="1.0" encoding="UTF-8"?>
<svg id="Layer_1" xmlns="http://www.w3.org/2000/svg" version="1.1" viewBox="0 0 512 512">
  <!-- Generator: Adobe Illustrator 30.0.0, SVG Export Plug-In . SVG Version: 2.1.1 Build 104)  -->
  <path d="M256,21.77C126.86,21.77,21.77,126.86,21.77,256s105.09,234.23,234.23,234.23,234.23-105.07,234.23-234.23S385.16,21.77,256,21.77ZM346.72,272.51h-72.58v72.57c0,10.04-8.12,18.15-18.14,18.15s-18.14-8.11-18.14-18.15v-72.57h-72.58c-10.01,0-18.14-8.13-18.14-18.14s8.13-18.15,18.14-18.15h72.58v-72.57c0-10.01,8.12-18.14,18.14-18.14s18.14,8.13,18.14,18.14v72.57h72.58c10.03,0,18.14,8.13,18.14,18.15s-8.11,18.14-18.14,18.14Z" fill="#988561"/>
  <path d="M291.27,5.56s-.07-.01-.1-.01h-.01s-.05-.01-.09-.02h-.02s-.05-.01-.07-.01h-.04s-.03,0-.06,0c-.01,0-.03-.01-.04-.01-.02,0-.03,0-.05-.01h-.05s-.04-.01-.05-.01c-.02,0-.04,0-.05-.01h-.05s-.03-.01-.05-.01c0,0-.04,0-.04,0h-.06s-.03-.01-.04-.01c-.02,0-.04,0-.06-.01h-.04s-.04-.01-.06-.01h-.03s-.05-.01-.07-.01c-.01,0-.02-.01-.03-.01-.02,0-.04,0-.07,0h-.02s-.05-.01-.08-.01h-.02s-.05-.01-.08-.01h-.01s-.06-.01-.08-.02h-.02s-.05-.01-.08-.01h-.02s-.05-.01-.08-.01h-.01s-.06,0-.09-.02h-.01s-.06,0-.08-.01h-.01s-.06-.01-.09-.01h-.01c-3.59-.47-7.21-.87-10.85-1.19-.03,0-.07-.01-.1-.01s-.06,0-.09-.01h-.01s-.06,0-.09,0h-.11s-.05-.01-.08-.01h-.02s-.05-.01-.08-.01h-.02s-.05-.01-.08-.01h-.02s-.05,0-.08-.01h-.01s-.06,0-.08-.01h-.1s-.01,0-.02,0h-.1s-.05-.01-.08-.01h-.02s-.05-.01-.07-.01h-.03s-.05,0-.07-.01h-.1s-.02-.01-.02-.01h-.1s-.05-.01-.08-.01h-.02s-.05,0-.08,0h-.02s-.05,0-.07-.01h-.1s-.01-.01-.03-.01h-.1s-.05-.01-.07-.01h-.02s-.05-.01-.08-.01h-.03s-.05,0-.07-.01h-.11c-.09,0-.17-.02-.26-.02-.01,0-.01-.01-.02-.01h-.1s-.04-.01-.05-.01h-.05s-.03,0-.05-.01h-.1s-.03,0-.05-.01h-.1s-.02-.01-.04-.01h-.1s-.03,0-.06,0h-.03s-.04,0-.07-.01h-.1s-.02,0-.03-.01h-.1s-.04-.01-.07-.01h-.1s-.02-.01-.03-.01h-.1s-.05-.01-.06-.01h-.04s-.05,0-.07,0h-.1s-.02,0-.03-.01h-.1s-.05-.01-.06-.01h-.11s-.02-.01-.02-.01h-.1s-.05-.01-.08-.01h-.02s-.05,0-.08-.01h-.12s-.05,0-.08,0h-.02s-.05,0-.09-.01h-.11s-.05-.01-.09-.01h-.01s-.06,0-.09-.01h-.11s-.06-.01-.1-.01c-.85-.06-1.72-.11-2.57-.15l-.22,3.99c8.17.45,16.4,1.31,24.46,2.55l.61-3.95c-1.22-.19-2.43-.37-3.65-.54ZM335.17,15.76s-.02,0-.03-.01c-.02,0-.04-.01-.06-.02t-.03-.01s-.04-.01-.06-.02c-.02,0-.03-.01-.04-.01-.02-.01-.04-.01-.06-.02-.01,0-.03-.01-.05-.02-.01,0-.02,0-.04,0-.02-.01-.04-.01-.06-.02-.01,0-.02-.01-.03-.01-.02-.01-.04-.01-.07-.02,0,0-.01-.01-.02-.01-.02,0-.04,0-.06-.02-.01,0-.02-.01-.03-.01-.03-.01-.06-.02-.09-.03-.03,0-.05,0-.08-.02t-.02-.01s-.05-.02-.07-.02t-.02-.01s-.04,0-.07-.02c-.01,0-.01-.01-.02-.01-.03-.01-.05-.02-.08-.03h-.01s-.05,0-.08-.02t-.02-.01s-.05-.02-.08-.03h-.01s-.05-.02-.08-.03h-.01c-.12-.04-.24-.08-.36-.12h-.01c-4.62-1.48-9.29-2.83-14.02-4.06l-1,3.88c7.91,2.04,15.81,4.5,23.47,7.32l1.38-3.75c-2.67-.98-5.36-1.92-8.08-2.82ZM366.25,28.36l-1.75,3.6c7.35,3.56,14.61,7.54,21.57,11.81l2.1-3.4c-7.08-4.35-14.4-8.37-21.92-12.01ZM427.44,70.11s-.01-.01-.01-.02c-.02-.01-.04-.03-.06-.05h-.01s-.03-.03-.05-.05c-.01-.01-.02-.02-.03-.03-.01,0-.02-.02-.03-.03s-.02-.02-.04-.03c-.01,0-.01-.02-.03-.03-.01-.01-.03-.03-.04-.04-.01,0-.02-.02-.02-.02-.02-.02-.03-.03-.05-.04-.01,0-.02-.02-.03-.03,0-.01-.03-.03-.04-.04l-.02-.02s-.04-.03-.05-.05c-.01,0-.02-.01-.03-.02-.01-.01-.03-.03-.05-.04,0-.01,0-.02-.02-.02-.01-.02-.03-.03-.05-.05l-.02-.02s-.03-.03-.05-.05t-.02-.01s-.03-.03-.05-.05t-.02-.01l-.06-.06h0s-.05-.05-.07-.06h-.01s-.04-.05-.06-.07h-.01s-.04-.05-.07-.07c-3.22-2.94-6.51-5.79-9.88-8.56h-.01s-.05-.04-.07-.06h0s-.05-.05-.08-.07c-.02-.02-.05-.04-.07-.06-.03-.02-.05-.04-.07-.05t0-.02s-.05-.03-.07-.05h-.01l-.06-.06s-.01,0-.01-.01c-.02-.02-.05-.03-.07-.05,0-.01,0,0-.01-.01-.02-.02-.04-.03-.06-.05h-.01s-.05-.05-.07-.06h-.01s-.04-.05-.06-.07h-.01s-.05-.04-.07-.06h-.01l-.06-.06h-.02s-.04-.04-.06-.06h-.01s-.04-.04-.07-.06h-.01s-.04-.05-.07-.07c-.02-.02-.05-.04-.07-.06h-.01c-.1-.08-.2-.16-.3-.25l-.03-.03s-.03-.02-.04-.03-.02-.01-.04-.02c-.01-.01-.02-.03-.04-.04,0-.01-.02-.02-.03-.03-.02,0-.03-.02-.04-.03,0-.01-.03-.02-.04-.03s-.02-.02-.04-.03c-.01-.01-.02-.02-.04-.03,0-.01-.02-.02-.03-.03s-.03-.02-.04-.03c-.01-.01-.02-.02-.04-.03s-.02-.02-.04-.03c-.01-.01-.02-.02-.03-.03-.02-.01-.03-.02-.05-.04-.01,0-.01-.01-.02-.02-.02-.01-.04-.02-.05-.04-.01,0-.02-.01-.03-.02-.02-.01-.03-.02-.05-.04,0,0,0-.01-.02-.02-.02-.01-.04-.02-.05-.04-.01,0-.02-.01-.03-.02-.02-.01-.03-.02-.05-.04-.01,0-.01-.01-.02-.02-.02,0-.04-.02-.06-.04h-.01s-.04-.04-.06-.06c-.01,0-.01-.01-.02-.01-.02-.02-.03-.03-.06-.05h-.01s-.04-.04-.06-.06c-.01,0-.01-.01-.01-.01-.03-.02-.05-.03-.07-.05t-.01-.01s-.04-.03-.06-.05c-.01,0-.01-.01-.01-.01-.03-.02-.04-.03-.07-.05,0,0,0-.01,0-.01-.02-.02-.04-.03-.06-.05t0-.01s-.04-.03-.07-.05c-.03-.02-.05-.04-.07-.06,0,0-.01,0-.01-.01-1.5-1.19-3-2.35-4.52-3.51l-2.42,3.19c6.5,4.94,12.84,10.26,18.83,15.82l2.72-2.94c-.15-.14-.32-.3-.48-.44ZM461.01,107.92s-.01-.02-.02-.03c-.01-.02-.02-.03-.04-.05,0-.01-.01-.02-.02-.03-.01-.02-.02-.03-.03-.05-.01-.01-.02-.02-.02-.03-.02-.02-.03-.03-.04-.05,0,0-.01-.01-.01-.02-.02-.01-.03-.04-.05-.05h0c-.26-.37-.52-.72-.78-1.08-4.6-6.26-9.47-12.3-14.61-18.1l-3,2.65c5.42,6.12,10.6,12.58,15.39,19.19l3.24-2.34h-.01ZM483.95,146.39s0-.02-.01-.02c-.01-.03-.02-.05-.03-.07,0-.01,0-.01,0-.02-.01-.02-.02-.04-.03-.06,0-.01-.01-.02-.01-.03-.01-.02-.02-.04-.03-.07-.01,0-.01-.01-.01-.01-.01-.03-.02-.04-.03-.06,0-.01,0-.02-.02-.03,0-.02-.01-.04-.02-.05s-.01-.03-.02-.04-.02-.03-.02-.05c-.01-.01-.01-.02-.02-.04-.01-.02-.01-.03-.03-.05,0-.01,0-.02,0-.03-.01-.02-.02-.03-.03-.05,0-.02-.01-.03-.02-.04,0-.02,0-.03-.02-.05,0-.01-.01-.02-.02-.04t-.02-.05s0-.02-.02-.04-.01-.02-.02-.04c-.01-.02-.02-.03-.02-.04-.01-.02-.01-.03-.03-.05,0-.01-.01-.03-.02-.04,0-.01-.01-.03-.02-.04,0-.02,0-.03-.02-.05,0-.01-.01-.02-.02-.04-.01-.01-.01-.03-.02-.05,0-.01,0-.02-.02-.04-.01-.01-.02-.03-.02-.04-.01-.02-.02-.03-.02-.04,0-.02-.02-.03-.03-.05,0-.02-.01-.02-.01-.04-.01-.01-.02-.03-.03-.05,0-.01,0-.02-.02-.04-.01-.01-.01-.03-.02-.04-.01-.02-.01-.03-.02-.04,0-.02-.02-.03-.02-.05-.01,0-.02-.03-.02-.04-.01-.02-.02-.03-.03-.05,0-.01-.01-.02-.01-.03-.01-.02-.02-.04-.03-.06-.01-.01-.01-.02-.02-.03-.01-.02-.01-.04-.02-.05l-.02-.04s-.02-.03-.03-.05c0-.02-.01-.02-.01-.03-.01-.02-.02-.04-.03-.06-.01,0-.01-.02-.02-.03,0-.02-.01-.04-.02-.06t-.02-.03s-.02-.03-.03-.05t-.01-.04s-.02-.03-.03-.05c0-.01,0-.02,0-.03-.01-.02-.02-.04-.03-.06-.01-.01-.01-.02-.02-.03-.01-.02-.02-.04-.03-.06v-.02s-.03-.05-.04-.07c0,0,0-.01,0-.02-.01-.02-.02-.04-.03-.06-.01-.01-.01-.02-.02-.03,0-.02-.02-.04-.03-.06,0-.01,0-.02-.01-.02-.01-.03-.02-.05-.03-.07t-.01-.02s-.02-.04-.03-.07c-.01,0-.01-.01-.02-.02,0-.02-.02-.04-.03-.06,0-.01-.01-.02-.01-.03-.01-.02-.02-.04-.03-.06t-.01-.02s-.02-.05-.03-.07c-.01,0-.01-.01-.02-.02-.01-.02-.02-.04-.03-.07v-.02s-.03-.04-.04-.07h-.01s-.03-.06-.04-.09h0s-.02-.06-.03-.08t-.01-.02s-.02-.05-.04-.07h0s-.03-.06-.04-.09h-.01c-.11-.24-.23-.47-.35-.71-.01-.03-.03-.05-.04-.08h0s-.03-.06-.05-.09h0s-.03-.06-.04-.09h0s-.02-.06-.03-.08v-.02s-.04-.05-.05-.07t-.01-.02s-.02-.04-.03-.06c0-.01,0-.02,0-.03-.01-.02-.02-.04-.03-.06-.01-.01-.02-.02-.02-.03,0-.02-.02-.04-.03-.06,0,0-.01-.02-.01-.03-.01-.02-.02-.03-.03-.05-.01-.01-.01-.02-.02-.03-.01-.02-.02-.04-.03-.06,0-.01,0-.02,0-.03-.01-.02-.02-.04-.03-.06,0,0-.01-.02-.02-.02-.01-.02-.02-.04-.03-.06,0-.01-.01-.02-.01-.03-.01-.02-.02-.04-.03-.06,0,0,0-.02-.02-.03,0-.02-.01-.03-.02-.05l-.02-.04s-.02-.03-.03-.05c0-.01-.01-.02-.02-.03,0-.02-.01-.04-.02-.05-.01-.02-.01-.03-.02-.04-.01-.02-.02-.03-.02-.05-.01-.01-.02-.02-.02-.04,0-.01-.02-.03-.03-.04-.01-.02-.01-.03-.02-.05-.01-.01-.02-.03-.02-.04-.01-.01-.02-.03-.02-.04-.01-.02-.02-.03-.03-.04,0-.02,0-.04-.02-.05s-.01-.03-.02-.04-.02-.03-.02-.04c0-.02-.02-.03-.02-.05-.01-.01-.02-.03-.03-.04-.01,0-.01-.03-.02-.04,0-.01-.02-.03-.02-.05-.01-.01-.02-.02-.02-.03-.01-.02-.02-.04-.03-.05,0-.02-.01-.03-.02-.04,0-.01-.01-.03-.02-.05-.01-.01-.02-.02-.02-.04-.01-.01-.02-.03-.03-.05,0-.01-.01-.02-.02-.03,0-.02,0-.04-.02-.05s-.01-.03-.02-.04-.02-.03-.03-.05c0-.01,0-.02,0-.03-.01-.02-.02-.04-.03-.05s-.01-.03-.02-.04c0-.02,0-.03-.03-.05,0,0-.01-.02-.01-.03-.01-.02-.02-.03-.03-.05-.01-.01-.01-.02-.02-.03-.01-.03-.02-.04-.03-.06,0-.01,0-.02,0-.03-.01-.02-.02-.04-.03-.06,0-.01-.01-.01-.01-.02-.02-.02-.02-.04-.04-.06,0-.01,0-.02-.01-.03-.01-.02-.02-.04-.03-.06,0-.01,0-.01,0-.02-.01-.02-.02-.04-.04-.06v-.02s-.03-.05-.04-.07c0,0,0-.01-.01-.01-1.73-3.31-3.53-6.56-5.41-9.79l-3.46,2.02c4.12,7.06,7.93,14.41,11.32,21.83l3.64-1.66c-.72-1.56-1.45-3.12-2.2-4.67ZM501.73,196.03s-.02-.05-.03-.08v-.02s-.01-.05-.02-.07v-.03s-.01-.04-.02-.07c0,0,0-.01,0-.02,0-.02-.01-.05-.01-.07,0-.01-.01-.02-.01-.03,0-.02-.01-.04-.02-.07v-.02s-.01-.04-.02-.06c0-.02,0-.03-.01-.04,0-.02-.01-.04-.01-.06,0-.01-.01-.02-.01-.03-.01-.03-.01-.04-.01-.07-.01-.01-.01-.02-.01-.03,0-.02,0-.03-.02-.06,0-.01,0-.02-.01-.04,0-.01-.01-.03-.01-.05,0-.01-.01-.03-.01-.04,0-.02-.01-.03-.01-.05-.01-.02-.01-.03-.01-.05,0-.01,0-.02,0-.04-.01-.02-.01-.04-.02-.05,0-.01-.01-.03-.01-.04,0-.02-.01-.04-.01-.06,0-.01-.01-.02-.01-.03,0-.02,0-.05-.02-.07v-.03s-.01-.04-.02-.06c0-.01,0-.02-.01-.03,0-.02-.01-.05-.01-.07t0-.02s-.01-.05-.02-.07v-.02s-.02-.05-.02-.08h0s-.02-.07-.03-.1c-.01-.03-.01-.06-.02-.09h0s-.02-.07-.02-.1h-.01s0-.06-.02-.09h0s-.01-.07-.02-.1c-.01-.03-.02-.06-.03-.09h0s-.01-.07-.02-.1c-.64-2.5-1.31-4.99-2.02-7.46-.01-.06-.03-.13-.05-.19-.01-.03-.02-.06-.03-.09-.01-.03-.01-.06-.02-.09h-.01s-.01-.07-.02-.1c-.01-.03-.02-.06-.03-.09h0s-.02-.06-.02-.09h-.01s-.01-.07-.02-.09v-.02s-.02-.05-.03-.08h0s-.02-.07-.03-.09h0s-.01-.07-.02-.1h-.01s-.01-.06-.02-.09v-.02s-.02-.05-.03-.07v-.02s-.02-.05-.02-.07c-.01-.01-.01-.02-.01-.02-.01-.03-.01-.05-.02-.08,0,0-.01,0-.01-.02,0-.02-.01-.05-.02-.07,0,0,0-.02-.01-.03,0-.02-.01-.04-.02-.06v-.03s-.02-.04-.02-.07c-.01,0-.01-.01-.01-.02-.01-.02-.01-.05-.02-.07t0-.03s-.01-.04-.02-.06c0-.01,0-.02-.01-.03,0-.02-.01-.04-.01-.06t-.01-.04s-.02-.04-.02-.06t-.01-.03s-.01-.04-.02-.06c0-.01-.01-.02-.01-.03-.01-.02-.01-.04-.02-.06t-.01-.04s-.01-.04-.01-.05c-.01-.02-.01-.03-.02-.04,0-.02-.01-.04-.01-.06,0-.01,0-.02,0-.04-.01,0-.01-.03-.02-.05,0-.01-.01-.03-.01-.04-.01-.02-.01-.03-.02-.05,0-.02,0-.03,0-.05-.01,0-.01-.03-.01-.04-.01-.02-.01-.04-.02-.05,0-.02-.01-.03-.01-.04-.01-.02-.01-.04-.02-.06,0,0-.01-.02-.01-.04,0-.01-.01-.04-.02-.05,0-.01,0-.02-.01-.03,0-.02-.01-.05-.02-.07v-.03s-.02-.04-.02-.06c-.01-.01-.01-.02-.01-.03-.01-.02-.02-.05-.02-.07,0-.01-.01-.01-.01-.02,0-.02-.02-.06-.02-.07s0-.02-.01-.02t-.02-.07s0-.02-.01-.03c0-.01,0-.05-.02-.07v-.02s-.02-.04-.03-.07v-.02s-.01-.05-.02-.08c-.01,0-.01-.01-.01-.01-.01-.03-.01-.05-.02-.08,0-.01-.01-.01-.01-.01-.01-.04-.01-.05-.02-.08t0-.02s-.01-.05-.02-.08h0s-.02-.06-.03-.1c0-.03-.02-.06-.03-.09-.79-2.6-1.62-5.17-2.5-7.73l-3.78,1.29c2.64,7.73,4.91,15.69,6.77,23.64l3.9-.91c-.18-.75-.36-1.52-.54-2.27ZM507.99,234.64s-.01-.07-.01-.1c0-.04,0-.07-.01-.1,0-.04,0-.06,0-.1h0v-.1s-.01-.06-.01-.1h0s-.01-.06-.01-.1-.01-.06-.01-.1h0s-.01-.06-.01-.1,0-.06-.01-.1c0-.04,0-.06,0-.1h0v-.09s-.01-.01-.01-.02v-.1s-.01-.05-.01-.08v-.02s-.01-.05-.01-.08h0s-.01-.07-.01-.1h0s-.01-.08-.01-.11c-.03-.3-.05-.6-.08-.9h0s-.01-.06-.01-.1v-.02s-.01-.05-.01-.07v-.03s-.01-.05-.01-.07v-.04s-.01-.04-.01-.06v-.04s-.01-.03-.01-.06v-.04s0-.03,0-.06v-.04s-.01-.04-.01-.06v-.03s-.01-.05-.01-.06v-.04s0-.05-.01-.06v-.04s0-.04-.01-.06v-.04s0-.04-.01-.06v-.1s0-.03,0-.04v-.05s-.01-.03-.01-.05v-.05s-.01-.03-.01-.05v-.05s-.01-.03-.01-.05v-.05s-.01-.03-.01-.05v-.05s-.01-.03-.01-.04v-.05s0-.04,0-.05v-.05s-.01-.03-.01-.05v-.05s-.01-.03-.01-.05v-.04s-.01-.04-.01-.06v-.04s-.01-.04-.01-.06v-.04s-.01-.04-.01-.05v-.05s0-.04,0-.05v-.04s-.01-.04-.01-.06v-.05s-.01-.03-.01-.05v-.05s-.01-.03-.01-.05v-.04s-.01-.1-.02-.15c0-.04-.01-.07-.01-.1v-.02s0-.06,0-.08h0s-.01-.07-.01-.1c0-.01,0-.03-.01-.04v-.05s0-.04-.01-.05v-.05s-.01-.04-.01-.05v-.05s-.01-.04-.01-.06v-.04s0-.03,0-.05v-.05s-.01-.03-.01-.05v-.04s-.01-.04-.01-.05v-.05s-.01-.03-.01-.05,0-.03-.01-.05v-.05s0-.03-.01-.05v-.05s0-.03,0-.05v-.04s-.01-.04-.01-.06v-.04s-.01-.04-.01-.05v-.05s-.01-.04-.01-.05v-.05s-.01-.03-.01-.05c0,0,0-.03-.01-.04v-.06s0-.03,0-.04v-.06s-.01-.03-.01-.04v-.06s-.01-.02-.01-.04v-.06s-.01-.02-.01-.03c0-.02,0-.05-.01-.06v-.04s0-.04-.01-.06v-.04s-.01-.04-.01-.06v-.04s0-.04,0-.06v-.04s-.01-.04-.01-.06c0-.01,0-.02-.01-.03v-.07s-.01-.02-.01-.03c0-.03,0-.05-.01-.08v-.02s0-.05-.01-.09c0-.04,0-.07,0-.1-.13-1.13-.27-2.26-.42-3.38l-3.97.52c1.06,8.08,1.73,16.33,1.99,24.52l4-.13c-.14-4.42-.4-8.8-.76-13.16ZM504.34,272.53c-.54,8.17-1.48,16.39-2.82,24.44l3.95.65c.34-2.08.66-4.16.96-6.25h0s0-.07.01-.1h0s.01-.07.01-.1h0s.01-.07.02-.1c0-.04.01-.06.01-.09v-.02s.01-.05.01-.08t.01-.02s0-.05.01-.08v-.02s.01-.04.01-.08v-.02s.01-.05.01-.07c0-.01,0-.02,0-.03,0-.02,0-.05.01-.07v-.03s.01-.05.01-.07v-.02s.01-.05.01-.08c0-.01.01-.01.01-.02,0-.02,0-.06.01-.07v-.03s0-.05,0-.07v-.03s.01-.05.01-.07c0-.01.01-.02.01-.03s0-.05.01-.07v-.03s.01-.04.01-.06v-.04s.01-.04.01-.06c0,0,0-.02,0-.03v-.07s.01-.02.01-.03c0-.02.01-.05.01-.07v-.03s.01-.05.01-.06,0-.03.01-.04v-.06s.01-.02.01-.04,0-.03,0-.06v-.03s.01-.04.01-.07v-.03s.01-.04.01-.06,0-.03.01-.04v-.06s.01-.03.01-.04c0-.02,0-.04.01-.06v-.04s.01-.03.01-.06v-.04s0-.03,0-.05.01-.03.01-.04v-.06s.01-.03.01-.04c0-.03,0-.04.01-.06v-.04s.01-.04.01-.06v-.04s.01-.04.01-.05c0-.02,0-.03,0-.05v-.04s.01-.03.01-.05h0c.01-.1.02-.19.03-.28.01,0,.01,0,.01,0v-.07s0-.02,0-.03c0-.02,0-.04.01-.05v-.05s.01-.04.01-.06v-.04s.01-.04.01-.06,0-.02.01-.03v-.07s.01-.02.01-.03v-.06s0-.03,0-.04c0-.02,0-.04.01-.06v-.04s.01-.04.01-.06v-.04s.01-.03.01-.05c0-.01,0-.04.01-.05v-.05s.01-.03.01-.04v-.05s.01-.04.01-.05c0-.02,0-.04,0-.05v-.05s.01-.04.01-.05v-.05s.01-.03.01-.05v-.04s.01-.04.01-.06c0-.01,0-.03.01-.04v-.06s.01-.02.01-.04v-.05s0-.03,0-.05,0-.03.01-.05v-.05s.01-.03.01-.05v-.05s.01-.03.01-.05v-.04s.01-.04.01-.06c0-.01,0-.02.01-.04v-.05s0-.03,0-.05v-.05s.01-.03.01-.05v-.05s.01-.03.01-.05c0,0,0-.03.01-.05v-.04s.01-.04.01-.05v-.05s.01-.04.01-.05v-.05s0-.03,0-.05c0-.01,0-.04.01-.04v-.06s.01-.04.01-.04v-.06s.01-.03.01-.04v-.06s.01-.03.01-.04v-.05s.01-.03.01-.05,0-.03.01-.05v-.05s0-.03,0-.05v-.05s.01-.03.01-.05v-.04s.01-.04.01-.06v-.04s.01-.04.01-.06v-.03s.01-.04.01-.06,0-.03.01-.05v-.05s0-.03,0-.05v-.05s.01-.03.01-.04v-.06s.01-.03.01-.04v-.05s.01-.04.01-.06c0-.03.01-.06.01-.09,0-.02,0-.03.01-.05v-.07s0-.02,0-.03v-.06s0-.02.01-.04v-.04s.01-.04.01-.06v-.04s.01-.03.01-.06v-.04s.01-.03.01-.05v-.04s.01-.04.01-.06v-.04s0-.04,0-.06v-.04s.01-.03.01-.06v-.04s.01-.03.01-.06v-.04s.01-.03.01-.06v-.03s.01-.04.01-.07v-.04s.01-.03.01-.05v-.04s.01-.05.01-.06v-.04s0-.05,0-.06c0-.02,0-.03.01-.04v-.06s0-.03.01-.04v-.06s0-.03.01-.04v-.06s0-.02.01-.04v-.06s0-.02.01-.04v-.05s0-.03,0-.04v-.07s0-.02.01-.03v-.06s0-.03.01-.04v-.1s.01-.05.01-.06v-.04s.01-.05.01-.06v-.04s.01-.05.01-.06v-.03s0-.05,0-.08v-.02s.01-.05.01-.08v-.02s.01-.05.01-.08v-.02s.01-.05.01-.08v-.02s.01-.05.01-.08v-.02s.01-.05.01-.08h0s0-.07,0-.1h0s.01-.07.01-.1h0s.01-.07.01-.11c.23-2.45.43-4.9.59-7.37l-3.99-.26ZM496.31,321c-2.13,7.88-4.68,15.75-7.58,23.39l3.74,1.42c2.94-7.75,5.51-15.67,7.7-23.77l-3.86-1.04ZM478.86,366.92c-3.65,7.3-7.7,14.52-12.05,21.44l3.38,2.13c.04-.06.07-.11.1-.17h.01c.03-.05.06-.11.1-.16h0s.03-.06.05-.08h0s.03-.06.05-.08h0s.04-.06.05-.09c.02-.03.04-.05.05-.08h.01c.03-.06.06-.11.1-.17.03-.05.07-.11.1-.16h0s.03-.06.05-.08h0s.03-.06.05-.08c0,0,.01,0,.01-.01.01-.03.03-.05.04-.08h0s.03-.05.04-.08c.01,0,0,0,.01-.01.1-.16.2-.33.3-.49h.01s.03-.06.05-.08t.01-.02s.02-.04.04-.06c0-.02.01-.02.01-.04.01-.01.03-.03.04-.05,0-.01.01-.01.01-.03.01-.01.03-.03.04-.05,0-.01,0-.02.02-.04.01-.01.02-.03.03-.04.01-.02.01-.03.02-.05.01,0,.02-.02.03-.03.01-.02.01-.03.03-.05,0-.01.01-.02.02-.03.01-.02.01-.03.03-.05,0-.01,0-.02.02-.03.01-.02.02-.04.03-.06,0,0,.01-.02.02-.03,0-.02.02-.03.03-.05.01-.01.01-.02.02-.03.01-.02.02-.03.03-.05.01-.01.01-.02.02-.03.01-.02.02-.04.03-.06.01,0,.01,0,.02-.02.01-.02.02-.04.03-.06t.02-.02s.02-.04.03-.06c.01-.01.01-.02.02-.02,0-.02.02-.04.03-.06.01-.01.01-.02.02-.03.01-.02.02-.03.03-.06.01,0,.01-.01.02-.02.01-.02.02-.04.03-.06.01,0,.01-.01.02-.02.01-.02.02-.04.03-.06t0-.02s.03-.04.04-.06c.01-.01.01-.02.01-.02.02-.02.03-.05.04-.07.01,0,.01-.01.01-.01.02-.03.03-.04.04-.07.01,0,.01-.01.01-.01.02-.03.03-.04.04-.07h.01s.03-.06.04-.08t0-.02s.03-.04.04-.07h.01s.03-.05.04-.08c0,0,.01,0,.01-.01.01-.02.03-.05.04-.07h.01s.03-.06.04-.08h0c3.49-5.78,6.75-11.71,9.78-17.78l-3.58-1.78ZM452.7,408.5c-5.01,6.45-10.4,12.73-16.03,18.67l2.91,2.75c1.65-1.75,3.27-3.5,4.87-5.29h.01s.03-.05.05-.07h.01s.03-.05.05-.07c.01,0,.01-.01.02-.01.02-.03.03-.04.05-.06,0-.01.01-.01.01-.01,0-.02.03-.04.05-.06,0,0,.01-.01.01-.02.02-.02.04-.03.05-.05t.02-.02s.03-.04.05-.05c0,0,.01,0,.01-.02.02-.02.03-.03.05-.06.01,0,.01-.01.01-.01.02-.02.03-.03.05-.05.01-.01.01-.02.02-.02.01-.02.03-.04.04-.05s.02-.02.02-.03c0-.01.04-.03.05-.04,0-.01.01-.02.02-.03.01,0,.03-.03.04-.04s.02-.02.02-.03c.02-.02.03-.03.04-.04s.02-.03.03-.04l.04-.04s.01-.02.02-.03c.01-.01.03-.03.04-.04.01-.01.02-.02.02-.03.02-.01.03-.03.04-.04.01-.01.02-.02.03-.03s.03-.03.04-.04c0-.01,0-.02.02-.03.02-.02.02-.03.04-.04.01-.02.02-.03.03-.04.01-.01.02-.02.03-.04.01-.01.02-.02.03-.03l.04-.04s.02-.02.03-.03.02-.03.03-.04.02-.02.03-.04c.01-.01.02-.02.03-.03.01-.01.02-.03.03-.04.02-.01.03-.02.04-.03,0-.01.02-.03.03-.04s.02-.03.03-.04c0-.01.02-.02.03-.03.01,0,.02-.03.03-.04.02-.01.03-.02.04-.04l.03-.03c.08-.1.17-.19.25-.29h0s.04-.05.06-.07h0s.04-.05.06-.08c.01,0,.01-.01.01-.01.02-.02.04-.04.05-.06h.02s.03-.05.05-.07c0,0,.01-.02.01-.02.02-.02.04-.04.05-.06.01,0,.01-.01.02-.01.01-.02.03-.04.04-.06.01,0,.02-.01.02-.02.02-.02.03-.03.05-.05t.01-.02s.04-.03.05-.05c.01-.01.01-.02.02-.02.01-.02.03-.04.05-.06,0,0,.01,0,.01-.02.02-.02.03-.03.05-.05,0,0,.01,0,.02-.02.01-.02.03-.04.04-.06t.02-.01s.03-.04.05-.06h.01s.04-.05.05-.07t.01-.02s.04-.04.06-.06h.01s.03-.05.05-.07h.01s.04-.05.05-.07l.02-.02s.03-.04.05-.06h.01s.03-.05.05-.07h.01s.04-.05.05-.07t.01-.02s.04-.04.06-.06c0-.01,0,0,.01-.01.02-.02.03-.04.05-.06h.01s.04-.06.06-.08h0s.04-.05.06-.08h.01s.04-.05.06-.07c.02-.03.04-.05.06-.07h0c.53-.62,1.06-1.24,1.59-1.87.67-.79,1.33-1.59,1.99-2.4h0c.08-.1.16-.2.24-.3.02-.03.04-.05.06-.08.03-.02.05-.05.07-.07.02-.03.04-.05.06-.07h0s.04-.05.06-.08c.29-.36.58-.71.86-1.06.02-.03.04-.05.06-.08h.01s.03-.05.05-.07l.02-.02s.03-.04.04-.06h.01s.04-.05.05-.07l.02-.02s.03-.04.04-.06c.01,0,.02-.01.02-.02.01-.02.03-.03.04-.05.01-.01.02-.02.02-.03.02-.01.03-.03.04-.05.01,0,.02-.02.02-.02.02-.02.03-.04.04-.05l.03-.03s.02-.03.03-.05c.01-.01.02-.01.03-.03.01,0,.02-.03.03-.04s.02-.02.03-.03c.01-.02.02-.03.03-.05.01,0,.02,0,.03-.03.01-.01.02-.03.03-.04l.03-.03s.02-.03.03-.05l.03-.03s.02-.03.03-.04c.01-.01.02-.03.03-.04.01-.01.02-.02.03-.03.01-.01.02-.03.03-.04s.02-.03.03-.04c0-.01.02-.03.03-.04l.03-.03s.02-.03.03-.05c.01-.01.02-.01.03-.02,0-.02.02-.03.04-.05,0,0,.01-.02.02-.03,0-.01.02-.03.03-.05l.03-.03s.02-.02.03-.04l.03-.03s.02-.03.03-.05c.01-.01.02-.01.03-.02.01-.02.02-.03.03-.05.01-.01.02-.02.02-.03.02-.01.03-.03.04-.05.01,0,.02,0,.02-.02.02-.02.03-.04.05-.06.02-.03.04-.05.05-.07h.01c.5-.64,1-1.28,1.5-1.91l-3.16-2.46ZM418.9,444.17c-6.18,5.35-12.69,10.46-19.36,15.17l2.31,3.27c4.84-3.42,9.54-7.01,14.12-10.75h.01s.04-.04.06-.06c0,0,.01,0,.01-.01.02-.02.04-.03.06-.05t.01-.01s.05-.03.06-.05c.01,0,.02,0,.02-.01.02-.01.03-.03.05-.04.01-.01.02-.01.03-.02.02-.02.03-.03.05-.04.01-.01.01-.02.02-.02.01-.01.04-.03.05-.04,0-.01.02-.02.02-.02.02-.01.04-.03.06-.04,0-.01.01-.02.02-.02.01-.01.03-.03.05-.04l.03-.03s.03-.02.04-.03c.01,0,.02-.02.03-.03,0-.01.03-.02.04-.03.01,0,.02-.02.03-.03.01-.01.04-.03.05-.04.01,0,.02-.01.03-.02s.03-.02.04-.03.02-.02.04-.03c.01-.01.02-.03.03-.04.02,0,.03-.02.04-.02.01-.01.03-.03.04-.04.01,0,.02-.02.03-.03s.03-.02.04-.03c.01,0,.03-.02.04-.03.01-.01.02-.02.04-.03.01,0,.02-.02.03-.03s.03-.02.04-.03c0-.01.03-.02.04-.03l.03-.03s.03-.02.05-.04c0,0,.02-.02.03-.02.01-.02.03-.03.05-.04,0-.01.01-.02.02-.02.02-.02.04-.03.05-.05.02-.01.01,0,.02-.01.02-.02.04-.04.07-.06h.01s.04-.04.06-.06t.01-.01c1.3-1.08,2.59-2.17,3.87-3.28l-2.62-3.02ZM378.78,472.53c-7.11,4.04-14.49,7.77-21.96,11.08l1.63,3.66c1.24-.56,2.48-1.12,3.71-1.69h.01s.05-.02.08-.04c.03-.01.05-.02.08-.04h.01s.05-.02.08-.04h.01s.04-.02.07-.04h.02s.04-.02.07-.04h.02s.04-.02.07-.04c0,0,.01,0,.01-.01.03,0,.04,0,.07-.03.01,0,.02,0,.02-.01.02-.01.04-.02.07-.03t.02-.01s.05-.02.06-.03c.01,0,.02,0,.03-.01s.05-.02.06-.03c.01,0,.02-.01.03-.01.01-.01.05-.02.06-.03.01,0,.02-.01.02-.01.02-.01.05-.02.07-.03,0,0,.01-.01.02-.01.03-.01.04-.02.06-.03,0,0,.02-.01.03-.01.02-.01.04-.02.06-.03.01,0,.02,0,.03,0,.02-.01.04-.02.06-.03,0-.01.02-.01.02-.01.02-.01.04-.02.06-.03.01-.01.02-.01.03-.02.03-.01.04-.01.06-.02.01,0,.02,0,.03-.02.02-.01.04-.02.06-.03.01,0,.02,0,.03-.01.02-.01.04-.02.06-.03.01,0,.02-.01.03-.01.02-.01.03-.02.05-.03.01,0,.02,0,.04,0,.02-.01.03-.02.05-.03.01,0,.02-.01.03-.01.02-.01.04-.02.06-.03.01-.01.02-.01.03-.01.02-.01.03-.02.06-.03.01,0,.02,0,.03-.02.02-.01.03-.01.05-.02.01-.01.03-.02.04-.02.02-.01.03-.02.05-.02.01-.01.02-.02.04-.02t.05-.03s.02,0,.03,0c.02-.01.03-.02.05-.03.02,0,.03-.01.04-.02.02,0,.04,0,.05-.02,0,0,.03-.01.04-.02.02,0,.03-.01.05-.02.01,0,.02,0,.04-.02.01,0,.03-.01.05-.02.01-.01.02-.01.04-.02.01-.01.03-.02.04-.02.02-.01.04-.02.06-.03t.03-.01s.05-.03.07-.04t.02-.01c.11-.05.23-.11.35-.16h0c.06-.03.12-.06.17-.09h.01c.06-.03.11-.06.17-.08h.01s.05-.03.08-.05h.01s.05-.03.07-.04h.02s.05-.03.07-.04h.01s.05-.03.08-.04h.02s.04-.03.07-.05h.02s.04-.03.06-.04c.01,0,.02,0,.03-.01.02-.01.04-.02.06-.03,0,0,0-.01.02-.01.02-.01.05-.02.07-.03,0-.01.01-.01.02-.01.02-.01.04-.02.07-.03,0,0,.01,0,.02-.02.02-.01.04-.02.06-.03.01,0,.02-.01.03-.01.02,0,.04-.02.06-.03.01,0,.02-.01.02-.01.02-.01.04-.02.07-.03,0-.01.02-.01.02-.02.02,0,.04-.01.06-.02.01-.01.02-.01.03-.02.02,0,.04-.02.06-.03.01,0,.02-.01.03-.01.02-.01.04-.02.06-.03.01,0,.02-.01.02-.01.02-.01.04-.02.06-.03s.02-.01.03-.02c.02-.01.04-.02.06-.03,0,0,.02,0,.03-.01.02-.01.04-.02.06-.03t.03-.01s.04-.02.06-.03t.02-.01s.04-.02.06-.03t.03-.02s.04-.02.06-.03c.01,0,.02-.01.03-.01.02-.01.04-.02.06-.03h.02s.05-.03.07-.04c0-.01.01-.01.02-.02.02,0,.04-.02.06-.03.01,0,.02-.01.03-.01.02-.01.04-.02.06-.03.01,0,.02,0,.03,0,.02-.01.04-.02.06-.03,0-.01.01-.01.02-.01.02-.02.05-.03.07-.04,0,0,0,0,.02-.01.02-.01.04-.02.06-.03.01,0,.02-.01.02-.01.03-.01.05-.02.07-.03t.02-.01s.05-.03.07-.04t.02-.01s.05-.02.07-.03h.01s.05-.03.08-.05h0s.05-.03.08-.04h.01s.05-.03.07-.04h.02s.05-.03.07-.05h.01s.05-.03.08-.04h.01s.05-.03.08-.05h.01c.43-.22.87-.44,1.3-.66h0s.05-.03.08-.04c.03-.02.06-.03.09-.05h0s.05-.03.07-.04h.01s.05-.03.08-.04h.01s.05-.03.07-.05h.02s.05-.03.07-.04c.01,0,.01-.01.02-.01.02-.01.04-.02.07-.04h.01s.05-.03.07-.04t.02-.01s.05-.02.07-.03t.02-.01s.04-.03.07-.04c0,0,0,0,.02-.01.02-.01.04-.02.06-.03t.02-.01s.05-.02.07-.04t.02-.01s.04-.02.07-.03c0,0,.01-.01.02-.01.02-.01.04-.02.06-.03.01-.01.02-.01.02-.02.03-.01.05-.02.07-.03.01,0,.01-.01.02-.01.02-.01.04-.02.06-.03.01-.01.02-.01.03-.01.02-.02.04-.03.06-.04.01,0,.01-.01.02-.01.02-.01.04-.02.07-.03t.02-.01s.04-.03.06-.04c.01,0,.02,0,.02-.01.03-.01.05-.02.07-.03t.02-.01s.04-.03.07-.04c0,0,.01,0,.02,0,.02-.01.04-.02.06-.03.01,0,.02-.01.02-.01.03-.01.05-.03.07-.04t.02-.01s.04-.02.06-.03c.01,0,.02,0,.03,0,.02-.01.04-.02.06-.04t.02-.01s.04-.02.06-.03c.01,0,.02-.01.03-.01.02-.01.04-.02.06-.03.01-.01.02-.01.02-.02.03-.01.05-.02.07-.03.01,0,.01,0,.02,0,.02-.01.04-.02.07-.04,0,0,.01,0,.02-.01.02-.01.04-.02.06-.03.01,0,.02-.01.02-.01.02-.01.05-.02.07-.04t.02-.01s.04-.02.07-.03h.01s.05-.04.08-.05h.01s.05-.03.07-.04h.02s.04-.04.07-.05h.01s.05-.03.08-.04t0-.01c.05-.03.11-.06.17-.09.34-.18.69-.36,1.03-.55t.02-.01s.04-.02.07-.03h.01s.05-.03.07-.05h.02s.04-.03.07-.04h.01s.05-.04.07-.05c.01,0,.02,0,.02,0,.02-.01.05-.02.07-.03t.02-.01s.04-.03.06-.04c.01,0,.02-.01.02-.01.03-.01.05-.02.07-.04t.02-.01s.04-.02.06-.03c.01,0,.02-.01.03-.02.02-.01.04-.02.06-.03.01,0,.02-.01.02-.01.02-.01.04-.02.06-.03,0-.01.02-.01.03-.02.02-.01.04-.02.06-.03.01,0,.02-.01.02-.01.02-.01.04-.02.06-.03.01-.01.02-.01.03-.02.02,0,.04-.02.06-.03.01,0,.02-.01.02-.01.02-.01.04-.03.07-.04,0,0,.01-.01.02-.01.02-.01.04-.02.06-.03.01,0,.02,0,.02,0,.02-.02.04-.03.07-.04,0,0,.01-.01.02-.01.02,0,.04-.02.06-.04.01,0,.02,0,.02-.01.02-.01.05-.02.07-.03h.02s.04-.04.07-.05h.01s.05-.03.07-.04t.02-.01s.04-.03.07-.04c0-.01.01-.01.01-.01.03-.01.05-.03.07-.04t.02-.01s.05-.02.07-.03h.01s.05-.04.07-.05c.01,0,.01-.01.02-.01.02-.01.05-.02.07-.04,0,0,.01,0,.02-.01.02-.01.04-.02.06-.03t.02-.01s.05-.03.07-.04c.01,0,.01,0,.01,0,.03-.01.05-.02.07-.04t.02-.01s.05-.02.07-.03h0s.05-.04.08-.05h.01s.05-.04.08-.05c.03-.02.05-.03.08-.04h.01s.05-.04.08-.05h0s.06-.04.09-.05c.62-.35,1.25-.69,1.87-1.04.12-.07.23-.13.34-.19.11-.07.23-.13.34-.19h0c.23-.13.45-.26.68-.39l-1.98-3.48ZM333.88,492.45c-7.76,2.56-15.74,4.75-23.72,6.52l.87,3.9c2.2-.48,4.38-1,6.55-1.54h.01s.05-.02.08-.03h.02s.05-.01.08-.02h.01s.06-.02.09-.02h0s.06-.02.09-.03h0s.05-.01.08-.02h.02s.05-.02.08-.02c0-.01,0-.01,0-.01.03-.01.05-.01.08-.02h.02s.04-.01.07-.02c.01,0,.02,0,.02-.01.03,0,.05-.01.07-.01.01-.01.02-.01.03-.01.02-.01.05-.01.07-.02h.02s.05-.02.07-.02c.01-.01.02-.01.03-.01.02-.01.04-.01.07-.02h.02s.04-.01.07-.02c.01,0,.02,0,.03,0,.02,0,.05-.01.06-.01.01-.01.02-.01.04-.01.01-.01.04-.01.05-.02.02,0,.03,0,.04-.01.02,0,.04,0,.06,0,.01-.01.03-.01.04-.01.01-.01.03-.01.05-.01.01-.01.03-.01.05-.02.01,0,.03,0,.04-.01.02,0,.03,0,.05,0,.02-.01.03-.01.05-.01.01-.01.03-.01.04-.02.02,0,.04,0,.05-.01.02,0,.03-.01.05-.01.01,0,.03-.01.05-.01.01,0,.03,0,.04,0,.02-.01.03-.01.05-.02.02,0,.03-.01.05-.01s.03-.01.04-.01c.02-.01.04-.01.05-.01.02,0,.03,0,.05-.02.01,0,.03,0,.05-.01.01,0,.03-.01.04-.01.02,0,.04-.01.06-.01,0-.01.03-.01.03-.01.02,0,.04,0,.06-.02.01,0,.03-.01.04-.01.02,0,.04-.01.05-.01.01-.01.04-.01.04-.01.02-.01.04-.01.06-.02.01,0,.02,0,.03-.01.02,0,.05-.01.07-.01.01-.01.02-.01.03-.01.02-.01.04-.01.06-.02.01,0,.02,0,.03-.01.02,0,.04,0,.07,0t.02-.01s.05-.01.07-.02h.02s.05-.02.08-.02t.02,0s.05-.01.07-.02h.02s.05-.02.08-.02c0-.01.01-.01.02-.01.02,0,.05,0,.07-.02h.02s.05-.02.08-.02h.01s.06-.02.08-.03h.02s.05-.02.08-.02h.01s.06-.02.08-.03h0s.06-.02.09-.03h.01s.06-.01.08-.02h0s.06-.02.09-.03h.01s.05-.01.08-.02h0s.06-.02.09-.03c.03,0,.06-.02.09-.02.04-.01.07-.02.1-.03,4.4-1.19,8.75-2.49,13.06-3.91l-1.25-3.8ZM285.92,503.1c-8.09.97-16.35,1.55-24.54,1.72l.09,4h.21s.04,0,.06-.01h.4s.03-.01.05-.01h.35s.03,0,.06-.01h.33c.41-.02.82-.03,1.22-.04.14,0,.27-.01.41-.01,1.96-.07,3.92-.16,5.87-.27h.1s.06-.01.09-.01h.12s.05,0,.08,0h.1s.02,0,.02-.01h.1s.06,0,.08-.01h.13s.05-.01.07-.01h.1s.02,0,.03-.01h.1s.05,0,.06-.01h.14s.04,0,.06,0h.1s.03-.01.04-.01h.1s.03,0,.06-.01h.09s.03,0,.05-.01h.15s.03-.01.05-.01h.1s.02-.01.03-.01h.07c.19-.01.39-.03.58-.04h.01s.06,0,.09-.01h.1s.06-.01.09-.01h.01s.06,0,.08-.01h.12s.05,0,.08,0h.01s.06,0,.09-.01h.11s.06-.01.08-.01h.02s.05,0,.08-.01h.11s.06-.01.09-.01h0c.06-.01.12-.01.19-.01,3.96-.29,7.89-.67,11.8-1.14l-.48-3.97ZM212.38,501.07l-.69,3.94c1.78.31,3.56.61,5.36.89.25.04.51.08.76.11h.01c.96.15,1.92.29,2.88.43h.01s.06,0,.09.01c.03,0,.06,0,.09,0h.01s.06.01.09.01h.01s.06.01.09.02c.03,0,.06.01.09.01h.01s.06.01.09.01h0s.06,0,.09.02c.03,0,.06.01.09.01h.01s.06.01.09.01h.01s.06.01.09.02h.01s.05,0,.08,0h.01s.06.01.09.01c.07.01.13.02.2.03,4.76.64,9.57,1.15,14.42,1.52l.31-3.99c-8.17-.62-16.38-1.66-24.41-3.08ZM165.1,487.76l-1.46,3.72c2.51.99,5.04,1.93,7.59,2.84h.01s.06.02.09.03h0s.05.02.08.04h.01s.06.02.09.03c.03.01.06.02.09.03h.01s.05.02.08.03c0,0,0,.01.01.01.03.01.05.01.08.02,0,0,0,0,.02,0,.02.01.04.02.07.03h.02s.04.02.07.03c0,0,.02,0,.03.01.02.01.04.01.06.02.01,0,.02.01.02.01.03.01.05.01.07.02.01,0,.02,0,.03,0,.02.01.04.02.06.02.01.01.02.01.03.01.02.01.04.02.06.03.01,0,.02,0,.03.01.03,0,.04.01.06.02.01,0,.02.01.03.01.03.01.04.01.06.02.02,0,.03.01.04.01.02.01.03.01.05.02.02.01.03.01.05.02.01,0,.04,0,.04,0,.02.01.04.01.05.02.02.01.03.01.05.01,0,.01.03.02.05.02.01.01.03.01.03.02.02,0,.04.01.07.02,0,0,.02.01.03.01.02.01.04.01.06.02.01,0,.02,0,.03,0,.02.01.04.01.06.02.01,0,.02.01.03.01.02.01.05.02.07.03h.02s.05.02.08.03h.01c.06.02.12.05.18.07,4.55,1.57,9.16,3.01,13.83,4.32l1.08-3.85c-7.86-2.21-15.71-4.85-23.31-7.83ZM121.38,465.36l-2.17,3.36c6.99,4.51,14.21,8.67,21.65,12.48l1.82-3.56c-7.26-3.72-14.43-7.85-21.3-12.28ZM82.89,434.81l-2.78,2.88c2.22,2.15,4.48,4.26,6.78,6.32t.02.03s.03.02.05.04c0,.01.02.02.03.03s.03.02.04.03l.03.03s.03.02.04.04l.03.03s.03.02.04.03l.04.04s.02.01.03.02c.02.02.03.03.05.04.01.01.01.02.02.03.02.01.03.02.05.04.01.01.02.01.02.02.02.02.03.03.05.04.01.01.02.02.03.02,0,.02.03.03.05.05,0,0,.01,0,.02.02,0,.01.03.03.05.05.01,0,.01,0,.02,0,.01.02.03.03.05.05,0,0,0,0,.02,0,.02.03.03.03.05.05t.02.02s.03.03.06.05c0,0,0,.01.01.01.02.02.04.03.06.06h.01s.04.04.06.06h.01s.04.04.06.06c0,0,.01,0,.01.01.02.02.04.04.06.06h.01s.09.08.14.12c3.47,3.08,7.03,6.07,10.66,8.96l2.49-3.13c-6.4-5.08-12.62-10.54-18.49-16.23ZM51.12,397.34l-3.29,2.27c3.19,4.61,6.52,9.11,10,13.49v.02s.04.04.06.06h.01s.03.05.05.07c0,.01.01.02.02.02.01.02.03.04.04.06.01.01.01.02.02.02,0,.02.02.04.04.05,0,.01.02.03.02.03,0,.02.03.03.04.05,0,0,.02.02.02.03l.04.04s.01.02.02.03c0,.02.03.03.04.05.01.01.01.02.02.03.02.01.03.03.04.04.01,0,.02.03.03.04,0,.01.02.02.03.04l.03.03s.02.03.03.04.02.03.03.04.02.03.03.04.02.02.03.03c.01.02.02.03.03.04s.02.03.03.04.02.03.03.04c.01.01.02.02.03.04.01.01.02.02.03.03.01.01.02.03.03.04s.02.02.03.04c.01.01.02.02.03.04.01.01.02.02.02.03,0,.01.03.03.04.04s.02.02.03.03c.01.02.02.03.03.05.01.01.02.02.03.03.01,0,.02.03.03.04l.03.03s.02.03.03.05c.01,0,.02,0,.02.02.02.02.03.04.04.05.01,0,.01.02.02.03.02.01.03.03.04.05l.02.02s.03.03.04.05c.01.01.01.02.02.02.01.02.03.04.04.06.01,0,.01.01.02.01.01.02.03.04.04.06h.01s.03.05.05.08h.01s.03.05.05.07h.01c.15.2.31.39.47.58h0s.04.06.06.08c.02.03.04.05.06.07h0s.04.05.06.08c.02.02.04.05.06.06t.01.02s.03.04.04.06c.01,0,.01.01.02.01,0,.02.03.04.04.06l.02.02s.03.03.04.05c.01.01.01.02.02.02.01.02.03.03.04.05.01.01.01.02.02.03s.03.04.04.05c.01.01.02.01.02.02.02.02.03.03.04.05l.02.02s.03.04.05.06c0,0,.01.01.01.02.01.01.03.04.04.05s.02.02.03.02c.01.02.03.04.04.05,0,.01.01.02.02.03.01.01.03.03.04.05,0,0,.01,0,.02.02s.03.04.04.05c0,.01.01.02.02.03l.04.04s.01.02.02.03c.02.02.02.03.04.05l.02.02s.03.03.04.05c.01.01.01.02.02.02.01.02.03.04.04.06.01,0,.01,0,.02,0,.01.02.03.04.04.06t.02.02s.03.04.04.06c.01,0,.01.01.02.01.02.02.03.04.05.06,0,0,.01.01.01.02.02.02.03.03.05.05,0,.01.01.02.01.02.02.02.03.04.05.05,0,.01.01.02.02.03.01.02.02.03.04.05h.01s.04.06.05.07c0,.01.01.01.01.01.2.24.39.47.59.71,0,0,.01.01.01.02.02,0,.03.03.05.05,0,0,.01.01.01.02l.04.04s.02.02.03.03c0,.02.02.03.03.05.01,0,.02.02.03.03s.02.02.03.04l.03.03s.03.03.03.04c.01.01.02.02.03.04.01,0,.03.03.03.03.01.01.02.03.04.04,0,0,.02.03.02.03.02.02.03.03.04.04.01.02.02.03.03.04s.02.03.03.04.02.02.03.03.02.03.03.04c.01.02.02.02.03.03.01.02.02.03.04.05t.02.03l.04.04s.01.02.02.03c.02.02.03.03.04.05t.02.02s.03.03.04.05c.01.01.02.01.03.03.01.01.02.03.04.05t.02.02s.03.03.04.05h.01s3.05-2.57,3.05-2.57c-5.28-6.24-10.32-12.81-14.96-19.52ZM27.31,354.36l-3.67,1.58c.36.84.73,1.68,1.1,2.51h0c.04.1.08.19.12.27.01.03.02.06.03.09h.01s.02.06.03.09h.01s.02.06.04.09c.01.03.02.06.04.09.01.03.02.06.03.09h.01c.26.6.53,1.19.8,1.78h0s.03.07.04.09h0s.03.06.04.09h.01s.02.06.03.09h.01s.02.06.03.09h.01s.02.06.04.09c.01.03.02.06.04.09h0s.02.06.04.08v.02s.03.05.04.07t.01.02s.02.05.03.07t.01.02s.02.05.03.07t.01.02s.02.04.03.07c0,0,0,.01.01.02.01.02.02.04.03.07,0,0,0,.01.01.01.01.03.02.05.03.08h.01s.02.06.03.08t.01.02s.02.05.03.07t.01.02s.02.05.03.07t.01.02s.02.05.04.07h0s.03.06.04.09h0s.03.06.04.09h0s.03.06.04.09h0s.03.06.04.09c.02.03.03.06.04.09h.01s.02.06.04.09c.01.03.02.05.04.08h0s.03.07.04.09h0s.03.06.04.09c.01.03.03.06.04.09.02.03.03.06.04.09,2.39,5.07,4.94,10.05,7.64,14.94l3.5-1.94c-3.96-7.15-7.61-14.58-10.84-22.08ZM12.46,307.54l-3.91.82c.86,4.11,1.83,8.17,2.89,12.2.03.13.06.25.1.38.01.03.01.06.02.09h0s.02.07.03.1c0,.03,0,.06.02.09h0s.02.06.03.09h0s.01.07.02.1c.01.03.02.06.03.09h0s.01.07.02.1c0,.03.02.06.03.09h0s.02.07.02.1c.01.03.02.06.03.09h0s.02.07.02.09h.01s.01.07.02.1h0s.02.06.02.09h.01s.01.07.02.1h0s.02.06.03.09h0s.01.06.02.09v.02s.02.05.03.08h0s.01.06.02.09t.01.02s.01.05.02.07v.02s.02.05.02.08c0,0,.01,0,.01.02,0,.02.01.05.02.07v.02s.02.05.02.08c0,0,0,0,0,0,.01.03.01.05.02.08t.01.02s.01.05.02.07v.02s0,.05.02.08t.01.01s.01.06.02.08v.02s.02.05.02.07c0,.01.01.02.01.03.01.02.01.04.02.07,0,0,0,0,.01.02,0,.03.01.05.01.07t.01.02s0,.05.02.08t.01.02s.01.05.02.07v.02s.02.05.02.07c.01.01.01.02.01.02.01.03.01.05.02.08v.02s.02.05.03.07v.02s.01.05.02.08c0,0,.01.01.01.02,0,.02.01.05.02.07v.02s.02.05.03.08h0s.01.06.02.09t.01,0s.01.06.02.08v.02s.02.05.02.08c.01,0,.01,0,.01,0,.01.03.01.06.02.08h0s.02.07.03.1h0s.02.06.02.09t.01.02s0,.04.02.07t.01.02s.01.05.02.08h0s.02.06.02.09h.01s.01.07.02.09v.02s.02.05.03.08h0s.02.06.02.09t.01.02s.01.05.02.07v.02s.02.05.03.08h0s.02.06.02.09t.01.02s.01.05.02.07t.01.02s.01.05.02.08v.02s.02.05.02.07t0,.02s.01.05.02.07c0,.01,0,.02.01.02,0,.03.01.05.02.08v.02s.02.05.03.07v.02s.01.05.02.08h.01s.01.06.02.09v.02s.02.05.03.08h0s.02.06.02.09h0s.01.06.02.09h0s.02.07.03.1h0s.02.06.03.09h0s.02.07.02.09h.01s.01.07.02.1c.01.03.02.06.03.09h0c.51,1.75,1.04,3.48,1.59,5.21l3.81-1.21c-2.47-7.78-4.57-15.79-6.26-23.78ZM7.14,258.69l-4,.05c.03,3.03.11,6.05.25,9.06,0,.03,0,.07.01.1v.11s0,.06,0,.09v.11s0,.05.01.09v.2s.01.01.01.02v.18s.01,0,.01.02v.17s.01.02.01.03v.17s.01.02.01.03v.17s0,.02,0,.03v.1s0,.06.01.08v.12s0,.06.01.09h0v.11c.01.14.02.27.02.4,0,.01.01.02.01.03v.1s0,.04.01.07v.14s0,.03,0,.06v.1s0,.03.01.05v.14s.01.04.01.06v.1s0,.02.01.04v.16s.01.02.01.04v.1s.01.04.01.06v.13s0,.04,0,.07v.1s.01.02.01.02v.1s.01.05.01.07v.13s.01.05.01.07v.02s0,.06.01.08v.11c.24,3.79.57,7.57.98,11.31l3.98-.43c-.89-8.1-1.38-16.36-1.46-24.56ZM7.48,209c-.71,3.78-1.34,7.6-1.88,11.44,0,.03,0,.06,0,.09h0s-.01.07-.01.1c-.01,0-.01.01-.01.02,0,.02,0,.05-.01.08v.02s-.01.05-.01.07v.02s-.01.06-.02.08v.02s-.01.05-.01.08v.02s-.01.05-.01.08t-.01.02s0,.05-.01.07v.03s-.01.05-.01.07v.03s-.01.05-.01.07c0,.01,0,.02,0,.03,0,.02,0,.05-.01.06v.04s-.01.04-.01.06v.04s-.01.04-.01.06c0,0-.01.03-.01.04v.05s-.01.03-.01.05,0,.03,0,.05v.05s-.01.03-.01.04c0,.02-.01.04-.01.06v.04s-.01.04-.01.06c0,0-.01.03-.01.03v.07s-.01.02-.01.03c0,.02,0,.04,0,.07v.03s-.01.04-.01.06v.03s-.01.05-.01.07c0,.01-.01.02-.01.03,0,.02,0,.05-.01.07v.02s-.01.05-.01.08v.02s0,.05,0,.08h0s-.01.07-.02.1c-.46,3.59-.86,7.2-1.17,10.83l3.98.34c.71-8.15,1.84-16.35,3.34-24.36l-3.93-.74ZM21.53,161.1c-3.11,7.68-5.86,15.56-8.22,23.6l3.84,1.12c2.3-7.83,5.02-15.65,8.09-23.22l-3.71-1.5ZM44.77,116.92c-.19.28-.38.58-.57.86-.07.11-.14.21-.21.32s-.13.21-.2.32c-.56.85-1.1,1.7-1.65,2.56h0s-.03.06-.05.08h0s-.03.06-.05.09c-.02.02-.03.05-.05.08-.02.03-.03.05-.05.07h0s-.03.06-.05.08h0s-.03.06-.05.09h-.01s-.03.05-.04.08h0s-.02.05-.04.07c0,.01-.01.01-.01.02-.02.02-.03.04-.04.07,0,0-.01,0-.01.01-.02.02-.03.04-.04.07t-.01.01s-.03.04-.05.07h0s-.03.05-.04.08c0,0,0,0,0,0-.02.03-.03.04-.05.07h0s-.03.06-.05.08h0s-.03.06-.05.08h0s-.03.05-.05.08t-.01.02s-.03.04-.04.06t-.01.02s-.02.04-.04.07h-.01s-.02.05-.04.08c-.02.03-.03.05-.05.08h0c-.04.06-.07.11-.1.16h0c-.17.28-.33.53-.5.8h0s-.03.06-.04.08c-.01,0-.01,0-.01,0-.02.02-.03.04-.04.06-.01.01-.01.02-.01.03-.02.02-.03.04-.04.06,0,0-.01.01-.01.02-.02.02-.02.03-.04.05,0,.01-.01.02-.02.03-.01.02-.01.03-.03.05,0,0,0,.02-.02.03-.01.02-.01.03-.02.05-.01.01-.02.02-.03.04t-.02.04s-.02.03-.03.04t-.02.04s-.02.03-.03.04c-.01.02-.01.03-.02.04,0,.02-.02.03-.03.04-.01.02-.02.03-.02.05-.01.01-.02.02-.03.04-.01.01-.02.02-.02.04-.01.01-.02.03-.03.04,0,.01,0,.03-.02.04-.01.01-.02.03-.03.04-.01.02-.01.03-.02.04-.01.02-.02.03-.03.05-.01.01-.01.02-.02.03,0,.02-.02.03-.03.05-.01.01-.01.02-.02.03-.01.02-.02.04-.03.05s-.01.02-.02.04c-.01.01-.02.03-.03.05t-.02.03s-.02.03-.03.05c-.01.01-.01.02-.02.03-.01.02-.02.03-.03.05t-.02.03s-.02.04-.03.05t-.02.03s-.02.04-.03.06t-.02.03s-.02.03-.03.05c0,.01-.02.02-.02.03-.01.02-.02.04-.04.06,0,0,0,.01,0,.02-.01.02-.02.04-.04.06,0,.01-.01.02-.01.02,0,.02-.02.04-.04.06,0,.01-.01.02-.01.03-.01.02-.02.04-.04.06,0,0-.01.01-.01.02-.01.02-.03.04-.04.06,0,.01-.01.01-.01.02-.01.02-.03.04-.04.06,0,.01,0,.02,0,.02-.01.03-.03.05-.04.07,0,.01-.01.01-.01.02,0,.02-.03.04-.04.07h-.01s-.03.06-.04.08h-.01s-.03.06-.04.09h-.01s-.03.06-.05.09c-1.92,3.21-3.77,6.46-5.56,9.76h0c-.04.09-.09.18-.14.26-.01.03-.02.06-.04.08h0s-.03.07-.05.09h0s-.03.06-.04.09h-.01s-.03.06-.04.09c-.02.02-.03.05-.04.08h-.01s-.03.06-.04.09c-.02.03-.03.05-.05.08h0s-.03.06-.04.08v.02s-.03.04-.04.06c-.01.01-.01.02-.01.02-.02.03-.03.05-.04.07t-.01.02s-.02.04-.03.06c-.01,0-.01.02-.02.03-.01.02-.02.04-.03.06,0,.01,0,.01,0,.02-.01.02-.02.04-.03.05t-.02.04s-.02.04-.03.06v.02s-.03.03-.03.04c-.09.16-.17.32-.25.47-.03.06-.06.11-.09.16h0c-.05.1-.1.19-.15.28l3.54,1.87c3.81-7.23,8.02-14.35,12.52-21.18l-3.34-2.2ZM76.22,78.16c-1.63,1.65-3.24,3.33-4.83,5.02h-.01s-.08.09-.12.14c-.03.03-.05.05-.07.07-.02.02-.04.04-.06.07h-.01s-.03.04-.06.07c-.02.03-.04.04-.06.07,0,0-.01,0-.01.01-.02.02-.03.03-.06.06-.02.03-.04.04-.06.06,0,.01-.01.01-.01.01-.04.05-.08.09-.12.13t-.01.01c-.18.2-.37.41-.56.61h-.01s-.02.04-.04.06l-.07.07s-.01.02-.02.02c-.02.02-.02.03-.04.04-.01.02-.02.03-.03.04l-.03.03s-.02.03-.03.04c-.01.01-.02.02-.04.03-.01,0-.02.03-.03.04s-.02.02-.03.04c-.01.01-.02.02-.03.03-.02.01-.02.02-.04.04-.01.01-.02.02-.03.03s-.02.02-.03.04c-.01.01-.02.02-.03.03-.01,0-.03.02-.04.04,0,.01-.02.02-.03.03-.01.02-.02.02-.03.04,0,.01-.02.02-.04.03l-.02.04s-.03.02-.04.04c-.01.01-.02.01-.03.03l-.04.04s-.01.01-.02.03c-.02,0-.03.03-.04.04s-.02.01-.03.03c-.01.01-.02.03-.04.04-.01.01-.01.02-.02.03-.02.01-.03.03-.05.04t-.02.03s-.03.03-.04.05c-.01,0-.02.01-.02.02-.02.02-.03.03-.05.05,0,.01,0,.01-.02.02-.01.02-.03.03-.04.05-.01.01-.02.02-.02.02-.02.02-.03.04-.05.06t0,.01s-.04.04-.06.06t-.01.01s-.04.04-.05.06h-.01s-.06.07-.06.07t-.01.02l-.06.06h0s-.05.05-.07.08c-.39.43-.78.87-1.17,1.3-.09.1-.18.2-.26.29h-.01c-2.59,2.92-5.12,5.9-7.59,8.93l3.11,2.52c5.15-6.34,10.67-12.5,16.42-18.31l-2.85-2.81ZM114.65,46.29c-2.57,1.73-5.1,3.51-7.6,5.33h-.01s-.04.04-.07.06c0,0,0,0,0,.01-.02.01-.04.03-.06.04l-.02.02s-.04.03-.06.04t-.02.01s-.04.03-.06.05c-.01,0-.01.01-.02.01-.02.02-.04.03-.06.05,0,0,0,.01-.02.01-.02.01-.04.03-.06.04,0,.01-.01.01-.01.02-.02.01-.04.03-.06.04-.01.01-.02.01-.02.01-.02.02-.04.03-.06.05-.01,0-.02.01-.02.01-.02.02-.04.03-.06.04t-.02.02s-.04.03-.06.04t-.02.02s-.04.03-.06.04c0,0-.01.01-.02.02-.02.01-.04.02-.05.04-.01,0-.02.01-.03.01-.01.02-.03.03-.05.04,0,.01-.02.02-.02.02-.02.01-.04.03-.06.04l-.02.02s-.04.03-.06.04l-.02.02s-.04.02-.05.04c-.01,0-.02.01-.03.01-.02.02-.03.03-.05.04-.01.01-.02.02-.03.02-.01.02-.03.03-.05.04-.01.01-.02.01-.02.02-.02.01-.04.02-.06.04,0,0-.02.01-.02.02-.02.01-.04.02-.05.04-.01,0-.02.01-.03.01-.02.02-.04.03-.05.04-.02,0-.01,0-.03.02-.02.02-.04.03-.06.05,0,0-.01,0-.01,0-.02.01-.04.03-.06.04-.01.01-.02.01-.02.02-.02.01-.04.03-.06.04t-.02.01s-.04.03-.06.05c0,0,0,.01-.02.01-.1.08-.21.16-.31.24h-.01s-.04.04-.07.05h0s-.05.04-.07.06t-.03.02s-.03.03-.05.04c0,.01-.02.01-.03.02-.02.01-.03.02-.05.03l-.03.03s-.03.02-.04.03c-.02.01-.02.02-.04.03,0,.01-.03.02-.04.03-.01.01-.02.02-.04.03-.01.01-.02.02-.04.03,0,0-.03.02-.03.03-.02.01-.03.02-.04.03-.02.01-.03.01-.04.02s-.03.02-.04.03c-.01,0-.03.02-.04.03,0,.01-.02.02-.04.03-.01.01-.03.02-.04.03l-.03.03s-.03.02-.05.03l-.03.03s-.03.02-.04.03-.03.02-.04.03c-.01,0-.03.02-.04.03-.01,0-.02.01-.03.02-.02.01-.03.02-.04.03-.02,0-.03.02-.04.03s-.03.02-.04.03c-.01,0-.03.02-.04.03,0,.01-.02.02-.04.03-.01,0-.02.02-.04.03l-.03.03s-.03.02-.04.02l-.04.04s-.03.01-.04.02c-.01.01-.03.03-.04.04-.01,0-.02.01-.03.02-.01.01-.03.02-.05.03-.01.01-.02.02-.03.03,0,.01-.03.02-.04.03s-.02.02-.04.03c-.01.01-.03.02-.04.03,0,.01-.02.02-.03.02-.02.02-.03.02-.05.04-.01.01-.02.01-.03.02t-.04.04s-.03.01-.04.02t-.04.03s-.02.02-.03.03c-.02.01-.03.02-.05.03-.01.01-.02.02-.03.03-.02.01-.02.02-.04.03,0,.01-.02.02-.03.02-.02.02-.03.03-.05.04-.01.01-.02.01-.03.02-.02.02-.03.02-.05.04l-.02.02s-.03.02-.05.04c-.01,0-.02.01-.03.02-.01.01-.03.02-.05.04,0,0,0,0-.02,0-.02.02-.03.03-.05.04-.01.01-.02.01-.02.02-.12.09-.23.17-.35.27h0s-.04.04-.06.05t-.02.01l-.05.05s-.02.01-.02.01c-.02.02-.04.03-.06.04,0,0-.01,0-.02.02-.02.01-.04.03-.05.04-.01,0-.02,0-.03.02-.01.01-.03.02-.05.04l-.02.02s-.04.02-.06.04c0,0-.01,0-.02.02-.02.01-.03.02-.05.04-.01,0-.02.01-.02.01-.02.02-.04.03-.06.05,0,0-.01.01-.02.01-.02.02-.03.03-.05.04-.01.01-.02.02-.03.02-.01.02-.03.03-.04.04s-.02.01-.03.02c-.02,0-.03.03-.05.04-.01,0-.02.01-.03.02s-.03.03-.05.04c-.01,0-.01.01-.02.02-.02.01-.04.03-.05.04-.01,0-.02.01-.03.02,0,.01-.04.03-.05.04-.01,0-.02.01-.02.02-.02.01-.04.03-.05.04,0,0-.02.01-.03.01l-.05.05s-.02.01-.02.01c-.01.01-.04.03-.06.04,0,.01-.01.02-.02.02-.02.02-.03.03-.05.04-.01.01-.02.01-.03.02-.01.01-.03.03-.05.04,0,.01-.01.01-.02.02-.02.02-.03.03-.05.04,0,0-.02,0-.02.02-.02.01-.04.02-.06.04t-.02.02s-.04.02-.05.04c-.01,0-.02,0-.02.02-.02.01-.04.02-.06.04-.01,0-.01,0-.02,0-.02.02-.04.03-.06.05h0s-.04.04-.06.06c-.01,0-.01.01-.02.01-.02.02-.04.03-.06.05,0,0-.01,0-.01.01-.02,0-.04.03-.06.04l-.02.02c-.36.29-.73.58-1.1.87-.03.02-.04.03-.07.05t-.01.01s-.04.04-.07.06c-.02.02-.05.04-.07.06h0s-.04.03-.07.05h0s-.05.04-.07.06h0c-.08.07-.15.12-.22.18h-.01s-.04.04-.07.06c-.03.02-.05.04-.07.06-.03.02-.05.04-.08.06-.02.02-.05.04-.07.06-.03.02-.05.04-.07.06h-.01c-1.05.85-2.1,1.7-3.14,2.57l2.56,3.07c6.29-5.22,12.91-10.18,19.68-14.75l-2.24-3.31ZM158.57,22.57c-6.43,2.69-12.73,5.64-18.88,8.83-.06.03-.12.06-.17.09-.06.03-.12.06-.17.09-.4.2-.79.41-1.19.62-.23.12-.44.23-.67.35h-.01s-.09.06-.14.08c-.01.01-.02.01-.03.02-.01,0-.03.02-.05.02-.01.01-.02.02-.03.02t-.04.02s-.03.02-.05.03c-.01.01-.02.01-.03.02-.02,0-.04,0-.05.02t-.04.02s-.03.02-.05.03c-.02.01,0,.01-.03.01-.02.01-.04.03-.06.04t-.02.01s-.04.02-.06.03c-.01.01-.02.01-.02.01-.02.01-.05.03-.07.04h-.02s-.04.03-.06.04c-.01,0-.02,0-.02,0-.03.02-.05.03-.07.04,0,0,0,.01-.02.01-.02,0-.04.02-.07.04h-.01s-.05.03-.07.04t-.02.01s-.04.03-.07.04h-.01s-.05.03-.07.05h-.01s-.06.03-.08.04h-.01s-.05.03-.08.05l1.9,3.52c7.2-3.88,14.66-7.45,22.19-10.6l-1.54-3.69ZM206.32,8c-2.57.51-5.13,1.06-7.67,1.65h-.01c-.09.03-.19.05-.28.07-.03.01-.06.01-.09.02h-.01s-.06.02-.09.02c-.03,0-.06.02-.1.03-.03,0-.06.01-.09.02-.03.01-.06.01-.09.02h-.01s-.06.02-.09.02c-.03.01-.06.02-.09.03h-.01s-.06.01-.09.02h0s-.05.01-.08.02h-.01s-.06.02-.09.02h0s-.05.02-.08.03h-.01s-.06.01-.09.02h0s-.05.01-.08.02h-.02s-.05.02-.08.02h-.01s-.05.02-.08.03h-.01s-.06.01-.09.02h-.01s-.05.01-.08.02h-.01s-.06.02-.09.02h-.01s-.06.02-.08.03h-.01s-.06.01-.09.02h-.01s-.05.02-.08.02h-.02s-.05.02-.08.03h-.01s-.06.01-.08.02h-.02s-.05.02-.08.02h-.01s-.05.02-.08.03h-.02s-.05.01-.08.02h-.01s-.06.01-.08.02h-.01s-.06.02-.09.02h-.01s-.05.02-.08.03h-.02s-.05.01-.08.02h-.01s-.05.02-.08.02h-.02s-.05.02-.08.03h-.01s-.05,0-.08.02h-.02s-.05.02-.08.02h-.01s-.05.02-.08.03h-.02s-.05.01-.07.02h-.02s-.05.02-.08.02h-.02s-.05.02-.08.03h-.01s-.05.02-.08.02h-.02s-.05.02-.07.03h-.02s-.05,0-.08.02h-.02s-.05.02-.07.02h-.02s-.05.02-.08.03h-.02s-.05.01-.07.02h-.02s-.05.02-.08.02c0,.01-.01.01-.02.01-.02,0-.05,0-.07.02h-.02s-.05.02-.08.02c0,0-.01,0-.02.01-.02,0-.05.01-.07.02h-.02s-.05.01-.08.02h-.02s-.05.02-.07.02h-.02s-.05.02-.08.03h-.01s-.05.02-.08.02h-.02s-.05.02-.07.03h-.02s-.06,0-.08.02h-.01s-.06.02-.09.02h-.01s-.05.02-.08.03h-.01s-.06.02-.09.02h-.01s-.05.02-.08.03h-.01s-.06,0-.09.02h-.01s-.05.02-.08.03h-.01s-.05.01-.08.02h-.02s-.05.02-.08.02t-.01.01s-.05.01-.08.02h-.02s-.05.02-.08.02t0,.01s-.05.01-.08.02h-.02s-.05.02-.08.02h0s-.05.02-.08.03h-.02s-.05.01-.07.02t-.02.01s-.05,0-.08.02h-.02s-.05.01-.07.02t-.02.01s-.05.01-.08.02h-.01s-.06,0-.08.02h0s-.06.02-.09.03h-.01s-.05.01-.08.02h0s-.06.02-.08.03h-.02s-.05.01-.08.02h0s-.05.02-.08.02t-.02.01s-.05.01-.07.02h-.02s-.05.02-.08.03h-.02s-.05.01-.07.02h-.02s-.05.02-.08.02t-.02.01s-.05,0-.07.02h-.02s-.05.02-.08.03h-.01s-.06.01-.08.02t-.02.01s-.05.01-.07.02h-.02s-.05.01-.08.02t-.02,0s-.05.01-.08.02h-.01s-.05.02-.08.02t-.01.01s-.06,0-.08.02h-.02s-.05.02-.08.02h-.01s-.05.02-.08.03h-.01s-.06.02-.09.02t-.01.01s-.05.01-.08.02h-.02s-.05.02-.07.02t-.02.01s-.05.01-.08.02h-.01s-.05.02-.08.03h-.02s-.05.01-.07.02t-.02.01s-.05.01-.08.02h-.02s-.05.02-.07.02t-.02.01s-.05.01-.08.02h-.01s-.05.02-.08.02t-.02,0s-.05.01-.08.02h-.01s-.05.02-.08.03h-.01s-.06.02-.08.02t-.02.01s-.05.01-.08.02h-.01s-.05.02-.08.02t-.02.01s-.05.01-.07.02h-.02s-.05.02-.08.03h-.02s-.05.02-.07.02c-.01,0-.01.01-.02.01-.03,0-.05.01-.08.02h-.01s-.05.02-.08.02t-.02.01s-.05.01-.07.02t-.02.01s-.05.01-.08.02h-.01s-.06.02-.08.02h-.01s-.06.02-.09.03h-.01s-.05.02-.08.03h-.01s-.05.01-.08.02t-.02.01s-.05,0-.08.02h-.01s-.05.02-.08.03h-.01s-.06.01-.08.02t-.01,0s-.06.01-.09.02h-.01s-.05.02-.08.03h-.01s-.06,0-.09.02c-.03.01-.06.02-.09.03-.03.01-.06.02-.09.03h-.01s-.06.01-.09.02c-.03.01-.06.02-.09.03h-.01s-.05.02-.08.03h-.01s-.06.01-.09.02h-.01s-.05.02-.08.03h-.01s-.06.02-.08.03h-.01s-.06.01-.09.02h-.01s-.05.02-.08.03h-.01s-.06.02-.08.03h0s-.06.02-.09.02h-.01s-.05.02-.08.03h-.01s-.06.02-.08.03h-.01s-.06.02-.09.02h0s-.06.02-.09.03h-.01s-.05.02-.08.03h0s-.06.02-.09.03h-.01s-.05.02-.08.02h0s-.06.02-.08.03h-.01s-.06.02-.09.03h-.01s-.05.02-.08.03h-.01s-.06,0-.09.02c-.03.01-.06.02-.09.03s-.06.02-.09.03h0s-.05.02-.08.02h-.01s-.06.02-.09.03c-.03,0-.06.02-.09.03h-.01s-.05.02-.08.03h0s-.06.02-.09.03c-.03.01-.06.01-.09.02-.03.01-.06.02-.09.03h-.01s-.06.02-.09.03c-.03.01-.06.02-.09.03h-.01c-.06.02-.12.03-.18.05-.03,0-.06.02-.09.03-.03.01-.06.02-.09.03h-.01s-.06.02-.09.03c-.03.01-.06.01-.09.02-.03.01-.06.02-.09.03h-.01s-.05.02-.08.03h-.01s-.06.02-.09.03c-.03.01-.06.02-.09.03-.03.01-.06.02-.09.02h-.01s-.06.02-.09.03c-.03.01-.06.02-.09.03-.03,0-.06.02-.09.03h-.01s-.05.02-.08.03h-.01s-.06.02-.08.02h-.01s1.17,3.83,1.17,3.83c7.81-2.38,15.83-4.4,23.85-6l-.78-3.92ZM255.35,3.12h-.7s-.04,0-.06.01h-1.14c-.17.01-.34.01-.51.01h-.43s-.05,0-.08,0h-.6s-.02.01-.03.01h-.5s-.05,0-.09.01h-.21c-.55.01-1.09.02-1.63.04h-.3c-6.07.17-12.08.54-18.03,1.13l.39,3.98c8.11-.8,16.37-1.2,24.57-1.2V3.12h-.65Z" fill="#988561"/>
</svg>