<?xml version="1.0" encoding="UTF-8"?>
<svg id="Layer_1" xmlns="http://www.w3.org/2000/svg" version="1.1" viewBox="0 0 512 512">
  <!-- Generator: Adobe Illustrator 29.6.1, SVG Export Plug-In . SVG Version: 2.1.1 Build 9)  -->
  <defs>
    <style>
      .st0 {
        stroke: #231f20;
        stroke-miterlimit: 10;
      }
    </style>
  </defs>
  <path class="st0" d="M285.89,483.2c-8.52,1.1-17.14,1.5-25.73,1.67-11.67-12.25-55.66-60.95-83.95-124.72h69.37c5.75,0,10.42-4.67,10.42-10.42s-4.67-10.42-10.42-10.42h-77.74c-9.6-26.29-16-54.47-16-83.33s6.42-57.02,16.02-83.33h176.21c8.52,23.31,14.6,48.02,15.83,73.41.27,5.58,4.85,9.92,10.39,9.92h.5c5.73-.29,10.17-5.17,9.9-10.92-1.23-25.12-6.65-49.43-14.35-72.41h102.99c4.25,10.79,7.81,21.94,10.37,33.5,1.25,5.6,6.77,9.19,12.44,7.92,5.62-1.25,9.15-6.81,7.92-12.44C474.9,88.32,372.3,6.06,256.06,6.01h-.13C118.09,6.06,6,118.17,6,255.99s112.14,249.98,249.98,249.98c10.83,0,21.81-.71,32.58-2.1,5.69-.73,9.73-5.96,9-11.69-.75-5.69-5.9-9.81-11.69-9l.02.02ZM176.24,151.84c25.58-57.6,63.95-102.93,79.74-120.22,15.79,17.27,54.1,62.66,79.68,120.22h-159.42ZM460,151.84h-101.45c-22.52-54.75-56.66-99.33-77.45-123.41,76.7,8.6,144.09,55.87,178.88,123.41h.02ZM230.98,28.28c-20.77,24.02-54.95,68.68-77.54,123.55H52.12C86.51,84.8,152.84,36.8,230.98,28.28ZM42.75,172.67h102.93c-8.83,26.29-14.69,54.35-14.69,83.33s5.85,57.04,14.69,83.33H42.75c-10.14-25.87-15.92-53.91-15.92-83.33s5.77-57.45,15.92-83.33ZM52.12,360.15h101.32c22.58,54.89,56.75,99.53,77.54,123.55-78.14-8.52-144.45-56.54-178.84-123.55h-.02ZM485.13,339.32h0v-72.91c.17-6.98-6.71-11.39-13.19-10.42-4.65,0-8.73,3.06-10,7.54-6.23,21.71-24.35,34.12-49.7,34.12h-52.08c-34.46,0-62.49,28.04-62.49,62.49,0,13.33,4.27,25.66,11.44,35.81l35.21,89.72c4.83,12.33,16.52,20.29,29.77,20.29,21.94.65,38.41-23.77,29.64-43.87l-15.83-39.46h24.39c25.37,0,43.48,12.44,49.7,34.12,1.52,5.69,7.29,8.17,12.77,7.54,5.75,0,10.42-4.67,10.42-10.42v-72.91h0c11.48,0,20.83-9.35,20.83-20.83s-9.35-20.83-20.83-20.83h-.04ZM384.34,469.87c1.4,3.5,1,7.29-1.1,10.37-4.65,6.96-16.54,5.65-19.56-2.17l-23.1-58.87c6.19,2.06,12.69,3.44,19.56,3.44h5.25l18.96,47.23ZM412.22,401.81h-52.08c-22.98,0-41.66-18.69-41.66-41.66s18.69-41.66,41.66-41.66h52.08c21.27,0,39.27-6.87,52.08-19.25v121.8c-12.81-12.37-30.81-19.23-52.08-19.23Z"/>
</svg>