<?xml version="1.0" encoding="UTF-8"?>
<svg id="Layer_1" xmlns="http://www.w3.org/2000/svg" version="1.1" viewBox="0 0 512 512">
  <!-- Generator: Adobe Illustrator 29.6.1, SVG Export Plug-In . SVG Version: 2.1.1 Build 9)  -->
  <path d="M426.62,59.86c-13.83-19.13-37.47-28.7-70.96-28.7h-14.35c-52.1,1.59-88.77,19.41-110.03,53.42-36.15,47.84-54.22,94.08-54.22,138.73,0,16.48,6.9,30.3,20.73,41.46,7.97,6.91,32.42,19.67,73.35,38.27-68.04,29.24-112.95,52.36-134.74,69.36-43.05,34.02-64.58,76.02-64.58,125.97v7.18h-29.5v-7.18c0-57.4,24.98-105.5,74.95-144.31,23.38-19.14,53.68-36.4,90.89-51.82-10.1-4.78-20.21-11.16-30.3-19.14-19.67-16.47-29.5-36.4-29.5-59.8,0-49.96,19.4-100.18,58.2-150.69C233.14,30.64,277.79,8.58,340.51,6.45h15.15c53.68,0,88.5,17.81,104.45,53.42h-33.49ZM450.54,328.55c-11.7,16.48-29.5,24.72-53.42,24.72-40.94,0-73.35,6.65-97.27,19.93-5.32,2.13-10.1,5.06-14.35,8.77-19.13,11.16-32.69,26.05-40.66,44.65l-1.59,1.59c-13.83,24.99-20.73,50.75-20.73,77.34h-28.7c0-30.3,7.7-59.26,23.12-86.91.52-1.06,1.06-1.86,1.59-2.39,9.57-22.32,26.31-40.66,50.23-55.01,4.78-3.19,10.09-6.38,15.95-9.57,28.17-15.41,65.64-23.12,112.42-23.12h53.42ZM469.67,115.68v25.51h-119.59c-21.27,0-40.14,2.93-56.61,8.77-15.42,5.32-23.12,11.7-23.12,19.13,0,2.13,10.37,6.38,31.1,12.76,30.3,9.57,66.97,14.35,110.03,14.35h55.81v24.72h-55.81c-46.24,0-86.11-5.05-119.59-15.15-33.49-10.09-50.23-22.32-50.23-36.68,0-18.06,13.82-32.42,41.46-43.05,19.66-6.9,41.98-10.36,66.97-10.36h119.59Z"/>
</svg>