<?xml version="1.0" encoding="UTF-8"?>
<svg id="Layer_1" xmlns="http://www.w3.org/2000/svg" version="1.1" viewBox="0 0 512 512">
  <!-- Generator: Adobe Illustrator 29.6.1, SVG Export Plug-In . SVG Version: 2.1.1 Build 9)  -->
  <defs>
    <style>
      .st0 {
        opacity: .58;
      }
    </style>
  </defs>
  <g class="st0">
    <path d="M209.6,281.37c-14-13.89-14.1-36.5-.21-50.5.07-.07.14-.14.21-.21l163.92-163.56c14-13.89,14.1-36.5.21-50.5-.07-.07-.14-.14-.21-.21-13.93-13.85-36.43-13.85-50.35,0l-163.92,163.92c-41.78,41.83-41.78,109.59,0,151.42l163.92,163.92c6.65,6.6,15.63,10.32,25,10.36,9.49.05,18.62-3.67,25.36-10.36,14-13.89,14.1-36.5.21-50.5-.07-.07-.14-.14-.21-.21l-163.92-163.56Z"/>
  </g>
</svg>