<?xml version="1.0" encoding="UTF-8"?>
<svg id="Layer_1" xmlns="http://www.w3.org/2000/svg" version="1.1" viewBox="0 0 512 512">
  <!-- Generator: Adobe Illustrator 30.0.0, SVG Export Plug-In . SVG Version: 2.1.1 Build 91)  -->
  <path d="M213.45,145.79c27.56,27.78,55.12,55.59,82.1,83.95,14.52,15.24,14.79,37.51.39,52.77-27.09,28.7-54.96,56.72-82.57,84.97-3.71,3.78-8.49,5.31-13.8,4.45-6.55-1.04-11.18-4.77-13.28-10.99-2.35-6.86-.42-12.84,4.67-18.03,25.33-25.86,50.59-51.8,75.83-77.73,1.7-1.71,3.8-3.39,4.67-5.51.79-1.92.79-4.67-.02-6.57-.87-2.1-2.97-3.71-4.69-5.46-19.6-20.08-39.19-40.17-58.82-60.23-6.02-6.18-12.2-12.25-18.12-18.59-4.81-5.19-5.8-11.36-3.06-17.86,2.79-6.54,8.17-9.58,17.14-10.29,2.2,1.14,6.71,2.3,9.55,5.13Z" fill-rule="evenodd"/>
  <circle cx="256" cy="256" r="250.45" fill="none" stroke="#000" stroke-miterlimit="10" stroke-width="3"/>
</svg>