<?xml version="1.0" encoding="UTF-8"?>
<svg id="Layer_1" xmlns="http://www.w3.org/2000/svg" version="1.1" viewBox="0 0 512 512">
  <!-- Generator: Adobe Illustrator 30.0.0, SVG Export Plug-In . SVG Version: 2.1.1 Build 72)  -->
  <defs>
    <style>
      .st0 {
        fill: #f6f6f6;
      }
    </style>
  </defs>
  <path class="st0" d="M495.58,235.17c-5.75,0-10.42-4.67-10.42-10.42,0-109.12-88.79-197.92-197.92-197.92-5.75,0-10.42-4.67-10.42-10.42s4.67-10.42,10.42-10.42c120.63,0,218.75,98.13,218.75,218.75,0,5.75-4.67,10.42-10.42,10.42ZM422.67,224.75c0-74.67-60.75-135.42-135.42-135.42-5.75,0-10.42,4.67-10.42,10.42s4.67,10.42,10.42,10.42c63.19,0,114.58,51.4,114.58,114.58,0,5.75,4.67,10.42,10.42,10.42s10.42-4.67,10.42-10.42ZM469.21,469.98l20.38-23.44c10.58-10.58,16.42-24.67,16.42-39.63s-5.83-29.06-17.44-40.52l-50.96-39.02c-21.83-21.83-57.35-21.85-79.23-.06l-31.92,31.13c-76.67-31.23-139.12-93.75-172.79-172.98l31-31.77c21.85-21.85,21.85-57.42.9-78.25l-40.81-52.98c-21.19-21.19-58.6-20.69-78.75-.48l-24.46,21.33C18.6,66.12,6,97.1,6,130.5c0,161.44,214.06,375.5,375.5,375.5,33.4,0,64.35-12.6,87.71-36.02h0ZM129.1,36.12l40.81,52.98c13.73,13.73,13.73,36.08-.08,49.92l-35.88,36.79c-2.88,2.96-3.75,7.33-2.21,11.17,36.02,89.69,106.52,160.17,193.46,193.33,3.79,1.46,8.08.56,10.98-2.25l36.79-35.88s.06-.06.08-.1c13.31-13.33,35.5-14.19,50.83.9l50.96,39.02c13.73,13.73,13.73,36.06-.48,50.33l-20.4,23.44c-18.92,18.96-44.67,29.4-72.48,29.4-149.17,0-354.67-205.5-354.67-354.67,0-27.81,10.44-53.56,28.9-72l24.48-21.35c7-7,16.23-10.42,25.31-10.42s17.31,3.17,23.6,9.42l-.02-.02Z"/>
</svg>