<?xml version="1.0" encoding="UTF-8"?>
<svg id="Filled" xmlns="http://www.w3.org/2000/svg" version="1.1" viewBox="0 0 512 512">
  <!-- Generator: Adobe Illustrator 30.0.0, SVG Export Plug-In . SVG Version: 2.1.1 Build 72)  -->
  <defs>
    <style>
      .st0 {
        fill: #8c8c8c;
      }
    </style>
  </defs>
  <path class="st0" d="M490.67,341.33c-11.78,0-21.33,9.55-21.33,21.33v42.67c0,35.35-28.65,64-64,64h-42.67c-11.78,0-21.33,9.55-21.33,21.33s9.55,21.33,21.33,21.33h42.67c58.88-.07,106.6-47.79,106.67-106.67v-42.67c0-11.78-9.55-21.33-21.33-21.33Z"/>
  <path class="st0" d="M21.33,170.67c11.78,0,21.33-9.55,21.33-21.33v-42.67c0-35.35,28.65-64,64-64h42.67c11.78,0,21.33-9.55,21.33-21.33S161.12,0,149.33,0h-42.67C47.79.07.07,47.79,0,106.67v42.67c0,11.78,9.55,21.33,21.33,21.33Z"/>
  <path class="st0" d="M149.33,469.33h-42.67c-35.35,0-64-28.65-64-64v-42.67c0-11.78-9.55-21.33-21.33-21.33S0,350.88,0,362.67v42.67c.07,58.88,47.79,106.6,106.67,106.67h42.67c11.78,0,21.33-9.55,21.33-21.33s-9.55-21.33-21.33-21.33Z"/>
  <path class="st0" d="M405.33,0h-42.67c-11.78,0-21.33,9.55-21.33,21.33s9.55,21.33,21.33,21.33h42.67c35.35,0,64,28.65,64,64v42.67c0,11.78,9.55,21.33,21.33,21.33s21.33-9.55,21.33-21.33v-42.67c-.07-58.88-47.79-106.6-106.67-106.67Z"/>
  <circle class="st0" cx="256" cy="149.33" r="85.33"/>
  <path class="st0" d="M234.67,277.33c-70.66.07-127.93,57.34-128,128,0,11.78,9.55,21.33,21.33,21.33h256c11.78,0,21.33-9.55,21.33-21.33-.07-70.66-57.34-127.93-128-128h-42.67Z"/>
</svg>