<?xml version="1.0" encoding="UTF-8"?>
<svg id="Filled" xmlns="http://www.w3.org/2000/svg" version="1.1" viewBox="0 0 512 512">
  <!-- Generator: Adobe Illustrator 30.0.0, SVG Export Plug-In . SVG Version: 2.1.1 Build 72)  -->
  <defs>
    <style>
      .st0 {
        fill: #fffcee;
      }
    </style>
  </defs>
  <path class="st0" d="M378.05,64l-30.14-39.08C335.74,9.26,317.04.07,297.22,0h-82.43c-19.83.07-38.52,9.26-50.69,24.92l-30.14,39.08h244.1Z"/>
  <circle class="st0" cx="256" cy="298.67" r="85.33"/>
  <path class="st0" d="M405.33,106.67H106.67C47.79,106.74.07,154.45,0,213.33v192c.07,58.88,47.79,106.6,106.67,106.67h298.67c58.88-.07,106.6-47.79,106.67-106.67v-192c-.07-58.88-47.79-106.6-106.67-106.67ZM256,426.67c-70.69,0-128-57.31-128-128s57.31-128,128-128,128,57.31,128,128c-.07,70.66-57.34,127.93-128,128Z"/>
</svg>