<svg id="Layer_1" viewBox="0 0 24 24" xmlns="http://www.w3.org/2000/svg" data-name="Layer 1"><path d="m15.854 8.854-3.146 3.146 3.146 3.146c.195.195.195.512 0 .707s-.512.195-.707 0l-3.146-3.146-3.146 3.146c-.195.195-.512.195-.707 0s-.195-.512 0-.707l3.146-3.146-3.146-3.146c-.195-.195-.195-.512 0-.707s.512-.195.707 0l3.146 3.146 3.146-3.146c.195-.195.512-.195.707 0s.195.512 0 .707zm7.146 3.146c0 7.813-3.187 11-11 11s-11-3.187-11-11 3.187-11 11-11 11 3.187 11 11zm-1 0c0-7.196-2.804-10-10-10s-10 2.804-10 10 2.804 10 10 10 10-2.804 10-10z"/></svg>