<?xml version="1.0" encoding="UTF-8"?>
<svg id="Layer_1" xmlns="http://www.w3.org/2000/svg" version="1.1" viewBox="0 0 512 512">
  <!-- Generator: Adobe Illustrator 29.7.1, SVG Export Plug-In . SVG Version: 2.1.1 Build 8)  -->
  <g id="object">
    <path d="M255.99,506c-138.07,0-250.01-111.93-250-250.01,0-66.31,26.34-129.89,73.22-176.78,97.65-97.63,255.95-97.62,353.58.03,85.14,85.15,97.48,218.89,29.38,318.19,3.15,13.01,21.29,49.78,37.98,79.15,4.72,8.3,1.81,18.85-6.48,23.56-5.2,2.96-11.57,3.01-16.82.14-.17-.1-17.67-9.63-37.33-19.07-27.57-13.23-39.48-16.79-44-17.74-41.2,27.81-89.81,42.63-139.52,42.52ZM255.99,40.55c-118.8,0-215.44,96.65-215.44,215.44s96.65,215.45,215.44,215.45c44.17.09,87.29-13.48,123.45-38.85,9.68-6.78,22.61-3.77,35.15.49,8.12,2.76,18.25,6.93,30.18,12.42-5.56-11.49-9.82-21.25-12.68-29.05-5.28-14.42-7.46-25.89-.92-35.01,26.28-36.54,40.37-80.43,40.26-125.44,0-118.8-96.65-215.45-215.45-215.45Z"/>
  </g>
</svg>