<svg id="Слой_1" enable-background="new 0 0 512 512" height="512" viewBox="0 0 512 512" width="512" xmlns="http://www.w3.org/2000/svg"><g fill="rgb(0,0,0)"><path d="m506.799 204.426c-3.365-16.445-8.386-32.62-14.924-48.078-6.418-15.173-14.36-29.806-23.606-43.492-9.155-13.552-19.669-26.295-31.25-37.875-11.58-11.58-24.323-22.094-37.875-31.25-13.686-9.246-28.319-17.189-43.492-23.606-15.457-6.538-31.633-11.559-48.077-14.924-16.865-3.451-34.217-5.201-51.575-5.201s-34.71 1.75-51.575 5.201c-16.445 3.365-32.62 8.386-48.078 14.924-15.173 6.418-29.806 14.36-43.492 23.606-13.551 9.156-26.294 19.669-37.874 31.25-11.58 11.58-22.094 24.323-31.25 37.875-9.246 13.686-17.189 28.319-23.606 43.492-6.538 15.457-11.559 31.633-14.924 48.078-3.451 16.864-5.201 34.216-5.201 51.574s1.75 34.71 5.201 51.575c3.365 16.444 8.386 32.62 14.924 48.077 6.418 15.173 14.36 29.806 23.606 43.492 9.156 13.552 19.669 26.295 31.25 37.875 11.58 11.58 24.323 22.094 37.875 31.25 13.686 9.246 28.319 17.189 43.492 23.606 15.457 6.538 31.633 11.559 48.078 14.924 16.864 3.451 34.216 5.201 51.574 5.201s34.71-1.75 51.575-5.201c16.445-3.365 32.62-8.386 48.077-14.924 15.173-6.418 29.806-14.36 43.492-23.606 13.552-9.155 26.295-19.669 37.875-31.25 11.58-11.58 22.094-24.323 31.25-37.875 9.246-13.686 17.189-28.319 23.606-43.492 6.538-15.457 11.559-31.633 14.924-48.077 3.451-16.865 5.201-34.217 5.201-51.575s-1.75-34.71-5.201-51.574zm-250.799 272.953c-122.069 0-221.379-99.31-221.379-221.379s99.31-221.379 221.379-221.379 221.379 99.31 221.379 221.379-99.31 221.379-221.379 221.379z"/><path d="m329.033 194.891-56.947 45.483-5.31-153.038c-.331-9.555-8.344-17.03-17.9-16.7-9.555.332-17.031 8.346-16.7 17.9l6.504 187.455c.227 6.539 4.122 12.392 10.067 15.127 2.311 1.063 4.778 1.584 7.231 1.584 3.857 0 7.68-1.289 10.805-3.785l83.856-66.975c7.47-5.966 8.689-16.859 2.723-24.329-5.966-7.469-16.859-8.688-24.329-2.722z"/></g></svg>