<?xml version="1.0" encoding="UTF-8"?>
<svg id="Layer_1" xmlns="http://www.w3.org/2000/svg" version="1.1" viewBox="0 0 512 512">
  <!-- Generator: Adobe Illustrator 29.6.1, SVG Export Plug-In . SVG Version: 2.1.1 Build 9)  -->
  <defs>
    <style>
      .st0 {
        fill: #988561;
      }
    </style>
  </defs>
  <path class="st0" d="M421.21,235.13h-61.01c-23.1,0-41.68-18.58-41.68-41.68v-91.77c-30.63-12.43-65.53-16.32-102.19-7.66-62.77,14.69-112.23,66.66-124.03,129.93-19.71,106.2,61.14,198.72,163.7,198.72,92.02,0,166.71-74.69,166.71-166.71,0-7.03-.63-13.93-1.5-20.84ZM327.68,322.5v.13l-92.52-57.62v-134.07h41.68v110.97l72.93,45.32-22.09,35.28Z"/>
  <path d="M506,47.67v104.17c0,23.02-18.65,41.67-41.67,41.67h-104.17v-41.67h75.75c-44.29-76.48-131.62-118.31-222.94-99.81-82.48,16.71-147.9,84.27-162.17,167.23-22.52,131.02,78.25,245.08,205.17,245.08,8.08,0,16.25-.46,24.31-1.4l4.79,41.38c-9.65,1.13-19.44,1.69-29.1,1.69-151.67,0-272.23-135.79-246.5-292.19C25.71,115.15,101.79,33.88,199.42,12.25c106-23.48,208.79,20.81,264.92,105.69V47.65h41.67v.02Z"/>
  <path d="M352.25,440.81l19.29,36.94c-13.44,7.02-27.56,12.81-42,17.25l-12.25-39.83c12-3.69,23.77-8.5,34.96-14.35Z"/>
  <path d="M464.33,256h41.67c0,15.17-1.37,30.38-4.08,45.19l-40.98-7.48c2.25-12.37,3.4-25.04,3.4-37.71Z"/>
  <path d="M411.67,394.46l31.12,27.71c-10.06,11.31-21.23,21.75-33.13,31.02l-25.6-32.87c9.92-7.71,19.19-16.42,27.58-25.85h.02Z"/>
  <path d="M450.79,330.04l38.94,14.85c-5.35,14.04-12.06,27.77-19.94,40.77l-35.65-21.6c6.58-10.85,12.19-22.29,16.65-34.02Z"/>
</svg>