<?xml version="1.0" encoding="UTF-8"?>
<svg id="Layer_1" xmlns="http://www.w3.org/2000/svg" version="1.1" viewBox="0 0 512 512">
  <!-- Generator: Adobe Illustrator 30.0.0, SVG Export Plug-In . SVG Version: 2.1.1 Build 72)  -->
  <defs>
    <style>
      .st0 {
        fill: #988561;
      }
    </style>
  </defs>
  <circle cx="224.72" cy="58.11" r="52.08"/>
  <path class="st0" d="M130.97,89.32c0-22.92-18.69-41.61-41.62-41.61h-41.74c-22.93,0-41.62,18.69-41.62,41.61v41.74c0,7.6,2.24,14.7,5.73,20.81-3.49,6.11-5.73,13.21-5.73,20.81v41.74c0,22.93,18.69,41.62,41.62,41.62h41.74c22.93,0,41.62-18.69,41.62-41.62v-41.74c0-7.6-2.24-14.7-5.73-20.81,3.49-6.11,5.73-13.21,5.73-20.81v-41.74ZM89.35,214.42h-41.74v-41.74h41.74v41.74ZM89.35,131.06h-41.74v-41.74h41.74v41.74Z"/>
  <path d="M463.14,366.92c-.37-15.95-1.87-31.15-5.86-46.22l-29.15-109.27c-6.11-22.8-26.79-38.75-50.34-38.75h-34.51l-100.42-40.12c-18.94-5.36-40.37.25-53.58,11.71-10.71,9.47-16.69,22.8-16.69,37.75v89.09c0,23.42,12.96,44.73,33.89,55.57l58.93,30.03c6.98,3.61,11.34,10.72,11.34,18.56v47.47h-20.81c-11.46,0-20.81,9.22-20.81,20.81s9.34,20.81,20.81,20.81h111.51c11.71,24.54,36.63,41.61,65.54,41.61,40.24,0,73.01-32.64,73.01-72.89,0-29.53-17.69-54.7-42.86-66.16ZM235.13,294.53l-9.59-4.98c-6.98-3.49-11.22-10.59-11.22-18.44v-89.09c0-3.74,1.12-5.36,2.37-6.35,2.74-2.49,7.72-3.74,13.46-3.36l4.98,1.99v120.23ZM361.22,422.74h-42.74v-47.47c0-23.55-13.08-44.85-34.14-55.57l-7.48-3.99v-124.72l54.7,21.93c2.49,1,5.11,1.5,7.72,1.5h38.5c4.73,0,8.85,3.11,10.09,7.73l29.15,109.27c2.62,9.97,3.74,19.81,4.36,29.9-31.27,5.11-55.69,30.03-60.18,61.42ZM432.99,464.36c-17.19,0-31.15-14.08-31.15-31.27s13.95-31.27,31.15-31.27,31.27,14.08,31.27,31.27-13.95,31.27-31.27,31.27Z"/>
  <path d="M180.18,364.93c-.37-1.5-24.79-38.88-24.79-38.88-11.59-17.82-31.15-28.41-52.33-28.41H26.81c-11.46,0-20.81,9.34-20.81,20.93s9.34,20.81,20.81,20.81h14.7c-21.43,17.19-35.51,43.23-35.51,72.89,0,51.71,41.99,93.7,93.7,93.7s93.82-41.99,93.82-93.7c0-17.32-5.11-33.39-13.33-47.34ZM99.7,464.36c-28.66,0-52.08-23.43-52.08-52.08s23.42-52.08,52.08-52.08c17.82,0,33.64,9.1,42.98,22.8l.37.5c5.48,8.22,8.72,18.19,8.72,28.78,0,28.66-23.3,52.08-52.08,52.08Z"/>
</svg>