<?xml version="1.0" encoding="UTF-8"?>
<svg id="Layer_1" xmlns="http://www.w3.org/2000/svg" version="1.1" viewBox="0 0 512 512">
  <!-- Generator: Adobe Illustrator 29.6.1, SVG Export Plug-In . SVG Version: 2.1.1 Build 9)  -->
  <defs>
    <style>
      .st0 {

      }
    </style>
  </defs>
  <path class="st0" d="M506.01,120.86c.04-17.12-10.25-32.21-26.21-38.44L309.32,15.89c-33.65-13.12-70.75-13.19-104.44-.15h0L32.35,82.49c-16,6.19-26.35,21.27-26.33,38.44.02,17.17,10.35,32.23,26.35,38.4l77.77,30v118.77c0,5.75,4.67,10.42,10.42,10.42s10.42-4.67,10.42-10.42v-110.73l72.96,28.15c16.73,6.46,34.31,9.69,51.89,9.69s35.17-3.23,51.89-9.69l73.25-28.25v110.83c0,5.75,4.67,10.42,10.42,10.42s10.42-4.67,10.42-10.42v-118.87l77.85-30.02c2.02-.77,3.65-2.08,5.48-3.12v131.18c0,5.75,4.67,10.42,10.42,10.42s10.42-4.67,10.42-10.42V121.13s.04-.17.04-.27ZM472.15,139.76l-171.93,66.33c-28.62,11.04-60.14,11.04-88.77,0L39.87,139.88c-9.58-3.71-13.02-12.23-13.02-18.98s3.42-15.27,13.02-18.98L212.41,35.16h0c28.83-11.17,60.56-11.1,89.37.12l170.48,66.54c9.44,3.69,12.83,12.04,12.92,18.73v.58c-.1,6.69-3.54,14.98-12.98,18.62h-.04ZM487.71,349.96c-12.04-9.48-27.54-12.85-42.58-9.21-45.35,10.98-130.23,29.4-189.14,29.4s-143.79-18.42-189.16-29.4c-15.06-3.69-30.56-.27-42.58,9.21-11.6,9.12-18.25,22.71-18.25,37.27v70.85c0,14.56,6.65,28.15,18.25,37.27,12.04,9.48,27.54,12.81,42.58,9.21,45.35-10.98,130.23-29.4,189.14-29.4s143.79,18.42,189.16,29.4c3.96.96,7.96,1.44,11.92,1.44,11.04,0,21.79-3.67,30.67-10.65,11.6-9.12,18.25-22.71,18.25-37.27v-70.85c0-14.56-6.65-28.15-18.25-37.27ZM61.93,484.33c-8.79,2.12-17.81.17-24.81-5.33-6.54-5.17-10.31-12.77-10.31-20.9v-70.85c0-8.12,3.77-15.75,10.31-20.9,6.98-5.5,16.02-7.46,24.79-5.33,53.25,12.9,126.75,27.96,183.62,29.65v64.02c-56.87,1.71-130.37,16.75-183.62,29.65h.02ZM485.13,458.11c0,8.12-3.77,15.75-10.31,20.9-6.98,5.5-16.02,7.46-24.79,5.33-53.25-12.9-126.75-27.96-183.62-29.65v-64.02c56.87-1.71,130.37-16.75,183.62-29.65,8.79-2.12,17.81-.17,24.81,5.33,6.54,5.17,10.31,12.77,10.31,20.9v70.85h-.02Z"/>
</svg>