<?xml version="1.0" encoding="UTF-8"?>
<svg id="Layer_1" xmlns="http://www.w3.org/2000/svg" version="1.1" viewBox="0 0 512 512">
  <!-- Generator: Adobe Illustrator 29.6.1, SVG Export Plug-In . SVG Version: 2.1.1 Build 9)  -->
  <path d="M256.01,6C118.04,6.15,6.24,117.96,6.09,255.92c-2.62,199.38,232.41,321.34,393.63,204.46,9.58-6.37,12.18-19.3,5.81-28.88-6.37-9.58-19.3-12.18-28.88-5.81-.31.21-.62.43-.92.65-134.29,97.32-330.07-4.27-327.98-170.43,11.43-276.29,405.15-276.23,416.54,0v41.65c0,23-18.65,41.65-41.65,41.65s-41.65-18.65-41.65-41.65v-41.65c-5.25-165.14-244.7-165.12-249.92,0,.66,69.21,57.3,124.77,126.51,124.11,35.44-.34,69.08-15.67,92.59-42.2,22.68,40.03,73.52,54.1,113.55,31.41,25.85-14.65,41.95-41.96,42.24-71.67v-41.65c-.15-137.97-111.96-249.78-249.92-249.92ZM256.01,339.23c-46.01,0-83.31-37.3-83.31-83.31s37.3-83.31,83.31-83.31,83.31,37.3,83.31,83.31-37.3,83.31-83.31,83.31Z"/>
</svg>