<?xml version="1.0" encoding="UTF-8"?>
<svg id="Layer_1" xmlns="http://www.w3.org/2000/svg" version="1.1" viewBox="0 0 512 512">
  <!-- Generator: Adobe Illustrator 29.6.1, SVG Export Plug-In . SVG Version: 2.1.1 Build 9)  -->
  <g id="_01_align_center">
    <path d="M370.54,22.86c-47.73.74-91.42,26.96-114.54,68.72-23.12-41.77-66.81-67.98-114.54-68.72C63.64,26.24,3.17,91.83,6.1,169.67c0,141.09,228.16,304.04,237.86,310.96l12.04,8.52,12.04-8.52c9.7-6.87,237.86-169.87,237.86-310.96,2.94-77.84-57.54-143.43-135.36-146.81ZM256,437.87c-67.74-50.6-208.25-174.93-208.25-268.2-2.96-54.85,38.89-101.81,93.71-105.17,48.25,2.95,86.45,39.68,92.9,85.83,1.53,10.98,10.55,19.34,21.64,19.34h0c11.08,0,20.1-8.36,21.64-19.34,6.45-46.15,44.65-82.88,92.9-85.83,54.83,3.35,96.67,50.32,93.71,105.17,0,93.32-140.5,217.6-208.25,268.2Z"/>
  </g>
</svg>