<?xml version="1.0" encoding="UTF-8"?>
<svg id="Layer_1" xmlns="http://www.w3.org/2000/svg" version="1.1" viewBox="0 0 512 512">
  <!-- Generator: Adobe Illustrator 29.6.1, SVG Export Plug-In . SVG Version: 2.1.1 Build 9)  -->
  <defs>
    <style>
      .st0 {
        fill: #988561;
      }
    </style>
  </defs>
  <path class="st0" d="M367.03,6l-220.25.1c-39.7,0-72.24,32.44-72.24,72.14l-1.81,410.92c0,13.07,14.22,21.09,25.38,14.31l157.93-97.43,157.74,97.43c11.17,6.87,25.48-1.05,25.48-14.12V78.24c0-39.7-32.45-72.24-72.24-72.24ZM414.84,452.22c0,11.26-12.41,18.23-22.04,12.22l-136.75-84.46-136.94,84.46c-9.64,5.92-21.95-1.05-21.95-12.31l1.62-356.24c0-34.36,28.15-62.51,62.51-62.51l190.95-.1c34.45,0,62.6,28.25,62.6,62.6v356.33Z"/>
</svg>