<?xml version="1.0" encoding="UTF-8"?>
<svg id="Filled" xmlns="http://www.w3.org/2000/svg" version="1.1" viewBox="0 0 512 512">
  <!-- Generator: Adobe Illustrator 30.0.0, SVG Export Plug-In . SVG Version: 2.1.1 Build 72)  -->
  <path d="M492.6,201.82c-32.56-53.03-106.62-141.99-236.6-141.99S51.96,148.79,19.4,201.82c-20.53,33.2-20.53,75.16,0,108.36,32.56,53.03,106.62,141.99,236.6,141.99s204.04-88.97,236.6-141.99c20.53-33.2,20.53-75.16,0-108.36ZM456.81,288.2c-27.96,45.47-91.25,121.99-200.81,121.99s-172.85-76.52-200.81-121.99c-12.2-19.74-12.2-44.67,0-64.4,27.96-45.47,91.25-121.99,200.81-121.99s172.85,76.43,200.81,121.99c12.2,19.74,12.2,44.67,0,64.4h0Z"/>
  <path d="M256,151.04c-57.97,0-104.96,46.99-104.96,104.96s46.99,104.96,104.96,104.96,104.96-46.99,104.96-104.96c-.07-57.94-47.02-104.89-104.96-104.96ZM256,318.98c-34.78,0-62.98-28.2-62.98-62.98s28.2-62.98,62.98-62.98,62.98,28.2,62.98,62.98-28.2,62.98-62.98,62.98Z"/>
</svg>