<?xml version="1.0" encoding="UTF-8"?>
<svg id="Filled" xmlns="http://www.w3.org/2000/svg" version="1.1" viewBox="0 0 512 512">
  <!-- Generator: Adobe Illustrator 30.0.0, SVG Export Plug-In . SVG Version: 2.1.1 Build 72)  -->
  <path d="M492.6,201.56c-18.95-31.03-42.86-58.75-70.77-82.06l58.78-58.78c8.05-8.34,7.82-21.63-.52-29.68-8.13-7.86-21.03-7.86-29.17,0l-63.92,64c-39.62-23.54-84.93-35.8-131.01-35.48-129.96,0-204.02,88.97-236.6,141.99-20.53,33.2-20.53,75.16,0,108.36,18.95,31.03,42.86,58.75,70.77,82.06l-58.78,58.78c-8.34,8.05-8.57,21.34-.52,29.68,8.05,8.34,21.34,8.57,29.68.52.18-.17.35-.34.52-.52l64.07-64.07c39.58,23.53,84.82,35.82,130.87,35.54,129.96,0,204.02-88.97,236.6-141.99,20.53-33.2,20.53-75.16,0-108.36h0ZM130.05,255.74c-.12-69.45,56.08-125.84,125.53-125.96,26.28-.05,51.91,8.14,73.29,23.41l-30.48,30.48c-12.8-7.72-27.44-11.83-42.38-11.9-46.37,0-83.97,37.59-83.97,83.97.07,14.94,4.19,29.59,11.9,42.38l-30.48,30.48c-15.22-21.25-23.41-46.73-23.41-72.86h0ZM256,381.7c-26.14,0-51.62-8.19-72.86-23.41l30.48-30.48c12.8,7.72,27.44,11.83,42.38,11.9,46.37,0,83.97-37.59,83.97-83.97-.07-14.94-4.19-29.59-11.9-42.38l30.48-30.48c40.36,56.52,27.26,135.05-29.26,175.4-21.38,15.27-47.01,23.46-73.29,23.41h0Z"/>
</svg>