<?xml version="1.0" encoding="UTF-8"?>
<svg id="Layer_1" xmlns="http://www.w3.org/2000/svg" version="1.1" viewBox="0 0 512 512">
  <!-- Generator: Adobe Illustrator 29.6.1, SVG Export Plug-In . SVG Version: 2.1.1 Build 9)  -->
  <defs>
    <style>
      .st0 {
        fill: #1877f2;
      }

      .st1 {
        fill: #fff;
      }
    </style>
  </defs>
  <path class="st0" d="M506,256c0,124.79-91.43,228.21-210.94,246.96v-174.7h58.25l11.08-72.27h-69.34v-46.89c0-19.78,9.69-39.04,40.74-39.04h31.52v-61.52s-28.61-4.88-55.97-4.88c-57.1,0-94.42,34.61-94.42,97.27v55.08h-63.48v72.27h63.48v174.7C97.43,484.21,6,380.79,6,256,6,117.93,117.93,6,256,6s250,111.93,250,250Z"/>
  <path class="st1" d="M353.31,328.27l11.08-72.27h-69.34v-46.9c0-19.77,9.69-39.04,40.74-39.04h31.52v-61.52s-28.61-4.88-55.96-4.88c-57.11,0-94.43,34.61-94.43,97.27v55.08h-63.48v72.27h63.48v174.7c12.73,2,25.77,3.04,39.06,3.04s26.33-1.04,39.06-3.04v-174.7h58.25Z"/>
</svg>