<?xml version="1.0" encoding="UTF-8"?>
<svg id="Layer_1" xmlns="http://www.w3.org/2000/svg" version="1.1" viewBox="0 0 512 512">
  <!-- Generator: Adobe Illustrator 30.0.0, SVG Export Plug-In . SVG Version: 2.1.1 Build 72)  -->
  <defs>
    <style>
      .st0 {
        fill: #988561;
      }
    </style>
  </defs>
  <path class="st0" d="M443.23,51.98v417.67c0,20.03-16.31,36.35-36.35,36.35-10.11,0-19.65-3.91-26.81-11.07-20.61-20.61-82.24-82.24-107.71-107.61-8.59-8.68-24.14-8.68-32.72,0l-107.52,107.42c-7.25,7.25-16.98,11.26-27.28,11.26-19.94,0-36.06-16.12-36.06-36.06V51.98c0-12.31,4.77-23.85,13.45-32.53,8.49-8.59,20.42-13.45,32.53-13.45h282.48c12.12,0,23.95,4.87,32.53,13.45,8.68,8.68,13.45,20.23,13.45,32.53Z"/>
</svg>