<?xml version="1.0" encoding="UTF-8"?>
<svg id="Layer_1" xmlns="http://www.w3.org/2000/svg" version="1.1" viewBox="0 0 512 512">
  <!-- Generator: Adobe Illustrator 30.0.0, SVG Export Plug-In . SVG Version: 2.1.1 Build 72)  -->
  <defs>
    <style>
      .st0 {
        fill: #010101;
      }
    </style>
  </defs>
  <path class="st0" d="M406.86,506c-10.1,0-19.61-3.94-26.8-11.09-20.59-20.62-82.24-82.25-107.65-107.62-8.63-8.68-24.2-8.65-32.77-.04l-107.51,107.45c-7.25,7.28-16.93,11.3-27.22,11.3-19.97,0-36.14-16.19-36.14-36.1V52.03c0-12.3,4.78-23.86,13.47-32.55,8.55-8.56,20.42-13.48,32.55-13.48h282.42c12.13,0,24,4.92,32.57,13.49,8.68,8.68,13.46,20.24,13.46,32.54v417.61c0,20.05-16.32,36.36-36.38,36.36ZM256,351.18c13.86,0,27.4,5.62,37.14,15.41,25.38,25.34,87.06,87,107.61,107.59,1.63,1.62,3.81,2.53,6.11,2.53,3.9,0,7.08-3.17,7.08-7.07V52.03c0-4.48-1.74-8.68-4.89-11.83-3.12-3.12-7.43-4.9-11.84-4.9H114.79c-4.42,0-8.72,1.78-11.83,4.9-3.16,3.16-4.9,7.36-4.9,11.84v417.87c0,3.75,3.04,6.8,6.77,6.8,2.52,0,4.83-.96,6.57-2.71l107.51-107.44c9.71-9.76,23.24-15.37,37.1-15.37Z"/>
</svg>