<?xml version="1.0" encoding="UTF-8"?>
<svg id="Layer_1" xmlns="http://www.w3.org/2000/svg" version="1.1" viewBox="0 0 512 512">
  <!-- Generator: Adobe Illustrator 29.6.1, SVG Export Plug-In . SVG Version: 2.1.1 Build 9)  -->
  <defs>
    <style>
      .st0 {
        fill: #6b1f2a;
      }

      .st1 {
        fill: #f6f6f6;
        font-family: MOGAYR-Bold, 'MOGA YR';
        font-size: 156.2px;
        font-weight: 700;
      }
    </style>
  </defs>
  <path class="st0" d="M504.98,326.3c-2.08,7.22-6.67,13.06-13.2,16.81l-44.74,25.01v51.13c0,15.28-12.5,27.79-27.79,27.79h-51.27l-24.87,44.74c-3.75,6.53-9.59,11.12-16.81,13.2-7.09,1.95-14.59,1.11-21.12-2.5l-49.18-27.51-49.18,27.51c-4.31,2.36-8.89,3.47-13.62,3.47-2.5,0-5-.28-7.5-.97-7.22-2.08-13.06-6.67-16.81-13.2l-24.87-44.74h-51.27c-15.28,0-27.79-12.5-27.79-27.79v-51.13l-44.74-25.01c-6.53-3.75-11.12-9.59-13.2-16.81-1.95-7.09-1.11-14.59,2.5-21.12l27.51-49.18-27.51-49.18c-7.5-13.48-2.64-30.43,10.7-37.93l44.74-25.01v-51.13c0-15.28,12.5-27.79,27.79-27.79h51.27l24.87-44.74c3.75-6.53,9.59-11.12,16.81-13.2,7.09-1.95,14.59-1.11,21.12,2.5l49.18,27.51,49.18-27.51c6.53-3.61,14.03-4.45,21.12-2.5,7.22,2.08,13.06,6.67,16.81,13.2l24.87,44.74h51.27c15.28,0,27.79,12.5,27.79,27.79v51.13l44.74,25.01c13.34,7.5,18.2,24.45,10.7,37.93l-27.51,49.18,27.51,49.18c3.61,6.53,4.45,14.03,2.5,21.12h0Z"/>
  <text class="st1" transform="translate(82.19 291.37) rotate(-8.49)"><tspan x="0" y="0">ببلاش</tspan></text>
</svg>