<?xml version="1.0" encoding="UTF-8"?>
<svg id="Layer_1" xmlns="http://www.w3.org/2000/svg" version="1.1" viewBox="0 0 512 512">
  <!-- Generator: Adobe Illustrator 30.0.0, SVG Export Plug-In . SVG Version: 2.1.1 Build 72)  -->
  <defs>
    <style>
      .st0 {
        fill: #6c202a;
      }
    </style>
  </defs>
  <path class="st0" d="M474.97,256l27.51-49.18c7.5-13.48,2.64-30.43-10.7-37.93l-44.74-25.01v-51.13c0-15.29-12.5-27.79-27.79-27.79h-51.27l-24.87-44.74c-3.75-6.53-9.58-11.11-16.81-13.2-7.08-1.94-14.59-1.11-21.12,2.5l-49.18,27.51-49.18-27.51c-6.53-3.61-14.04-4.44-21.12-2.5-7.23,2.09-13.06,6.67-16.81,13.2l-24.87,44.74h-51.27c-15.29,0-27.79,12.5-27.79,27.79v51.13l-44.74,25.01c-13.34,7.5-18.2,24.45-10.7,37.93l27.51,49.18-27.51,49.18c-3.61,6.53-4.44,14.04-2.5,21.12,2.09,7.23,6.67,13.06,13.2,16.81l44.74,25.01v51.13c0,15.29,12.5,27.79,27.79,27.79h51.27l24.87,44.74c3.75,6.53,9.58,11.11,16.81,13.2,2.5.69,5,.97,7.5.97,4.72,0,9.31-1.11,13.62-3.47l49.18-27.51,49.18,27.51c6.53,3.61,14.04,4.44,21.12,2.5,7.23-2.09,13.06-6.67,16.81-13.2l24.87-44.74h51.27c15.29,0,27.79-12.5,27.79-27.79v-51.13l44.74-25.01c6.53-3.75,11.11-9.58,13.2-16.81,1.94-7.08,1.11-14.59-2.5-21.12l-27.51-49.18ZM279.71,196.09l10.27,46.07-26.06.5-18.73-34.64,34.52-11.93ZM177.44,188.47l12.04,8.8-8.93,12.06-12.07-8.93,8.96-11.93ZM168.97,206.54l13.5,10,9.86-13.48,15.86,11.61-11.76,15.89-14.65-11.1-9.05,12.23-14.45-10.7,10.69-14.45ZM192.02,306.08l.42-8.54-17.96,2.68c-5.05,16.29-19.06,26.58-36.75,29.22-25.01,3.73-47.39-9.03-51.74-38.19l-3.24-21.69,41.44,4.13-1.67,34.29,23.36-3.49-15.23-55.64,40.43-2.65,2.99,20.04,6.77-1.01-2.99-20.04,26.78-10.77,2.07,36.55,12.16-1.81-13.66-45.14,37.27-2.03,11.18,74.89-61.63,9.2ZM361.2,307.67l-17.47-12.93,12.95-17.33,17.31,12.81-12.79,17.45ZM416.06,299.48l-17.47-12.93,12.95-17.33,17.31,12.81-12.79,17.45ZM387.41,268.44l-11.74,1.75-43.12,6.44-11.74,1.75-63.7,9.51-5.96-39.93,49.77-.65-19.4-61.8,35.63-12.1,10.43,69.92,21.56-3.22-11.69-32.86,40.43-2.65,4.56,30.54,21.56-3.22-12.14-35.9,40.4-2.78,10.01,67.01-54.86,8.19Z"/>
</svg>