<?xml version="1.0" encoding="UTF-8"?>
<svg id="Layer_1" xmlns="http://www.w3.org/2000/svg" version="1.1" viewBox="0 0 512 512">
  <!-- Generator: Adobe Illustrator 29.6.1, SVG Export Plug-In . SVG Version: 2.1.1 Build 9)  -->
  <defs>
    <style>
      .st0 {
        fill: #d93f21;
      }

      .st1 {
        fill: #12b347;
      }

      .st2 {
        fill: #0f993e;
      }

      .st3 {
        fill: #ff4b26;
      }

      .st4 {
        fill: #ffd500;
      }

      .st5 {
        fill: #167ee6;
      }
    </style>
  </defs>
  <path class="st5" d="M487.12,212.53h-203.95c-9.01,0-16.31,7.29-16.31,16.29v65.15c0,9,7.3,16.3,16.3,16.3h114.85c-12.58,32.64-36.05,59.97-66,77.34l48.97,84.77c78.56-45.43,125-125.15,125-214.38,0-12.71-.94-21.79-2.81-32.02-1.42-7.77-8.17-13.46-16.07-13.46h0Z"/>
  <path class="st1" d="M256,408.17c-56.21,0-105.27-30.71-131.62-76.15l-84.77,48.86c43.14,74.77,123.95,125.12,216.4,125.12,45.35,0,88.14-12.21,125-33.49v-.12l-48.97-84.78c-22.4,12.99-48.32,20.55-76.03,20.55h0Z"/>
  <path class="st2" d="M381,472.51v-.12l-48.97-84.78c-22.4,12.99-48.32,20.55-76.03,20.55v97.83c45.35,0,88.14-12.21,125-33.49Z"/>
  <path class="st4" d="M103.83,256c0-27.7,7.56-53.62,20.55-76.02l-84.77-48.86C18.21,167.86,6,210.54,6,256s12.21,88.14,33.6,124.88l84.77-48.86c-12.99-22.4-20.55-48.32-20.55-76.02h0Z"/>
  <path class="st3" d="M256,103.83c36.65,0,70.32,13.02,96.61,34.69,6.49,5.34,15.92,4.96,21.86-.98l46.16-46.16c6.74-6.74,6.26-17.78-.94-24.03C375.64,29.12,318.31,6,256,6c-92.44,0-173.26,50.35-216.4,125.12l84.77,48.86c26.35-45.44,75.42-76.15,131.62-76.15Z"/>
  <path class="st0" d="M352.61,138.51c6.49,5.34,15.92,4.96,21.86-.98l46.16-46.16c6.74-6.74,6.26-17.78-.94-24.03C375.64,29.12,318.31,6,256,6v97.83c36.65,0,70.32,13.02,96.61,34.69h0Z"/>
</svg>