<?xml version="1.0" encoding="UTF-8"?>
<svg id="Layer_1" xmlns="http://www.w3.org/2000/svg" version="1.1" viewBox="0 0 512 512">
  <!-- Generator: Adobe Illustrator 30.0.0, SVG Export Plug-In . SVG Version: 2.1.1 Build 72)  -->
  <defs>
    <style>
      .st0 {
        fill: #ef3733;
      }
    </style>
  </defs>
  <path class="st0" d="M506,183.8c0,42.28-15.73,81.04-49.58,121.83-30.25,36.54-73.73,73.64-124.14,116.56-17.21,14.62-36.73,31.27-56.98,48.94-5.27,4.72-12.21,7.31-19.33,7.31s-13.97-2.59-19.33-7.31c-20.17-17.67-39.59-34.23-56.8-48.84l-.09-.09c-50.42-42.92-93.9-80.02-124.14-116.56C21.73,264.83,6,226.07,6,183.8s14.06-79,39.69-106.66c25.81-28.12,61.33-43.57,100-43.57,28.86,0,55.32,9.16,78.54,27.1,11.75,9.07,22.39,20.17,31.73,33.21,9.44-13.04,20.07-24.14,31.82-33.21,23.22-17.95,49.68-27.1,78.54-27.1,38.57,0,74.1,15.45,100,43.57,25.62,27.66,39.68,65.59,39.68,106.66Z"/>
</svg>