<?xml version="1.0" encoding="UTF-8"?>
<svg id="Layer_1" xmlns="http://www.w3.org/2000/svg" version="1.1" viewBox="0 0 512 512">
  <!-- Generator: Adobe Illustrator 30.0.0, SVG Export Plug-In . SVG Version: 2.1.1 Build 72)  -->
  <defs>
    <style>
      .st0 {
        fill: #010101;
      }
    </style>
  </defs>
  <path class="st0" d="M256,478.42c-7.12,0-13.98-2.58-19.33-7.26-20.2-17.66-39.67-34.26-56.85-48.9l-.09-.08c-50.37-42.93-93.87-80-124.14-116.52C21.76,264.84,6,226.13,6,183.85s14.09-78.99,39.67-106.73c25.88-28.07,61.4-43.53,100.01-43.53,28.86,0,55.29,9.12,78.56,27.12,11.74,9.08,22.38,20.2,31.76,33.16,9.38-12.97,20.02-24.08,31.76-33.16,23.27-17.99,49.7-27.12,78.56-27.12,38.61,0,74.13,15.46,100.01,43.53,25.58,27.74,39.66,65.65,39.66,106.73s-15.75,80.99-49.59,121.81c-30.27,36.52-73.76,73.59-124.13,116.51-17.21,14.66-36.72,31.29-56.96,48.99-5.34,4.68-12.21,7.26-19.33,7.26ZM145.68,62.87c-30.34,0-58.21,12.11-78.48,34.1-20.58,22.32-31.91,53.17-31.91,86.88,0,35.56,13.22,67.37,42.85,103.13,28.64,34.56,71.25,70.87,120.58,112.92l.09.08c17.25,14.7,36.8,31.36,57.14,49.15,20.47-17.83,40.05-34.52,57.33-49.24,49.33-42.04,91.93-78.34,120.57-112.91,29.63-35.76,42.85-67.57,42.85-103.13,0-33.71-11.33-64.56-31.91-86.88-20.27-21.99-48.15-34.1-78.48-34.1-22.22,0-42.63,7.06-60.65,21-16.06,12.42-27.24,28.12-33.8,39.11-3.37,5.65-9.31,9.02-15.88,9.02s-12.51-3.37-15.88-9.02c-6.55-10.99-17.74-26.69-33.8-39.11-18.02-13.93-38.42-21-60.64-21Z"/>
</svg>