<?xml version="1.0" encoding="UTF-8"?>
<svg id="Layer_1" xmlns="http://www.w3.org/2000/svg" version="1.1" viewBox="0 0 512 512">
  <!-- Generator: Adobe Illustrator 29.6.1, SVG Export Plug-In . SVG Version: 2.1.1 Build 9)  -->
  <path d="M490.73,201.99c-18.8-30.79-42.52-58.29-70.2-81.41l58.31-58.31c7.99-8.27,7.76-21.46-.51-29.45-8.07-7.79-20.87-7.79-28.94,0l-63.41,63.5c-39.31-23.35-84.25-35.52-129.97-35.19-128.93,0-202.4,88.26-234.73,140.86-20.37,32.94-20.37,74.56,0,107.5,18.8,30.79,42.52,58.29,70.2,81.41l-58.31,58.31c-8.27,7.99-8.5,21.17-.51,29.45,7.99,8.27,21.17,8.5,29.45.51.17-.17.34-.34.51-.51l63.56-63.56c39.26,23.35,84.15,35.54,129.83,35.26,128.93,0,202.4-88.26,234.73-140.86,20.37-32.94,20.37-74.56,0-107.5h0ZM131.05,255.74c-.12-68.9,55.64-124.84,124.53-124.96,26.07-.04,51.49,8.08,72.71,23.23l-30.24,30.24c-12.69-7.66-27.22-11.74-42.05-11.81-46.01,0-83.3,37.3-83.3,83.3.07,14.82,4.15,29.35,11.81,42.05l-30.24,30.24c-15.1-21.08-23.22-46.36-23.22-72.29h0ZM256,380.7c-25.93,0-51.21-8.12-72.29-23.22l30.24-30.24c12.69,7.66,27.22,11.74,42.05,11.81,46.01,0,83.3-37.3,83.3-83.3-.07-14.82-4.15-29.35-11.81-42.05l30.24-30.24c40.04,56.07,27.04,133.98-29.02,174.01-21.21,15.15-46.64,23.27-72.71,23.23h0Z"/>
</svg>