<?xml version="1.0" encoding="UTF-8"?>
<svg id="Layer_1" xmlns="http://www.w3.org/2000/svg" version="1.1" viewBox="0 0 512 512">
  <!-- Generator: Adobe Illustrator 29.6.1, SVG Export Plug-In . SVG Version: 2.1.1 Build 9)  -->
  <defs>
    <style>
      .st0 {
        fill: #fff;
      }
    </style>
  </defs>
  <path class="st0" d="M275.12,351.63l-76.5,76.5s0,0,0,0c0,0,0,0,0,0-31.64,31.64-83.11,31.64-114.75,0-15.33-15.33-23.77-35.71-23.77-57.38s8.44-42.05,23.76-57.37c0,0,0,0,0,0l76.5-76.5c10.56-10.56,10.56-27.69,0-38.25-10.56-10.56-27.69-10.56-38.25,0l-76.5,76.5s-.01.01-.02.02c-25.53,25.54-39.59,59.5-39.59,95.61s14.07,70.09,39.61,95.63c26.37,26.37,61,39.55,95.63,39.55s69.27-13.18,95.63-39.55h0s0,0,0,0l76.5-76.5c10.56-10.56,10.56-27.69,0-38.25-10.56-10.56-27.69-10.56-38.25,0Z"/>
  <path class="st0" d="M506,141.24c0-36.12-14.07-70.09-39.61-95.63-52.73-52.73-138.53-52.73-191.26,0,0,0,0,0,0,0l-76.5,76.5c-10.56,10.56-10.56,27.69,0,38.25,5.28,5.28,12.2,7.92,19.13,7.92s13.85-2.64,19.13-7.92l76.5-76.5s0,0,0,0c31.64-31.64,83.11-31.64,114.75,0,15.33,15.33,23.77,35.71,23.77,57.38s-8.44,42.05-23.76,57.37c0,0,0,0,0,0l-76.5,76.5c-10.56,10.56-10.56,27.69,0,38.25,5.28,5.28,12.2,7.92,19.13,7.92s13.85-2.64,19.13-7.92l76.5-76.5s.01-.01.02-.02c25.53-25.54,39.6-59.5,39.6-95.61Z"/>
  <path class="st0" d="M160.37,351.63c5.28,5.28,12.2,7.92,19.13,7.92s13.85-2.64,19.13-7.92l153.01-153.01c10.56-10.56,10.56-27.69,0-38.25-10.56-10.56-27.69-10.56-38.25,0l-153.01,153.01c-10.56,10.57-10.56,27.69,0,38.25Z"/>
</svg>