<svg id="Capa_1" enable-background="new 0 0 512 512" viewBox="0 0 512 512" xmlns="http://www.w3.org/2000/svg" xmlns:xlink="http://www.w3.org/1999/xlink"><linearGradient id="lg1"><stop offset="0" stop-color="#ffa1ae"/><stop offset="1" stop-color="#ff4565"/></linearGradient><linearGradient id="SVGID_1_" gradientUnits="userSpaceOnUse" x1="55.801" x2="378.892" xlink:href="#lg1" y1="256" y2="256"/><linearGradient id="SVGID_00000015314750684993377930000009621701147317880990_" gradientUnits="userSpaceOnUse" x1="354.552" x2="168.693" xlink:href="#lg1" y1="297.951" y2="112.093"/><linearGradient id="lg2"><stop offset="0" stop-color="#fe0364" stop-opacity="0"/><stop offset=".2343" stop-color="#f90362" stop-opacity=".234"/><stop offset=".5173" stop-color="#ea035b" stop-opacity=".517"/><stop offset=".8243" stop-color="#d20250" stop-opacity=".824"/><stop offset="1" stop-color="#c00148"/></linearGradient><linearGradient id="SVGID_00000173154391823883154810000016338320486268795797_" gradientUnits="userSpaceOnUse" x1="308.188" x2="386.568" xlink:href="#lg2" y1="304.282" y2="367.857"/><linearGradient id="SVGID_00000160874946902386848020000000772764975604742577_" gradientUnits="userSpaceOnUse" x1="335.335" x2="438.1" xlink:href="#lg2" y1="267.166" y2="282.842"/><linearGradient id="SVGID_00000036239476463065018470000006762253948973634199_" gradientUnits="userSpaceOnUse" x1="384.072" x2="450.26" xlink:href="#lg2" y1="207.163" y2="183.649"/><linearGradient id="SVGID_00000031183351864512189430000013174897316145231295_" gradientUnits="userSpaceOnUse" x1="218.808" x2="282.272" y1="162.211" y2="225.675"><stop offset="0" stop-color="#f5fbff"/><stop offset="1" stop-color="#dbd5ef"/></linearGradient><linearGradient id="lg3"><stop offset="0" stop-color="#dbd5ef" stop-opacity="0"/><stop offset=".2853" stop-color="#d9d2ee" stop-opacity=".285"/><stop offset=".4739" stop-color="#d4c9e9" stop-opacity=".474"/><stop offset=".6346" stop-color="#cbbae2" stop-opacity=".635"/><stop offset=".7795" stop-color="#bfa5d7" stop-opacity=".78"/><stop offset=".9126" stop-color="#af8aca" stop-opacity=".913"/><stop offset="1" stop-color="#a274bf"/></linearGradient><linearGradient id="SVGID_00000098908073633708022670000013319768010528971165_" gradientUnits="userSpaceOnUse" x1="255.997" x2="255.997" xlink:href="#lg3" y1="195.713" y2="273.649"/><linearGradient id="SVGID_00000152978623123662735350000017033151365666464958_" gradientUnits="userSpaceOnUse" x1="251.358" x2="313.615" xlink:href="#lg3" y1="195.398" y2="249.101"/><g><path d="m257.414.005c-110.781-.782-200.818 88.791-200.818 199.388 0 44.994 14.904 86.494 40.022 119.858l128.984 177.264c15.014 20.646 45.776 20.646 60.79 0l128.984-177.264c24.812-32.961 39.668-73.862 40.022-118.209.879-109.754-88.229-200.279-197.984-201.037zm-1.417 309.094c-60.583 0-109.694-49.111-109.694-109.706 0-60.582 49.111-109.693 109.694-109.693s109.693 49.111 109.693 109.693c0 60.595-49.111 109.706-109.693 109.706z" fill="url(#SVGID_1_)"/><path d="m255.997 58.584c-77.771 0-140.822 63.038-140.822 140.809 0 77.772 63.05 140.822 140.822 140.822s140.822-63.05 140.822-140.822c-.001-77.771-63.051-140.809-140.822-140.809zm0 239.716c-54.621 0-98.894-44.285-98.894-98.906s44.273-98.894 98.894-98.894 98.894 44.273 98.894 98.894c0 54.62-44.273 98.906-98.894 98.906z" fill="url(#SVGID_00000015314750684993377930000009621701147317880990_)"/><path d="m354.891 199.393c0 54.621-44.273 98.906-98.894 98.906s-98.894-44.285-98.894-98.906c0-14.194 3.012-27.677 8.396-39.879h-104.909c-2.616 12.886-3.994 26.221-3.994 39.879 0 44.994 14.904 86.494 40.022 119.858l128.984 177.264c15.014 20.646 45.776 20.646 60.79 0l128.984-177.264c24.812-32.961 39.668-73.862 40.022-118.209.114-14.218-1.294-28.109-4.05-41.528h-104.854c5.385 12.202 8.397 25.685 8.397 39.879z" fill="url(#SVGID_00000173154391823883154810000016338320486268795797_)"/><path d="m257.414.005c-11.729-.083-23.221.858-34.402 2.718v103.432c10.319-3.65 21.415-5.656 32.985-5.656 54.621 0 98.894 44.273 98.894 98.894s-44.273 98.906-98.894 98.906c-11.57 0-22.666-2.006-32.985-5.657v200.313l2.59 3.559c15.014 20.646 45.776 20.646 60.79 0l128.984-177.264c24.812-32.961 39.668-73.862 40.022-118.209.879-109.753-88.229-200.278-197.984-201.036z" fill="url(#SVGID_00000160874946902386848020000000772764975604742577_)"/><path d="m257.414.005c-11.729-.083-23.221.858-34.402 2.718v103.432c10.319-3.65 21.415-5.656 32.985-5.656 54.621 0 98.894 44.273 98.894 98.894s-44.273 98.906-98.894 98.906c-11.57 0-22.666-2.006-32.985-5.657v200.313l2.59 3.559c15.014 20.646 45.776 20.646 60.79 0l128.984-177.264c24.812-32.961 39.668-73.862 40.022-118.209.879-109.753-88.229-200.278-197.984-201.036z" fill="url(#SVGID_00000036239476463065018470000006762253948973634199_)"/><g><g><circle cx="255.997" cy="199.4" fill="url(#SVGID_00000031183351864512189430000013174897316145231295_)" r="71.477"/><path d="m184.519 199.4c0 39.476 32.001 71.477 71.477 71.477s71.477-32.002 71.477-71.477c0-8.55-1.506-16.746-4.259-24.345h-134.436c-2.753 7.599-4.259 15.795-4.259 24.345z" fill="url(#SVGID_00000098908073633708022670000013319768010528971165_)"/><path d="m205.455 249.942c27.914 27.914 73.171 27.914 101.084 0 27.914-27.914 27.914-73.171 0-101.084-6.045-6.045-12.906-10.776-20.226-14.203l-95.061 95.061c3.427 7.32 8.157 14.18 14.203 20.226z" fill="url(#SVGID_00000152978623123662735350000017033151365666464958_)"/></g></g></g><g/><g/><g/><g/><g/><g/><g/><g/><g/><g/><g/><g/><g/><g/><g/></svg>