<?xml version="1.0" encoding="UTF-8"?>
<svg id="Layer_1" xmlns="http://www.w3.org/2000/svg" version="1.1" viewBox="0 0 512 427.21">
  <!-- Generator: Adobe Illustrator 29.6.1, SVG Export Plug-In . SVG Version: 2.1.1 Build 9)  -->
  <defs>
    <style>
      .st0 {
        fill: #6b1f2a;
      }

      .st1 {
        fill: #edebe0;
      }
    </style>
  </defs>
  <path class="st0" d="M63.25-42.4h404.32v507.93H63.25c-10.38,0-18.81-8.43-18.81-18.81V-23.59c0-10.38,8.43-18.81,18.81-18.81Z" transform="translate(44.44 467.56) rotate(-90)"/>
  <g>
    <path class="st1" d="M45.13,197.25c6.01,5.36,14.45,8.04,25.33,8.04s19.4-2.88,25.33-8.65c5.92-5.76,9.29-13.8,10.11-24.11,3.41,4.39,8.32,6.58,14.74,6.58h99.2s0,0,0,0,0,0,0,0h94.5s0,0,0,0,0,0,0,0h23.19c8.93,0,15.65-2.07,20.15-6.21,4.51-4.14,6.76-10.11,6.76-17.9v-36.78l-13.27,1.83.12,30.81c0,9.5-4.55,14.25-13.64,14.25-.02,0-.04,0-.06,0-.02,0-.04,0-.06,0h-23.19s0,0,0,0,0,0,0,0h-94.5s0,0,0,0,0,0,0,0h-99.2c-3.9,0-7.27-1.09-10.11-3.29-2.84-2.19-4.26-5.24-4.26-9.13v-63.08l-13.28,1.83v74.41c0,8.69-1.83,15.1-5.48,19.24-3.65,4.14-9.22,6.21-16.69,6.21s-12.79-1.81-16.69-5.42c-3.9-3.61-5.89-8.99-5.97-16.14,0-6.74,1.34-14.21,4.02-22.41l-10.72-2.92c-3.57,10.88-5.36,20.54-5.36,28.98,0,10.55,3,18.51,9.01,23.87Z"/>
    <polygon class="st1" points="340.34 197.74 351.3 208.33 362.02 197.74 351.06 187.02 340.34 197.74"/>
    <path class="st1" d="M408.66,179.11s0,0,0,0h27.4c10.64,0,19.02-2.84,25.15-8.52,6.13-5.68,9.2-13.48,9.2-23.38,0-8.12-2.7-14.88-8.1-20.28-5.4-5.4-12.16-8.1-20.28-8.1-8.6,0-15.59,2.7-20.95,8.1-5.36,5.4-8.04,12.52-8.04,21.37,0,4.55,1.5,10.15,4.51,16.81h-8.89s-.04,0-.06,0c-.02,0-.04,0-.06,0-9.01,0-13.52-4.91-13.52-14.74v-60.16l-13.27,1.83.12,62.23c0,16.56,8.93,24.84,26.79,24.84ZM430.52,136.48c3.04-3.17,6.72-4.75,11.02-4.75s8.18,1.48,11.14,4.45,4.45,6.72,4.45,11.27c0,5.52-1.83,9.84-5.48,12.97-3.65,3.13-8.65,4.69-14.98,4.69h-5.6c-3.41-6.01-5.11-11.77-5.11-17.29,0-4.38,1.52-8.16,4.56-11.33Z"/>
    <polygon class="st1" points="440.93 100.07 451.04 109.93 461.76 99.21 450.92 88.62 440.93 98.36 430.95 88.62 420.23 99.21 431.07 109.93 440.93 100.07"/>
    <polygon class="st1" points="127.58 264.14 138.3 253.42 127.34 242.83 116.62 253.42 127.58 264.14"/>
    <path class="st1" d="M152.91,273.15c-6.09,0-12.4,1.02-18.94,3.04-6.53,2.03-15.81,5.68-27.83,10.96v-13.15l-13.15,1.83v45.79c0,8.69-1.83,15.1-5.48,19.24-3.65,4.14-9.22,6.21-16.69,6.21s-12.79-1.81-16.69-5.42c-3.9-3.61-5.89-8.99-5.97-16.14,0-6.74,1.34-14.21,4.02-22.41l-10.72-2.92c-3.57,10.88-5.36,20.54-5.36,28.98,0,10.55,3,18.51,9.01,23.87,6.01,5.36,14.45,8.04,25.33,8.04,9.74,0,17.49-2.29,23.26-6.88,5.76-4.59,9.54-11.02,11.33-19.3h60.77l10.11-11.69c2.68-10.39,4.02-18.15,4.02-23.26,0-7.87-2.54-14.31-7.61-19.3-5.08-4.99-11.55-7.49-19.42-7.49ZM163.14,320.89h-56.99v-22.04c14.37-5.28,23.99-8.6,28.86-9.99,4.87-1.38,9.86-2.07,14.98-2.07s8.85,1.36,11.94,4.08c3.08,2.72,4.67,6.27,4.75,10.66,0,4.71-1.18,11.16-3.53,19.36Z"/>
    <path class="st1" d="M218.55,275.22c-8.28,0-15.14,2.84-20.58,8.52-5.44,5.68-8.16,12.91-8.16,21.68s2.6,16.18,7.79,21.5c5.2,5.32,12.02,7.98,20.46,7.98,4.3,0,8.89-1.05,13.76-3.17,0,6.41-2.86,11.06-8.59,13.94-5.72,2.88-14.63,4.32-26.73,4.32l1.46,11.08c31.34,0,47.01-9.66,47.01-28.99v-28.5c0-8.52-2.46-15.39-7.37-20.58-4.91-5.2-11.27-7.79-19.06-7.79ZM231.83,319.55c-3.98,1.3-8.08,1.95-12.3,1.95-5.44.16-9.74-1.2-12.91-4.08-3.17-2.88-4.75-7.04-4.75-12.48,0-4.79,1.48-8.69,4.45-11.69,2.96-3,6.64-4.51,11.02-4.51s7.79,1.44,10.47,4.32c2.68,2.88,4.02,6.72,4.02,11.51v14.98Z"/>
    <polygon class="st1" points="322.44 265.72 333.15 255 322.19 244.41 311.47 255 322.44 265.72"/>
    <polygon class="st1" points="370.9 279.48 380.77 269.62 390.88 279.48 401.59 268.77 390.75 258.17 380.77 267.91 370.78 258.17 360.07 268.77 370.9 279.48"/>
    <path class="st1" d="M457.13,306.15c0,9.82-4.51,14.74-13.52,14.74-.07,0-.13.02-.19.02-.06,0-.11-.02-.18-.02-9.01,0-13.52-4.91-13.52-14.74v-60.16l-13.28,1.83.12,62.23c0,2.6.16,4.75.49,6.45-3.82,2.92-8.28,4.38-13.4,4.38,0,0,0,0,0,0s0,0,0,0c-5.76,0-11.12-1.74-16.07-5.24.24-1.62.36-3.25.36-4.87v-23.99l-13.15,1.83v18.02c0,5.04-1.4,8.67-4.2,10.9-2.8,2.23-7.17,3.35-13.09,3.35-.02,0-.04,0-.06,0-.02,0-.04,0-.06,0-6.09,0-11.25-.28-15.47-.85,5.93-5.52,8.89-12.01,8.89-19.48s-2.58-13.35-7.73-18.39c-5.16-5.03-11.71-7.55-19.67-7.55s-14.43,2.5-19.67,7.49c-5.24,4.99-7.86,11.19-7.86,18.57s2.96,14.17,8.89,19.61c-4.06.41-9.38.61-15.95.61-.02,0-.04,0-.06,0-.02,0-.04,0-.06,0-9.01,0-13.52-4.91-13.52-14.74v-60.16l-13.27,1.83.12,62.23c0,16.56,8.93,24.84,26.8,24.84,13.8,0,25.53-1.62,35.2-4.87,10.64,3.25,21.76,4.87,33.37,4.87,12.5,0,21.15-3,25.94-9.01,6.25,6.01,13.03,9.01,20.34,9.01,0,0,0,0,0,0s0,0,0,0c6.33,0,12.34-2.6,18.02-7.79,4.3,5.2,11.53,7.79,21.68,7.79.02,0,.04,0,.06,0,.02,0,.04,0,.06,0,17.94,0,26.91-8.28,26.91-24.84v-64.06l-13.15,1.83-.12,58.33ZM333.94,312c-2.72,3.09-6.31,5.44-10.78,7.06-4.39-1.38-7.9-3.61-10.54-6.7-2.64-3.08-3.96-6.49-3.96-10.23,0-4.3,1.34-7.81,4.02-10.53,2.68-2.72,6.13-4.08,10.35-4.08s7.77,1.38,10.66,4.14c2.88,2.76,4.32,6.25,4.32,10.47,0,3.49-1.36,6.78-4.08,9.86Z"/>
  </g>
</svg>