<?xml version="1.0" encoding="UTF-8"?>
<svg id="Layer_1" xmlns="http://www.w3.org/2000/svg" version="1.1" viewBox="0 0 512 512">
  <!-- Generator: Adobe Illustrator 29.6.1, SVG Export Plug-In . SVG Version: 2.1.1 Build 9)  -->
  <path d="M420.31,207.15c-7.54-8.66-6.63-21.79,2.03-29.33.02-.01.03-.03.05-.04,8.66-7.54,21.79-6.63,29.33,2.04.01.02.03.03.04.05,22.29,25.83,38.54,56.45,48.33,91.24,3.11,11.04-3.32,22.51-14.36,25.62,0,0,0,0,0,0-10.98,3.14-22.43-3.22-25.57-14.2-.02-.06-.03-.11-.05-.17-7.6-27.74-21.18-53.47-39.79-75.4v.21ZM504.89,366.71c-28.33,84.99-89.78,97.48-123.94,97.48-29.37,0-54.99-12.91-76.24-32.29-24.58,19.37-54.78,32.29-90.4,32.29s-67.07-19.79-96.44-49.99c-26.04,25-69.36,49.99-91.03,49.99-9.58,0-18.33-6.87-20.41-16.66-2.29-11.25,5-22.29,16.25-24.58,23.95-5,47.08-20,68.11-40.83C40.17,314.01,6,219.44,6,162.37c0-61.03,52.91-114.57,113.11-114.57s116.02,54.57,116.02,114.57c0,56.03-34.37,151.85-89.36,221.01,22.5,23.95,46.24,39.37,68.53,39.37,24.37,0,45.62-8.75,62.91-22.08-27.29-38.74-42.08-85.82-42.08-114.15,0-38.33,34.16-71.86,73.11-71.86s72.7,33.54,72.7,71.86c0,31.45-16.04,78.53-46.45,116.23,13.96,12.29,29.58,20.21,46.45,20.21,40.62,0,69.16-23.33,84.36-69.16,3.54-10.83,15.41-16.87,26.45-13.12,10.83,3.54,16.87,15.41,13.12,26.45v-.42ZM193.48,162.37c0-37.49-36.24-72.91-74.36-72.91s-71.45,34.79-71.45,72.91c0,49.78,30.62,129.15,71.03,187.26,44.58-59.99,74.78-141.44,74.78-187.26ZM307,369.84c21.25-29.16,32.29-63.53,32.29-83.32,0-15.21-15.41-30.2-31.04-30.2s-31.45,15.21-31.45,30.2c0,19.79,11.46,54.16,30.2,83.32Z"/>
</svg>