<?xml version="1.0" encoding="UTF-8"?>
<svg id="Layer_1" xmlns="http://www.w3.org/2000/svg" version="1.1" viewBox="0 0 512 512">
  <!-- Generator: Adobe Illustrator 29.6.1, SVG Export Plug-In . SVG Version: 2.1.1 Build 9)  -->
  <defs>
    <style>
      .st0 {
        fill: #fbfbfb;
      }

      .st1 {
        fill: #febd55;
      }

      .st2 {
        fill: #e03e3e;
      }

      .st3 {
        fill: #fc9e20;
      }
    </style>
  </defs>
  <path class="st1" d="M310.18,505.98c20.59.3,41-3.82,59.85-12.1,43.82-18.29,72.1-61.39,71.44-108.87,0-72.58-16.13-88.71-40.32-137.09-24.19-48.38,0-96.77,0-96.77-19.34,4.9-36.42,16.29-48.38,32.26C352.76,14.06,239.87,6,239.87,6c13.68,37.98,7.64,80.27-16.13,112.9-40.32,56.45-80.64,88.71-96.77,153.22,0,0-32.26-16.13-24.19-48.38,0,0-32.26,56.45-32.26,145.15,0,97.27,77.92,125.8,116.27,133.95,10.2,2.13,20.6,3.18,31.01,3.15h92.37Z"/>
  <path class="st3" d="M198.27,505.98s-83.19-31.19-83.19-124.78c0-103.98,72.16-141.33,72.16-141.33,0,0-20.16,37.35.64,47.75,0,0,34.8-113.33,128.39-144.52,0,0-32.68,34.38-11.89,96.77,20.8,62.39,91.25,76.4,92.53,145.15v8.06c.82,23.35-5.36,46.41-17.74,66.23-16.03,24.97-34.54,46.67-76.91,46.67h-103.99Z"/>
  <path class="st2" d="M207.61,505.98c-39.03-16.32-64.46-54.46-64.51-96.77,0-80.64,40.32-112.9,40.32-112.9,0,0,0,32.26,16.13,40.32,0,0,16.13-112.9,88.71-137.09,0,0-24.19,16.13-8.06,64.51,16.13,48.38,88.71,64.51,88.71,145.15v7.02c.29,18.89-4.84,37.48-14.77,53.55-13.86,23.02-39.01,36.84-65.88,36.19h-80.64Z"/>
  <path class="st0" d="M207.61,465.66c-4.45,0-8.06-3.61-8.06-8.07,0-2.14.85-4.19,2.36-5.7l96.77-96.77c3.2-3.09,8.31-3.01,11.4.2,3.02,3.13,3.02,8.08,0,11.21l-96.77,96.77c-1.51,1.51-3.56,2.36-5.7,2.36Z"/>
  <path class="st0" d="M280.19,473.72c-13.36,0-24.19-10.83-24.19-24.19s10.83-24.19,24.19-24.19,24.19,10.83,24.19,24.19-10.83,24.19-24.19,24.19ZM280.19,441.46c-4.45,0-8.06,3.61-8.06,8.06s3.61,8.06,8.06,8.06,8.06-3.61,8.06-8.06-3.61-8.06-8.06-8.06Z"/>
  <path class="st0" d="M231.8,393.08c-13.36,0-24.19-10.83-24.19-24.19s10.83-24.19,24.19-24.19,24.19,10.83,24.19,24.19-10.83,24.19-24.19,24.19ZM231.8,360.82c-4.45,0-8.06,3.61-8.06,8.06s3.61,8.06,8.06,8.06,8.06-3.61,8.06-8.06-3.61-8.06-8.06-8.06Z"/>
</svg>