<?xml version="1.0" encoding="UTF-8"?>
<svg id="Layer_1" xmlns="http://www.w3.org/2000/svg" version="1.1" viewBox="0 0 512 512">
  <!-- Generator: Adobe Illustrator 29.6.1, SVG Export Plug-In . SVG Version: 2.1.1 Build 9)  -->
  <defs>
    <style>
      .st0 {
      }
    </style>
  </defs>
  <path class="st0" d="M255.99,505.99c-32.06,0-62.29-14.08-82.96-38.63-1.98-2.35-4.56-3.44-7.83-3.23-31.83,2.65-63.32-8.69-85.98-31.36-22.67-22.67-34.11-54-31.36-85.98.27-3.06-.9-5.85-3.23-7.81-24.56-20.69-38.63-50.94-38.63-82.98s14.08-62.29,38.63-82.96c2.35-1.98,3.52-4.77,3.25-7.83-2.75-31.98,8.69-63.32,31.36-85.98,22.65-22.65,53.84-34.13,85.98-31.36,3.02.25,5.85-.88,7.83-3.23,20.67-24.56,50.9-38.63,82.96-38.63s62.29,14.08,82.96,38.63c2,2.35,4.58,3.44,7.83,3.23,31.69-2.79,63.32,8.69,85.98,31.36,22.67,22.67,34.11,54,31.36,85.98-.27,3.06.9,5.85,3.23,7.81,24.56,20.69,38.63,50.94,38.63,82.98s-14.08,62.29-38.63,82.96c-2.35,1.98-3.52,4.77-3.25,7.83,2.75,31.98-8.69,63.32-31.36,85.98-22.65,22.65-53.79,34.17-85.98,31.36-3-.17-5.85.9-7.83,3.23-20.67,24.56-50.9,38.63-82.96,38.63h0ZM166.11,443.24c8.85,0,17.06,3.81,22.88,10.71,16.69,19.83,41.13,31.21,67.02,31.21s50.34-11.38,67.02-31.21c6.38-7.58,15.77-11.54,25.58-10.58,25.86,2.19,51.15-7.02,69.46-25.33,18.31-18.31,27.54-43.63,25.33-69.48-.83-9.88,3.02-19.17,10.6-25.54,19.81-16.71,31.19-41.15,31.19-67.02s-11.38-50.34-31.21-67.04c-7.56-6.35-11.42-15.67-10.58-25.54,2.21-25.86-7.02-51.17-25.33-69.48-18.33-18.31-43.81-27.56-69.46-25.33-10,.83-19.19-3-25.58-10.58-16.69-19.83-41.13-31.21-67.02-31.21s-50.34,11.38-67.02,31.21c-6.4,7.58-15.88,11.4-25.58,10.58-25.9-2.23-51.15,7.02-69.46,25.33-18.31,18.31-27.54,43.63-25.33,69.48.83,9.88-3.02,19.17-10.6,25.54-19.81,16.71-31.19,41.15-31.19,67.02s11.38,50.34,31.21,67.04c7.56,6.35,11.42,15.67,10.58,25.54-2.21,25.86,7.02,51.17,25.33,69.48,18.31,18.31,43.73,27.46,69.46,25.33.92-.08,1.81-.13,2.71-.13h0ZM193.49,172.64c-11.5,0-20.83,9.33-20.83,20.83s9.33,20.83,20.83,20.83,20.83-9.33,20.83-20.83-9.33-20.83-20.83-20.83ZM318.49,297.65c-11.5,0-20.83,9.33-20.83,20.83s9.33,20.83,20.83,20.83,20.83-9.33,20.83-20.83-9.33-20.83-20.83-20.83ZM212.57,345.09l104.17-156.26c3.19-4.79,1.9-11.25-2.9-14.44-4.75-3.17-11.23-1.9-14.44,2.9l-104.17,156.26c-3.19,4.79-1.9,11.25,2.9,14.44,1.77,1.19,3.79,1.75,5.77,1.75,3.35,0,6.65-1.63,8.67-4.65h0Z"/>
</svg>