<?xml version="1.0" encoding="UTF-8"?>
<svg id="Layer_1" xmlns="http://www.w3.org/2000/svg" version="1.1" viewBox="0 0 512 512">
  <!-- Generator: Adobe Illustrator 29.6.1, SVG Export Plug-In . SVG Version: 2.1.1 Build 9)  -->
  <path d="M140.7,470.24c-11.51,0-20.83-9.33-20.83-20.84,0-7.31,3.83-14.08,10.1-17.85,73.81-44.33,73.81-139.53,73.81-196.4,0-34.52,27.98-62.5,62.5-62.5s62.5,27.98,62.5,62.5c0,11.51-9.33,20.83-20.83,20.83s-20.83-9.33-20.83-20.83-9.33-20.83-20.83-20.83-20.83,9.33-20.83,20.83c0,61.39,0,175.7-94.03,232.13-3.24,1.94-6.94,2.96-10.71,2.96ZM244.09,499.84c47.54-47.91,75.31-115.28,82.51-200.42,1.02-11.46-7.44-21.58-18.9-22.6-.02,0-.05,0-.07,0-11.25-1.15-21.31,7.03-22.46,18.28-.02.23-.04.46-.06.7-6.48,76.18-29.56,133.32-70.58,174.59-8.11,8.16-8.07,21.36.09,29.47,8.16,8.11,21.36,8.07,29.47-.09v.08ZM352.41,495.96c12.64-21,23.16-43.19,31.41-66.27,3.65-10.91-2.24-22.71-13.15-26.36-10.55-3.53-22.02,1.86-26.04,12.24-7.33,20.46-16.67,40.14-27.87,58.77-5.97,9.84-2.83,22.66,7.01,28.63,9.84,5.97,22.66,2.83,28.63-7.01h0ZM401.68,364.12c7.72-42.54,11.21-85.74,10.42-128.97-.05-80.54-65.38-145.78-145.92-145.72-41.41.03-80.86,17.66-108.5,48.5-7.92,8.34-7.58,21.53.77,29.45,8.34,7.92,21.53,7.58,29.45-.77.28-.29.54-.59.8-.89,38.39-42.84,104.24-46.46,147.08-8.07,22.03,19.74,34.63,47.92,34.65,77.51.77,40.56-2.46,81.09-9.62,121.01-2.19,11.29,5.17,22.21,16.46,24.41,1.32.26,2.67.4,4.02.4,9.95-.03,18.49-7.09,20.39-16.85h0ZM162.11,235.15c0-5.81.47-11.62,1.44-17.35,2.53-11.22-4.52-22.37-15.74-24.9-11.22-2.53-22.37,4.52-24.9,15.74-.16.73-.29,1.46-.37,2.2-1.38,8.03-2.07,16.16-2.08,24.31,0,96.76-28.04,145.82-83.33,145.82-11.51,0-20.83,9.33-20.83,20.83s9.33,20.83,20.83,20.83c80.6,0,124.99-66.66,124.99-187.49ZM447.51,493.76c34.28-81.78,50.62-169.97,47.91-258.61.1-34.6-7.74-68.77-22.91-99.87-5.03-10.35-17.51-14.67-27.86-9.63-10.35,5.03-14.67,17.51-9.63,27.86h0c12.4,25.43,18.81,53.35,18.75,81.64,2.62,82.68-12.43,164.96-44.14,241.36-4.74,10.48-.09,22.82,10.39,27.57h.03c2.7,1.25,5.63,1.89,8.6,1.89,8.14-.03,15.51-4.8,18.87-12.21ZM78.79,297.65v-62.5c.11-103.5,83.99-187.37,187.49-187.49,40.59-.14,80.1,13.04,112.49,37.5,9.2,6.9,22.26,5.04,29.16-4.17,6.9-9.2,5.04-22.26-4.17-29.16-39.59-29.88-87.88-45.98-137.49-45.83-126.49.15-229,102.66-229.15,229.15v62.5c0,11.51,9.33,20.83,20.83,20.83s20.83-9.33,20.83-20.83Z"/>
</svg>