<svg id="Capa_1" enable-background="new 0 0 548.253 548.253" height="512" viewBox="0 0 548.253 548.253" width="512" xmlns="http://www.w3.org/2000/svg"><g><g id="Icon_35_" clip-rule="evenodd" fill-rule="evenodd"><path d="m497.252 44.625v484.5c0 7.089-3.927 13.592-10.2 16.906-6.273 3.315-13.846 2.882-19.712-1.122l-63.622-43.426-60.155 43.172c-7.217 5.202-17.06 4.717-23.741-1.148l-45.696-39.958-45.696 39.958c-6.681 5.865-16.524 6.35-23.74 1.148l-60.155-43.172-63.622 43.426c-5.865 4.003-13.438 4.437-19.712 1.122-6.273-3.315-10.2-9.818-10.2-16.906v-484.5c.001-24.633 19.967-44.625 44.626-44.625h357c24.658 0 44.625 19.992 44.625 44.625zm-38.25 0c0-3.519-2.856-6.375-6.375-6.375h-357c-3.519 0-6.375 2.856-6.375 6.375v448.29l44.778-30.574c6.63-4.539 15.402-4.437 21.93.255l58.701 42.151 46.869-41.004c7.216-6.324 17.978-6.324 25.194 0l46.869 41.004 58.701-42.151c6.528-4.692 15.3-4.794 21.93-.255l44.778 30.574z"/><path d="m172.127 140.25c-10.557 0-19.125-8.568-19.125-19.125s8.568-19.125 19.125-19.125h204c10.557 0 19.125 8.568 19.125 19.125s-8.568 19.125-19.125 19.125z"/><path d="m172.127 242.25c-10.557 0-19.125-8.568-19.125-19.125s8.568-19.125 19.125-19.125h204c10.557 0 19.125 8.568 19.125 19.125s-8.568 19.125-19.125 19.125z"/><path d="m172.127 344.25c-10.557 0-19.125-8.568-19.125-19.125s8.568-19.125 19.125-19.125h102c10.557 0 19.125 8.568 19.125 19.125s-8.568 19.125-19.125 19.125z"/></g></g></svg>