<?xml version="1.0" encoding="UTF-8"?>
<svg id="Layer_1" xmlns="http://www.w3.org/2000/svg" version="1.1" viewBox="0 0 512 512">
  <!-- Generator: Adobe Illustrator 29.6.1, SVG Export Plug-In . SVG Version: 2.1.1 Build 9)  -->
  <defs>
    <style>
      .st0 {
        opacity: .5;
      }
    </style>
  </defs>
  <g class="st0">
    <path d="M500.16,470.72l-124.25-124.25c72.89-89.14,59.71-220.49-29.43-293.38C257.33-19.79,125.98-6.62,53.09,82.53-19.79,171.67-6.62,303.02,82.53,375.91c76.78,62.78,187.16,62.78,263.95,0l124.25,124.25c8.27,7.99,21.45,7.76,29.43-.51,7.79-8.07,7.79-20.86,0-28.92ZM214.83,381.36c-91.97,0-166.53-74.56-166.53-166.53S122.86,48.3,214.83,48.3s166.53,74.56,166.53,166.53c-.1,91.93-74.6,166.42-166.53,166.53Z"/>
  </g>
</svg>