<?xml version="1.0" encoding="UTF-8"?>
<svg id="Layer_1" xmlns="http://www.w3.org/2000/svg" version="1.1" viewBox="0 0 512 512">
  <!-- Generator: Adobe Illustrator 30.0.0, SVG Export Plug-In . SVG Version: 2.1.1 Build 72)  -->
  <defs>
    <style>
      .st0 {
        fill: #f6f6f6;
      }
    </style>
  </defs>
  <path class="st0" d="M256,6C118.15,6,6,118.15,6,256s112.15,250,250,250h250v-250c0-137.85-112.15-250-250-250ZM485.17,485.17h-229.17c-126.35,0-229.17-102.81-229.17-229.17S129.65,26.83,256,26.83s229.17,102.81,229.17,229.17v229.17ZM276.83,256c0,11.5-9.33,20.83-20.83,20.83s-20.83-9.33-20.83-20.83,9.33-20.83,20.83-20.83,20.83,9.33,20.83,20.83ZM381,256c0,11.5-9.33,20.83-20.83,20.83s-20.83-9.33-20.83-20.83,9.33-20.83,20.83-20.83,20.83,9.33,20.83,20.83ZM172.67,256c0,11.5-9.33,20.83-20.83,20.83s-20.83-9.33-20.83-20.83,9.33-20.83,20.83-20.83,20.83,9.33,20.83,20.83Z"/>
</svg>