<?xml version="1.0" encoding="UTF-8"?>
<svg id="Layer_1" xmlns="http://www.w3.org/2000/svg" version="1.1" viewBox="0 0 512 512">
  <!-- Generator: Adobe Illustrator 29.7.1, SVG Export Plug-In . SVG Version: 2.1.1 Build 8)  -->
  <defs>
    <style>
      .st0 {
      }
    </style>
  </defs>
  <path class="st0" d="M406.56,309.64c-14.75-15.84-30.9-32.67-48.28-50.06-2.82-2.82-6.93-3.95-10.75-3-20.88,5.16-37.6,12.93-51.12,23.63l-134.33-134.33c4.23-22.13,4.04-45.69-1-73.73-.55-3.07-2.36-5.79-4.98-7.5L69.12,7.84c-3.09-2.02-6.95-2.39-10.36-1.07C35.51,15.91,18.13,33.22,7.07,58.22c-1.55,3.52-1.23,7.59.89,10.82l56.8,86.96c1.7,2.61,4.41,4.41,7.5,4.98,26.15,4.66,49.17,5.82,73.73,1l134.33,134.33c-10.7,13.54-18.52,30.29-23.72,51.22-.95,3.86.18,7.95,3,10.77,17.38,17.38,34.83,33.97,50.69,48.76,36.17,33.45,68.82,61.08,89.71,78.23,14.59,12.43,28.47,20.72,43.26,20.72,12.79,0,26.24-6.2,41.38-21.34,31.97-31.97,23.99-56.03.75-84.5-26.4-32.13-52.17-61.74-78.82-90.48v-.05ZM81.07,139.4L30.47,61.94c7.59-14.7,17.93-25.13,31.36-31.72l77.66,50.74c3.64,22.4,3.89,41.49.75,59.17-17.68,3.11-36.76,2.89-59.17-.75v.02ZM468.57,468.55c-19.63,19.65-30.2,19.52-53.99-.73-20.79-17.11-53.08-44.42-88.82-77.48-14.25-13.27-29.81-28.04-45.44-43.54,10.54-36.76,29.81-56.08,66.51-66.53,15.43,15.54,29.83,30.58,43.08,44.83,26.33,28.4,51.81,57.67,77.91,89.43,20.02,24.52,20.18,34.61.77,54.03l-.02-.02ZM203.36,105.73c-4.89-3.93-5.66-11.07-1.7-15.95,6.61-8.2,14.04-16.43,22.72-25.09C286.57,2.53,340.24-9.58,398.41,25.41c5.84,3.34,7.32,11.88,2.91,16.97-16.5,19.97-34.24,41.85-46.69,57.17l-14.02,17.22c-20.95,24.56-21.06,35.49-.75,55.83,20.06,20.06,30.52,19.93,55.85-.75l15.09-12.36c15.36-12.52,38.26-31.24,59.1-48.51,5.14-4.45,13.63-3,17,2.89,32.72,54.49,23.38,106.45-29.36,163.53-4.27,4.64-11.45,4.89-16.06.64-4.61-4.27-4.89-11.45-.64-16.04,42.13-45.6,52.37-83.59,32.88-124.7-17.72,14.63-35.76,29.36-48.56,39.81l-15.04,12.29c-29.08,23.77-53.65,31.9-86.32-.73-33.29-33.31-24.34-58.67-.61-86.48l13.79-16.95c10.29-12.68,24.2-29.81,38.01-46.65-43.72-20.75-84.73-7.66-134.56,42.17-8,8-15.11,15.81-21.11,23.27-3.93,4.91-11.09,5.68-15.97,1.7h.02ZM221.93,373.05c4.34,4.52,4.2,11.72-.34,16.06-6.36,6.09-12.61,11.95-18.7,17.63-28.54,26.43-58.12,52.22-90.48,78.82-15.16,12.38-29.04,20.43-43.56,20.43-12.75,0-25.97-6.2-40.92-21.18-32.63-32.63-23.84-57.42-.61-84.64,17.06-20.77,44.63-53.35,78.21-89.68,15.5-16.66,33.54-35.54,51.6-53.53,4.43-4.43,11.63-4.43,16.06,0s4.43,11.63,0,16.06c-17.9,17.84-35.72,36.51-51.01,52.94-33.2,35.9-60.44,68.12-77.46,88.8-20.27,23.77-20.38,34.33-.75,53.99,19.43,19.4,29.52,19.29,54.01-.77,31.99-26.29,61.24-51.78,89.41-77.89,6-5.59,12.18-11.38,18.45-17.43,4.5-4.32,11.7-4.2,16.06.36l.02.02Z"/>
</svg>