<?xml version="1.0" encoding="UTF-8"?>
<svg id="Layer_1" xmlns="http://www.w3.org/2000/svg" version="1.1" viewBox="0 0 512 512">
  <!-- Generator: Adobe Illustrator 29.6.1, SVG Export Plug-In . SVG Version: 2.1.1 Build 9)  -->
  <path d="M499.61,19.5c-9.14-12.68-26.18-16.89-45.03-10.6L37.34,147.99c-15.99,5.33-27.05,16.38-30.34,30.32-3.29,13.93,1.66,28.76,13.58,40.69,1.39,1.4,2.99,2.56,4.75,3.47l174.33,89.86,89.86,174.32c.9,1.76,2.07,3.36,3.47,4.76,9.54,9.53,20.65,14.57,32.12,14.57,17.54,0,32.44-12.01,38.88-31.34L503.07,57.4c4.87-14.6,3.64-28.05-3.46-37.89ZM426.54,58.47l-216.37,216.36L45.88,190.14c-1.16-1.49-1.59-2.57-1.7-3.05.44-.52,1.93-1.81,5.22-2.91L426.54,58.47ZM453.52,85.43l-125.72,377.14c-1.13,3.4-2.58,5.08-2.69,5.25-.31,0-1.5-.36-3.27-1.74l-84.69-164.29,216.37-216.37Z"/>
</svg>