<?xml version="1.0" encoding="UTF-8"?>
<svg xmlns="http://www.w3.org/2000/svg" id="Layer_1" data-name="Layer 1" viewBox="0 0 24 24">
  <path d="M18.453,15.013c-1.929,0-3.549,1.314-3.975,3.074-1.852-.373-4.383-1.177-6.301-2.903,.889-.733,1.455-1.83,1.455-3.053,0-1.102-.459-2.102-1.201-2.825,1.917-1.601,4.422-2.359,6.276-2.72,.63,1.411,2.072,2.401,3.745,2.401,2.252,0,4.085-1.792,4.085-3.993s-1.833-3.994-4.085-3.994-4.084,1.792-4.084,3.994c0,.214,.017,.423,.051,.628-1.983,.394-4.721,1.245-6.804,3.067-.607-.35-1.314-.551-2.068-.551-2.252,0-4.085,1.792-4.085,3.994s1.833,3.994,4.085,3.994c.628,0,1.222-.139,1.754-.388,2.138,2.035,5.011,2.943,7.068,3.348,.043,2.166,1.859,3.915,4.083,3.915,2.252,0,4.085-1.792,4.085-3.994s-1.833-3.993-4.085-3.993Zm0-13.013c1.701,0,3.085,1.343,3.085,2.994s-1.384,2.993-3.085,2.993-3.084-1.343-3.084-2.993,1.384-2.994,3.084-2.994ZM2.462,12.131c0-1.651,1.384-2.994,3.085-2.994s3.084,1.343,3.084,2.994-1.384,2.994-3.084,2.994-3.085-1.343-3.085-2.994Zm15.99,9.869c-1.701,0-3.084-1.343-3.084-2.994s1.384-2.993,3.084-2.993,3.085,1.343,3.085,2.993-1.384,2.994-3.085,2.994Z"/>
</svg>
