<?xml version="1.0" encoding="UTF-8"?>
<svg id="Layer_1" xmlns="http://www.w3.org/2000/svg" version="1.1" viewBox="0 0 512 512">
  <!-- Generator: Adobe Illustrator 29.6.1, SVG Export Plug-In . SVG Version: 2.1.1 Build 9)  -->
  <defs>
    <style>
      .st0 {

      }
    </style>
  </defs>
  <path class="st0" d="M504.76,239.54c-.39-.73-6.86-12.93-22.77-27.88.77-7.39,1.25-15.27,1.25-23.82,0-45.09-11.36-75.11-35.27-93.04,28.02-5.91,47.18-24.32,56.82-55.2,2.48-7.95,1-16.34-4.07-23.04-5.2-6.86-13.89-10.68-22.25-10.54-26.09.82-49.77,8.02-63.41,19.23-19.23,14.98-24.68,34.41-26.16,42.04-6.57-18.61-20.59-33.18-22.64-35.2-4.41-4.41-11.59-4.43-16.04,0-4.43,4.41-4.45,11.61-.02,16.04,4.05,4.09,12.95,14.89,17.14,26.2-77.93.68-111.36,34.66-111.36,113.49-.34,0-.64.25-.95.27-.25-4.66-.55-9.02-.98-12.73-2.48-25.66-10.61-43.91-18.5-61.54-9.66-21.64-18.73-42.23-19.23-77.72,8.55,1.86,13.23,3.39,13.36,3.41,5.77,1.98,12.39-1.2,14.34-7.2,1.98-5.95-1.23-12.36-7.18-14.36-1.45-.48-36.5-11.93-94.5-11.93s-93.04,11.48-94.5,11.95c-5.95,2-9.16,8.41-7.18,14.36,1.95,5.98,8.48,9.2,14.34,7.2.11-.05,4.59-1.45,12.52-3.23-.55,35.38-9.57,55.93-19.23,77.52-7.86,17.64-16.02,35.88-18.45,61.34-.82,7.05-1.36,24.68-1.41,37.88-14.82,14.32-20.89,25.77-21.25,26.5-.8,1.57-1.2,3.32-1.2,5.11,0,100.88,23.82,228.1,24.07,229.37.86,4.52,4.34,8.07,8.84,9,1.09.25,111.11,22.98,217.1,22.98s215.99-22.73,217.1-22.98c4.5-.93,7.98-4.48,8.84-9,.25-1.27,24.07-128.47,24.07-229.37,0-1.77-.41-3.52-1.2-5.11h-.05ZM429.13,43.09l.3-.25c9.54-7.93,29.07-13.48,49.72-14.11,2.75-.16,4.45,1.91,3.93,4.07-8.61,27.57-24.77,40.32-51.93,41.38-9.91,0-16.89-2.05-19.91-3.14,1-4.86,4.77-17.82,17.86-27.95h.02ZM369.61,96.91c67.11,0,90.9,23.79,90.9,90.9,0,2.32-.11,4.45-.18,6.68-2.48-1.68-4.82-3.36-7.55-5.02-3.64-2.18-8.16-2.18-11.82,0-20.48,12.45-33.79,25.66-41.82,35.38-8.02-9.73-21.32-22.93-41.82-35.38-3.64-2.18-8.16-2.18-11.82,0-20.48,12.45-33.79,25.66-41.82,35.38-5.45-6.61-13.59-14.86-24.52-23.34-.27-4.39-.48-8.89-.48-13.68,0-67.11,23.79-90.9,90.9-90.9v-.02ZM52.44,177.56c2.11-21.95,9.16-37.75,16.64-54.45,9.98-22.34,21.29-47.7,21.29-89.97,0-.3-.16-.55-.18-.84,13.89-1.95,31.43-3.52,52.16-3.52s37.61,1.5,51.36,3.39c-.02.34-.2.64-.2.98,0,42.27,11.32,67.63,21.29,90,7.45,16.7,14.5,32.5,16.66,54.63,1.02,6.39.59,15.23,1.66,23.48-11.11,8.59-19.36,16.93-24.86,23.61-8.02-9.73-21.34-22.93-41.82-35.38-3.64-2.18-8.16-2.18-11.82,0-20.48,12.45-33.79,25.66-41.82,35.38-8.02-9.73-21.34-22.93-41.82-35.38-3.64-2.18-8.16-2.18-11.82,0-2.77,1.68-5.14,3.39-7.66,5.09.25-7.39.57-13.84.93-17.02v.02ZM51.01,462.25c-4.98-28.23-21.89-130.31-22.29-214.53,3.41-5.36,14.16-20.27,36.36-35.04,27.61,18.39,37.5,36.95,37.57,37.09,1.93,3.84,6.77,6.16,10.16,6.23,4.25,0,8.14-2.39,10.11-6.16.09-.2,9.98-18.77,37.59-37.16,27.63,18.39,37.5,36.95,37.57,37.09,1.93,3.84,5.57,5.98,10.16,6.2,4.25,0,8.14-2.36,10.11-6.16.09-.2,9.98-18.77,37.61-37.16,18.82,12.52,29.25,24.98,34.13,31.82-.14,91.61,17.2,202.31,22.93,236.76-18.7,1.25-37.93,2.02-57.07,2.02-87.86,0-178.74-16.02-204.97-21.02l.02.02ZM460.92,462.25c-18.16,3.45-67.41,12.2-125.15,17.27-5.16-30.54-22.16-137.92-22.91-228.69,1.77-1.43,9.59-18.79,38.57-38.16,27.61,18.39,37.5,36.95,37.57,37.09,1.91,3.82,5.82,6.18,10.09,6.2h.07c4.25,0,8.14-2.39,10.11-6.16.09-.2,9.98-18.77,37.61-37.16,22.25,14.79,32.98,29.73,36.36,35.04-.41,84.2-17.32,186.31-22.29,214.53l-.02.02Z"/>
</svg>