<svg xmlns="http://www.w3.org/2000/svg" viewBox="0 0 512 512"><path d="M421.21 235.13H360.2c-23.1 0-41.68-18.58-41.68-41.68v-91.77c-30.63-12.43-65.53-16.32-102.19-7.66-62.77 14.69-112.23 66.66-124.03 129.93-19.71 106.2 61.14 198.72 163.7 198.72 92.02 0 166.71-74.69 166.71-166.71 0-7.03-.63-13.93-1.5-20.84Zm-93.53 87.37v.13l-92.52-57.62V130.94h41.68v110.97l72.93 45.32-22.09 35.28Z" style="fill:#988561"/><path d="M506 47.67v104.17c0 23.02-18.65 41.67-41.67 41.67H360.16v-41.67h75.75C391.62 75.36 304.29 33.53 212.97 52.03 130.49 68.74 65.07 136.3 50.8 219.26c-22.52 131.02 78.25 245.08 205.17 245.08 8.08 0 16.25-.46 24.31-1.4l4.79 41.38c-9.65 1.13-19.44 1.69-29.1 1.69-151.67 0-272.23-135.79-246.5-292.19 16.24-98.67 92.32-179.94 189.95-201.57 106-23.48 208.79 20.81 264.92 105.69V47.65h41.67v.02Z"/><path d="m352.25 440.81 19.29 36.94a248.917 248.917 0 0 1-42 17.25l-12.25-39.83c12-3.69 23.77-8.5 34.96-14.35ZM464.33 256H506c0 15.17-1.37 30.38-4.08 45.19l-40.98-7.48c2.25-12.37 3.4-25.04 3.4-37.71ZM411.67 394.46l31.12 27.71a250.488 250.488 0 0 1-33.13 31.02l-25.6-32.87c9.92-7.71 19.19-16.42 27.58-25.85h.02ZM450.79 330.04l38.94 14.85a252.042 252.042 0 0 1-19.94 40.77l-35.65-21.6c6.58-10.85 12.19-22.29 16.65-34.02Z"/></svg>