<svg id="Layer_1" height="512" viewBox="0 0 520 520" width="512" xmlns="http://www.w3.org/2000/svg" data-name="Layer 1"><path d="m159.152 240.606a46.546 46.546 0 1 0 -46.546 46.546 46.6 46.6 0 0 0 46.546-46.546zm-77.576 0a31.03 31.03 0 1 1 31.03 31.03 31.065 31.065 0 0 1 -31.03-31.03z"/><path d="m477.212 147.515a31.03 31.03 0 1 0 -31.03 31.03 31.065 31.065 0 0 0 31.03-31.03zm-46.545 0a15.515 15.515 0 1 1 15.515 15.515 15.53 15.53 0 0 1 -15.515-15.515z"/><path d="m481.949 224.72c16.776-19.556 34.051-46.96 34.051-77.205a69.818 69.818 0 1 0 -139.636 0c0 30.244 17.274 57.648 34.05 77.2-8.179 3.963-13.935 9.223-16.671 15.3-.4-.035-.726-.065-1.16-.1a7.758 7.758 0 1 0 -1.288 15.462c.738.062 1.339.116 1.978.172 5.386 13.989 26.315 23.847 52.909 23.847 30.958 0 54.3-13.341 54.3-31.03.003-9.566-6.782-17.951-18.533-23.646zm-35.767-131.508a54.364 54.364 0 0 1 54.3 54.3c0 41.36-40.379 79.083-54.307 90.868-13.939-11.766-54.3-49.417-54.3-90.868a54.364 54.364 0 0 1 54.307-54.3zm0 170.667c-23.678 0-38.788-9.19-38.788-15.515 0-3.418 4.85-8.2 14.167-11.57a205.5 205.5 0 0 0 19.966 17.774 7.753 7.753 0 0 0 9.31 0 205.757 205.757 0 0 0 19.963-17.768c9.318 3.373 14.168 8.155 14.168 11.569.002 6.32-15.108 15.51-38.786 15.51z"/><path d="m198.333 396.261c-.669-.038-1.2-.07-1.787-.105-4.045-10.827-17.075-19.76-36.977-25.346 28.8-31.163 61.643-78.1 61.643-130.2a108.606 108.606 0 0 0 -217.212-.004c0 52.1 32.846 99.041 61.643 130.2-24.26 6.809-38.37 18.585-38.37 32.7 0 25.193 43.966 38.788 85.333 38.788 36.637 0 75.247-10.682 83.613-30.623l1.243.074c.148.007.3.011.443.011a7.758 7.758 0 0 0 .428-15.5zm-85.727-248.746a93.2 93.2 0 0 1 93.094 93.091c0 72.379-73.682 137.2-93.091 153.023-19.409-15.818-93.094-80.644-93.094-153.023a93.2 93.2 0 0 1 93.091-93.091zm0 279.273c-42.621 0-69.818-13.784-69.818-23.273 0-6.215 12.473-14.944 35.437-19.748a316.566 316.566 0 0 0 29.752 25.972 7.751 7.751 0 0 0 9.258 0 316.421 316.421 0 0 0 29.752-25.972c22.964 4.8 35.437 13.533 35.437 19.748 0 9.485-27.197 23.273-69.818 23.273z"/><path d="m269.307 273.186a20.185 20.185 0 0 1 7.447-7.213.59.59 0 0 1 .31-.155l.08-.079a7.672 7.672 0 0 0 3.644-6.595 8.294 8.294 0 0 0 -1.083-4.034 7.949 7.949 0 0 0 -10.629-2.637c-6.129 3.724-10.629 8.144-13.421 13.345a7.717 7.717 0 0 0 6.826 11.4 7.888 7.888 0 0 0 6.826-4.032z"/><path d="m242.932 397.462h-.466c-4.811 0-9.7 0-14.428-.076h-.155a7.8 7.8 0 0 0 -7.758 7.6 7.677 7.677 0 0 0 7.6 7.833c4.887.155 9.773.155 14.739.155h.39a7.758 7.758 0 0 0 .076-15.515z"/><path d="m397 342.307v-.08a7.959 7.959 0 0 0 -10.007-4.341 7.759 7.759 0 0 0 -4.421 10.084 24.858 24.858 0 0 1 1.553 9 15.942 15.942 0 0 1 -.079 2.015 7.753 7.753 0 0 0 6.905 8.534h.776a7.751 7.751 0 0 0 7.758-6.981c.076-1.163.155-2.405.155-3.568a41.337 41.337 0 0 0 -2.484-14.353c-.08-.079-.08-.234-.156-.31z"/><path d="m370.856 376.674a74.514 74.514 0 0 1 -12.182 6.049 7.846 7.846 0 0 0 -4.344 10.084 7.757 7.757 0 0 0 7.215 4.89 7.244 7.244 0 0 0 2.872-.545 87.153 87.153 0 0 0 14.738-7.368 7.731 7.731 0 0 0 3.568-6.519 8.14 8.14 0 0 0 -1.162-4.189 7.935 7.935 0 0 0 -10.705-2.402z"/><path d="m287.383 395.989c-4.966.386-9.928.621-14.739.852a7.687 7.687 0 0 0 -7.447 8.068 7.718 7.718 0 0 0 7.758 7.447h.31c5.352-.231 10.474-.542 15.205-.852a7.842 7.842 0 0 0 7.212-7.758v-.541a7.8 7.8 0 0 0 -8.299-7.216z"/><path d="m331.136 390.481c-4.269.852-8.92 1.629-14.428 2.481a7.11 7.11 0 0 0 -5.045 3.027 7.55 7.55 0 0 0 -1.474 5.742 7.705 7.705 0 0 0 7.682 6.591 5.579 5.579 0 0 0 1.084-.076c5.121-.7 10.242-1.553 15.208-2.56a7.862 7.862 0 0 0 6.28-7.523 9.386 9.386 0 0 0 -.155-1.553 7.881 7.881 0 0 0 -9.152-6.129z"/><path d="m280.943 311.508a7.743 7.743 0 0 0 2.871-14.97 37.375 37.375 0 0 1 -10.784-5.974 7.964 7.964 0 0 0 -10.935.853 7.755 7.755 0 0 0 .852 10.939c3.955 3.413 8.845 6.129 15.2 8.61a7.176 7.176 0 0 0 2.796.542z"/><path d="m323.534 321.6a8.713 8.713 0 0 0 1.394.075 7.742 7.742 0 0 0 1.322-15.359l-3.648-.622c-3.879-.7-7.447-1.394-11.094-2.015a7.764 7.764 0 0 0 -9.076 6.129 8.6 8.6 0 0 0 -.076 1.394 7.608 7.608 0 0 0 6.284 7.682c4.5.852 9.076 1.708 13.5 2.481z"/><path d="m361.235 253.792a7.936 7.936 0 0 0 7.837-7.678v-.156a7.792 7.792 0 0 0 -7.606-7.681c-3.724-.156-7.368-.156-11.015-.156h-4.265a7.758 7.758 0 1 0 .155 15.515c4.966-.075 9.928 0 14.739.156z"/><path d="m317.1 255.189a7.7 7.7 0 0 0 6.9-7.757v-.777a7.823 7.823 0 0 0 -8.534-6.905c-5.508.621-10.7 1.322-15.515 2.25a7.745 7.745 0 0 0 1.394 15.36 9.372 9.372 0 0 0 1.477-.155c4.42-.773 9.231-1.474 14.278-2.016z"/><path d="m368.451 333.076a7.754 7.754 0 0 0 3.178-14.818 101.8 101.8 0 0 0 -14.739-5.277 1.114 1.114 0 0 0 -.466-.151h-.076a7.829 7.829 0 0 0 -9.541 5.352 9.618 9.618 0 0 0 -.235 2.095 7.659 7.659 0 0 0 5.587 7.446 93.893 93.893 0 0 1 13.11 4.652 7.585 7.585 0 0 0 3.182.701z"/></svg>