<?xml version="1.0" encoding="UTF-8"?>
<svg id="Layer_1" xmlns="http://www.w3.org/2000/svg" version="1.1" viewBox="0 0 512 512">
  <path fill="#988561" d="M506,256c0,21.33-26.21,38.92-31.46,58.58-5.42,20.33,8.29,48.67-2,66.46-10.46,18.08-41.92,20.25-56.58,34.92-14.67,14.67-16.83,46.12-34.92,56.58-17.79,10.29-46.12-3.42-66.46,2-19.67,5.25-37.25,31.46-58.58,31.46s-38.92-26.21-58.58-31.46c-20.33-5.42-48.67,8.29-66.46-2-18.08-10.46-20.25-41.92-34.92-56.58-14.67-14.67-46.12-16.83-56.58-34.92-10.29-17.79,3.42-46.12-2-66.46-5.25-19.67-31.46-37.25-31.46-58.58s26.21-38.92,31.46-58.58c5.42-20.33-8.29-48.67,2-66.46,10.46-18.08,41.92-20.25,56.58-34.92,14.67-14.67,16.83-46.12,34.92-56.58,17.79-10.29,46.12,3.42,66.46-2,19.67-5.25,37.25-31.46,58.58-31.46s38.92,26.21,58.58,31.46c20.33,5.42,48.67-8.29,66.46,2,18.08,10.46,20.25,41.92,34.92,56.58,14.67,14.67,46.12,16.83,56.58,34.92,10.29,17.79-3.42,46.12,2,66.46,5.25,19.67,31.46,37.25,31.46,58.58Z"/>
  <path fill="#FFFCEE" d="M328.25,181.5l-95.17,95.17-49.33-49.29c-10.71-10.71-28.08-10.71-38.79,0-10.71,10.71-10.71,28.08,0,38.79l69.21,69.21c10.42,10.42,27.33,10.42,37.75,0l115.08-115.08c10.71-10.71,10.71-28.08,0-38.79-10.71-10.71-28.04-10.71-38.75,0Z"/>
</svg>
