<?xml version="1.0" encoding="UTF-8"?>
<svg id="Layer_1" xmlns="http://www.w3.org/2000/svg" version="1.1" viewBox="0 0 512 512">
  <!-- Generator: Adobe Illustrator 29.6.1, SVG Export Plug-In . SVG Version: 2.1.1 Build 9)  -->
  <defs>
    <style>
      .st0 {
        fill: #988561;
      }
    </style>
  </defs>
  <path d="M496.53,208.41c-5.68-5.68-13.73-9.47-22.25-9.47h-47.35l-126.42-131.16c-1.42-10.42-5.68-19.41-12.78-26.04-8.05-8.52-19.41-13.26-31.72-13.26s-23.67,5.21-31.72,13.26c-7.1,7.1-11.36,16.1-12.78,26.04l-126.42,131.63h-47.35c-8.52,0-16.57,3.31-22.25,9.47-5.68,5.68-9.47,13.73-9.47,22.25v220.64c0,8.52,3.79,16.57,9.47,22.25,5.68,5.68,13.73,9.47,22.25,9.47h436.55c8.52,0,16.57-3.79,22.25-9.47,5.68-5.68,9.47-13.73,9.47-22.25v-220.64c0-9-3.79-16.57-9.47-22.73ZM242.74,59.74c3.31-3.31,8.05-5.68,13.26-5.68s9.94,2.37,13.26,5.68c3.31,3.31,5.68,8.05,5.68,13.26s-2.37,9.94-5.68,13.26l-.47.47c-3.31,3.31-8.05,5.21-12.78,5.21-5.21,0-9.94-1.89-13.26-5.68-3.31-3.31-5.68-8.05-5.68-13.26s1.89-9.94,5.68-13.26ZM218.12,97.62c1.89,2.84,3.79,5.21,5.68,7.1,8.52,8.52,19.89,13.73,32.2,13.73s22.73-4.73,30.78-12.31q.47-.47.95-.95c2.37-2.37,4.26-4.73,5.68-7.1l97.54,101.8H120.58l97.54-102.27ZM478.54,456.05c-.95.95-2.37,1.42-4.26,1.42H37.72c-1.42,0-2.84-.47-4.26-1.89-.95-.95-1.89-2.37-1.89-4.26v-220.17c0-1.42.47-2.84,1.42-4.26.95-.95,2.37-1.42,4.26-1.42h436.55c1.42,0,2.84.47,4.26,1.42.95.95,1.42,2.37,1.42,4.26v220.64h.47c0,1.42-.47,2.84-1.42,4.26Z"/>
  <path class="st0" d="M246.53,291.75c-4.26-2.84-8.52-4.73-13.73-5.68-4.73-1.42-10.42-1.89-16.1-1.89-7.1,0-12.78.47-16.57.47-4.26,0-6.63,0-7.1.47-6.63.47-10.89,3.79-12.78,9.47-.47.95-.47,2.37-.95,3.79v33.14c0,28.88-.47,47.35-.47,55.4,0,7.58,4.73,11.84,13.73,11.84,4.26,0,8.05-.95,10.42-2.84,2.37-1.89,3.79-5.21,3.79-9v-24.15h3.79c5.21,0,9.94,0,13.73-.47,3.79,0,6.63-.47,8.52-.95,4.26-.95,8.05-2.37,11.84-4.73,3.31-2.37,6.63-5.21,9-9,2.84-3.31,4.73-7.1,6.16-11.36,1.42-3.79,1.89-8.05,2.37-12.31.47-7.1-.47-13.26-3.31-18.94-2.84-5.21-6.63-9.94-12.31-13.26ZM235.17,327.26c-.47,1.42-1.42,2.84-1.89,4.26-1.89,2.84-3.79,4.26-6.63,5.21-1.42.47-3.31.47-5.68.95h-13.73v-28.88h9.94c5.21,0,9,.47,11.84,1.89,2.37.95,4.26,2.37,5.21,4.26.95,1.89,1.89,4.26,1.89,7.1,0,1.89-.47,3.79-.95,5.21Z"/>
  <path class="st0" d="M133.37,287.49c-6.63-2.84-13.73-3.79-21.31-3.79-14.2,0-27.46,5.21-38.35,16.57-5.68,5.68-9.94,12.31-12.78,19.41-2.84,7.1-4.26,15.15-4.26,24.15,0,16.57,5.68,29.83,16.57,40.25,5.68,5.21,11.36,9,17.99,11.36,6.63,2.37,13.26,3.79,20.36,3.79,8.05,0,15.15-1.42,21.78-4.26,6.63-2.84,12.78-7.1,17.99-12.78,5.21-5.68,9.47-12.31,12.31-18.94,2.84-7.1,4.26-14.68,4.26-22.73,0-16.1-5.68-29.83-16.57-40.25-5.68-6.16-11.36-9.94-17.99-12.78ZM138.58,352.83c-1.42,3.79-3.31,7.58-6.16,10.89-5.21,6.63-11.84,9.47-19.41,9.47-4.26,0-8.05-.47-11.36-1.89-3.31-1.42-6.16-3.31-9-6.63-2.84-2.84-4.73-6.16-6.16-9.94-1.42-3.79-1.89-8.05-1.89-12.78s.47-9.47,1.89-13.26c1.42-3.79,3.31-7.58,5.68-10.42,5.21-6.16,11.36-9,18.94-9,4.26,0,7.58.95,11.36,1.89,3.31,1.42,6.63,3.79,9.47,6.63,2.84,2.84,5.21,6.16,6.63,9.94.95,3.79,1.89,8.05,1.89,12.78,0,4.26-.47,8.52-1.89,12.31Z"/>
  <path class="st0" d="M336.49,372.71h-9.94c-3.79,0-8.05,0-13.26.47h-14.68v-19.41h28.41c3.79,0,6.63-.95,9-2.84,1.89-1.89,3.31-4.73,3.31-8.52,0-4.73-.95-8.05-3.79-9.94-1.42-.95-2.84-1.42-4.73-1.89-1.89-.47-3.79-.47-5.68-.47-6.63,0-14.2.47-23.2.47h-2.37l.47-12.78v-8.52h27.46c6.16,0,9.47,0,10.89-.47h.47c2.84-.95,4.73-2.37,5.68-4.73.95-1.89,1.89-4.73,1.42-8.05,0-1.42-.47-3.31-.95-4.26-.47-1.42-1.42-2.84-2.37-3.79-.95-.95-2.37-1.89-3.79-2.37-1.42-.47-2.84-.95-4.73-.95h-45.93c-4.26,0-7.58.95-9.94,2.84-1.42.95-2.37,2.37-3.31,3.79-.95,1.42-.95,3.31-1.42,5.21v86.65c0,2.37.47,4.26,1.42,6.16.95,1.89,2.37,3.31,3.79,4.26,1.42.95,3.31,1.42,6.16,1.89,2.37.47,5.21.47,8.52.47h43.56c3.79,0,7.1-1.42,9-3.31,1.89-2.37,3.31-5.21,3.31-9.47,0-3.79-.95-6.63-2.84-9-3.31,0-6.16-1.42-9.94-1.42Z"/>
  <path class="st0" d="M454.86,351.88v-53.98c0-9-4.26-13.73-13.26-13.73-2.37,0-4.26.47-6.16.95-1.89.47-3.31,1.42-4.73,2.84-1.42,1.42-1.89,2.84-2.84,4.73-.47,1.89-.95,3.79-.95,6.63l.47,30.3v18.47l-3.31-5.21-35.04-49.24c-.95-1.42-2.37-2.84-3.31-3.79-.95-.95-2.37-2.37-3.31-2.84-.95-.95-2.37-1.42-3.79-1.89-1.42-.47-2.84-.47-4.26-.47-3.79,0-7.58.95-10.42,2.84-1.89.95-2.84,2.37-3.79,3.79-.95,1.42-1.42,3.31-1.42,5.21v89.02c0,3.79,1.42,7.1,4.26,9,2.37,1.89,5.68,2.84,9.94,2.84s7.58-1.42,9.47-3.79c2.37-2.37,3.31-5.68,3.31-9.94v-53.5l39.77,56.82c.95,1.42,1.89,2.84,2.84,4.26.95,1.42,1.89,2.37,2.84,2.84.95.95,2.37,1.42,3.79,1.89,1.42.47,2.84.47,4.26.47,4.26,0,7.58-.95,10.89-3.31,1.42-.95,2.84-2.37,3.79-4.26.95-1.42,1.42-3.31,1.42-5.21v-21.31l-.47-6.16v-4.26h0Z"/>
</svg>